<ttFont>
    <TTGlyph name=".notdef" xMin="68" yMin="0" xMax="612" yMax="1365">
      <contour>
        <pt x="68" y="0" on="1"/>
        <pt x="68" y="1365" on="1"/>
        <pt x="612" y="1365" on="1"/>
        <pt x="612" y="0" on="1"/>
      </contour>
      <contour>
        <pt x="136" y="68" on="1"/>
        <pt x="544" y="68" on="1"/>
        <pt x="544" y="1297" on="1"/>
        <pt x="136" y="1297" on="1"/>
      </contour>
    </TTGlyph>
    <TTGlyph name="A" xMin="25" yMin="0" xMax="1105" yMax="1515">
      <contour>
        <pt x="25" y="0" on="1"/>
        <pt x="457" y="1515" on="1"/>
        <pt x="673" y="1515" on="1"/>
        <pt x="1105" y="0" on="1"/>
        <pt x="951" y="0" on="1"/>
        <pt x="821" y="478" on="1"/>
        <pt x="312" y="478" on="1"/>
        <pt x="179" y="0" on="1"/>
      </contour>
      <contour>
        <pt x="346" y="602" on="1"/>
        <pt x="786" y="602" on="1"/>
        <pt x="565" y="1389" on="1"/>
      </contour>
    </TTGlyph>
    <TTGlyph name="AE" xMin="25" yMin="0" xMax="1532" yMax="1515">
      <contour>
        <pt x="25" y="0" on="1"/>
        <pt x="457" y="1515" on="1"/>
        <pt x="1494" y="1515" on="1"/>
        <pt x="1494" y="1391" on="1"/>
        <pt x="821" y="1391" on="1"/>
        <pt x="821" y="858" on="1"/>
        <pt x="1304" y="858" on="1"/>
        <pt x="1304" y="734" on="1"/>
        <pt x="821" y="734" on="1"/>
        <pt x="821" y="133" on="1"/>
        <pt x="1532" y="133" on="1"/>
        <pt x="1532" y="0" on="1"/>
        <pt x="673" y="0" on="1"/>
        <pt x="673" y="478" on="1"/>
        <pt x="312" y="478" on="1"/>
        <pt x="179" y="0" on="1"/>
      </contour>
      <contour>
        <pt x="346" y="602" on="1"/>
        <pt x="673" y="602" on="1"/>
        <pt x="673" y="1389" on="1"/>
        <pt x="565" y="1389" on="1"/>
      </contour>
    </TTGlyph>
    <TTGlyph name="AEacute" xMin="25" yMin="0" xMax="1532" yMax="2014">
      <component glyphName="acute" x="788" y="559" flags="0x4"/>
      <component glyphName="AE" x="0" y="0" flags="0x4"/>
    </TTGlyph>
    <TTGlyph name="AEmacron" xMin="25" yMin="0" xMax="1532" yMax="1746">
      <component glyphName="macron" x="622" y="423" flags="0x4"/>
      <component glyphName="AE" x="0" y="0" flags="0x4"/>
    </TTGlyph>
    <TTGlyph name="Aacute" xMin="25" yMin="0" xMax="1105" yMax="1967">
      <component glyphName="acute" x="429" y="512" flags="0x4"/>
      <component glyphName="A" x="0" y="0" flags="0x4"/>
    </TTGlyph>
    <TTGlyph name="Abreve" xMin="25" yMin="0" xMax="1105" yMax="1829">
      <component glyphName="breve" x="300" y="539" flags="0x4"/>
      <component glyphName="A" x="0" y="0" flags="0x4"/>
    </TTGlyph>
    <TTGlyph name="Abreveacute" xMin="25" yMin="0" xMax="1105" yMax="2311">
      <component glyphName="acute" x="377" y="856" flags="0x4"/>
      <component glyphName="breve" x="300" y="539" flags="0x4"/>
      <component glyphName="A" x="0" y="0" flags="0x4"/>
    </TTGlyph>
    <TTGlyph name="Abrevecyrillic" xMin="25" yMin="0" xMax="1105" yMax="1829">
      <component glyphName="breve" x="300" y="539" flags="0x4"/>
      <component glyphName="A" x="0" y="0" flags="0x4"/>
    </TTGlyph>
    <TTGlyph name="Abrevedotbelow" xMin="25" yMin="-272" xMax="1105" yMax="1829">
      <component glyphName="breve" x="300" y="539" flags="0x4"/>
      <component glyphName="dotaccent" x="565" y="-394" flags="0x4"/>
      <component glyphName="A" x="0" y="0" flags="0x4"/>
    </TTGlyph>
    <TTGlyph name="Abrevegrave" xMin="25" yMin="0" xMax="1105" yMax="2311">
      <component glyphName="grave" x="70" y="856" flags="0x4"/>
      <component glyphName="breve" x="300" y="539" flags="0x4"/>
      <component glyphName="A" x="0" y="0" flags="0x4"/>
    </TTGlyph>
    <TTGlyph name="Abrevetilde" xMin="25" yMin="0" xMax="1105" yMax="2151">
      <component glyphName="asciitilde" x="171" y="836" flags="0x4"/>
      <component glyphName="breve" x="300" y="539" flags="0x4"/>
      <component glyphName="A" x="0" y="0" flags="0x4"/>
    </TTGlyph>
    <TTGlyph name="Acaron" xMin="25" yMin="0" xMax="1105" yMax="1941">
      <component glyphName="caron" x="253" y="522" flags="0x4"/>
      <component glyphName="A" x="0" y="0" flags="0x4"/>
    </TTGlyph>
    <TTGlyph name="Acircumflex" xMin="25" yMin="0" xMax="1105" yMax="1941">
      <component glyphName="asciicircum" x="253" y="522" flags="0x4"/>
      <component glyphName="A" x="0" y="0" flags="0x4"/>
    </TTGlyph>
    <TTGlyph name="Acircumflexacute" xMin="25" yMin="0" xMax="1105" yMax="2423">
      <component glyphName="acute" x="377" y="968" flags="0x4"/>
      <component glyphName="asciicircum" x="253" y="522" flags="0x4"/>
      <component glyphName="A" x="0" y="0" flags="0x4"/>
    </TTGlyph>
    <TTGlyph name="Acircumflexdotbelow" xMin="25" yMin="-272" xMax="1105" yMax="1941">
      <component glyphName="asciicircum" x="253" y="522" flags="0x4"/>
      <component glyphName="dotaccent" x="565" y="-394" flags="0x4"/>
      <component glyphName="A" x="0" y="0" flags="0x4"/>
    </TTGlyph>
    <TTGlyph name="Acircumflexgrave" xMin="25" yMin="0" xMax="1105" yMax="2423">
      <component glyphName="grave" x="70" y="968" flags="0x4"/>
      <component glyphName="asciicircum" x="253" y="522" flags="0x4"/>
      <component glyphName="A" x="0" y="0" flags="0x4"/>
    </TTGlyph>
    <TTGlyph name="Acircumflextilde" xMin="25" yMin="0" xMax="1105" yMax="2263">
      <component glyphName="asciitilde" x="171" y="948" flags="0x4"/>
      <component glyphName="asciicircum" x="253" y="522" flags="0x4"/>
      <component glyphName="A" x="0" y="0" flags="0x4"/>
    </TTGlyph>
    <TTGlyph name="Acyrillic" xMin="25" yMin="0" xMax="1105" yMax="1515">
      <component glyphName="A" x="0" y="0" flags="0x204"/>
    </TTGlyph>
    <TTGlyph name="Adblgrave" xMin="25" yMin="0" xMax="1105" yMax="2014">
      <component glyphName="grave" x="407" y="559" flags="0x4"/>
      <component glyphName="grave" x="54" y="559" flags="0x4"/>
      <component glyphName="A" x="0" y="0" flags="0x4"/>
    </TTGlyph>
    <TTGlyph name="Adieresis" xMin="25" yMin="0" xMax="1105" yMax="1804">
      <component glyphName="dieresis" x="238" y="451" flags="0x4"/>
      <component glyphName="A" x="0" y="0" flags="0x4"/>
    </TTGlyph>
    <TTGlyph name="Adieresiscyrillic" xMin="25" yMin="0" xMax="1105" yMax="1804">
      <component glyphName="dieresis" x="238" y="451" flags="0x4"/>
      <component glyphName="A" x="0" y="0" flags="0x4"/>
    </TTGlyph>
    <TTGlyph name="Adieresismacron" xMin="25" yMin="0" xMax="1105" yMax="2018">
      <component glyphName="macron" x="212" y="695" flags="0x4"/>
      <component glyphName="dieresis" x="238" y="451" flags="0x4"/>
      <component glyphName="A" x="0" y="0" flags="0x4"/>
    </TTGlyph>
    <TTGlyph name="Adotaccent" xMin="25" yMin="0" xMax="1105" yMax="1804">
      <component glyphName="dotaccent" x="565" y="1532" flags="0x4"/>
      <component glyphName="A" x="0" y="0" flags="0x4"/>
    </TTGlyph>
    <TTGlyph name="Adotbelow" xMin="25" yMin="-272" xMax="1105" yMax="1515">
      <component glyphName="dotaccent" x="565" y="-394" flags="0x4"/>
      <component glyphName="A" x="0" y="0" flags="0x4"/>
    </TTGlyph>
    <TTGlyph name="Adotmacron" xMin="25" yMin="0" xMax="1105" yMax="2018">
      <component glyphName="macron" x="212" y="695" flags="0x4"/>
      <component glyphName="dotaccent" x="565" y="1532" flags="0x4"/>
      <component glyphName="A" x="0" y="0" flags="0x4"/>
    </TTGlyph>
    <TTGlyph name="Agrave" xMin="25" yMin="0" xMax="1105" yMax="1967">
      <component glyphName="grave" x="18" y="512" flags="0x4"/>
      <component glyphName="A" x="0" y="0" flags="0x4"/>
    </TTGlyph>
    <TTGlyph name="Aie" xMin="25" yMin="0" xMax="1532" yMax="1515">
      <component glyphName="AE" x="0" y="0" flags="0x204"/>
    </TTGlyph>
    <TTGlyph name="Ainvertedbreve" xMin="25" yMin="0" xMax="1105" yMax="1829">
      <component glyphName="breveinvertedcomb" x="300" y="539" flags="0x4"/>
      <component glyphName="A" x="0" y="0" flags="0x4"/>
    </TTGlyph>
    <TTGlyph name="Alpha" xMin="25" yMin="0" xMax="1105" yMax="1515">
      <component glyphName="A" x="0" y="0" flags="0x204"/>
    </TTGlyph>
    <TTGlyph name="Alphaacute" xMin="25" yMin="0" xMax="1105" yMax="1531">
      <component glyphName="oxia" x="-117" y="53" flags="0x4"/>
      <component glyphName="A" x="0" y="0" flags="0x4"/>
    </TTGlyph>
    <TTGlyph name="Alphaasper" xMin="25" yMin="0" xMax="1105" yMax="1532">
      <component glyphName="commareversedabovecomb" x="36" y="26" flags="0x4"/>
      <component glyphName="A" x="0" y="0" flags="0x4"/>
    </TTGlyph>
    <TTGlyph name="Alphaasperacute" xMin="-262" yMin="0" xMax="1105" yMax="1532">
      <component glyphName="oxia" x="-180" y="53" flags="0x4"/>
      <component glyphName="commareversedabovecomb" x="-332" y="26" flags="0x4"/>
      <component glyphName="A" x="0" y="0" flags="0x4"/>
    </TTGlyph>
    <TTGlyph name="Alphaaspergrave" xMin="-229" yMin="0" xMax="1105" yMax="1532">
      <component glyphName="varia" x="-229" y="51" flags="0x4"/>
      <component glyphName="commareversedabovecomb" x="-299" y="26" flags="0x4"/>
      <component glyphName="A" x="0" y="0" flags="0x4"/>
    </TTGlyph>
    <TTGlyph name="Alphaaspertilde" xMin="-145" yMin="0" xMax="1105" yMax="1862">
      <component glyphName="asciitilde" x="-235" y="547" flags="0x4"/>
      <component glyphName="commareversedabovecomb" x="14" y="31" flags="0x4"/>
      <component glyphName="A" x="0" y="0" flags="0x4"/>
    </TTGlyph>
    <TTGlyph name="Alphabreve" xMin="25" yMin="0" xMax="1105" yMax="1829">
      <component glyphName="breve" x="300" y="539" flags="0x4"/>
      <component glyphName="A" x="0" y="0" flags="0x4"/>
    </TTGlyph>
    <TTGlyph name="Alphagrave" xMin="3" yMin="0" xMax="1105" yMax="1532">
      <component glyphName="varia" x="-226" y="51" flags="0x4"/>
      <component glyphName="A" x="0" y="0" flags="0x4"/>
    </TTGlyph>
    <TTGlyph name="Alphaiotasub" xMin="25" yMin="-410" xMax="1105" yMax="1515">
      <component glyphName="ypogegrammenigreekcomb" x="354" y="-8" flags="0x4"/>
      <component glyphName="A" x="0" y="0" flags="0x4"/>
    </TTGlyph>
    <TTGlyph name="Alphaiotasubasper" xMin="25" yMin="-412" xMax="1105" yMax="1532">
      <component glyphName="ypogegrammenigreekcomb" x="327" y="-10" flags="0x4"/>
      <component glyphName="commareversedabovecomb" x="36" y="26" flags="0x4"/>
      <component glyphName="A" x="0" y="0" flags="0x4"/>
    </TTGlyph>
    <TTGlyph name="Alphaiotasubasperacute" xMin="-262" yMin="-412" xMax="1105" yMax="1532">
      <component glyphName="ypogegrammenigreekcomb" x="327" y="-10" flags="0x4"/>
      <component glyphName="oxia" x="-180" y="53" flags="0x4"/>
      <component glyphName="commareversedabovecomb" x="-332" y="26" flags="0x4"/>
      <component glyphName="A" x="0" y="0" flags="0x4"/>
    </TTGlyph>
    <TTGlyph name="Alphaiotasubaspergrave" xMin="-229" yMin="-412" xMax="1105" yMax="1532">
      <component glyphName="ypogegrammenigreekcomb" x="327" y="-10" flags="0x4"/>
      <component glyphName="varia" x="-229" y="51" flags="0x4"/>
      <component glyphName="commareversedabovecomb" x="-299" y="26" flags="0x4"/>
      <component glyphName="A" x="0" y="0" flags="0x4"/>
    </TTGlyph>
    <TTGlyph name="Alphaiotasubaspertilde" xMin="-145" yMin="-412" xMax="1105" yMax="1862">
      <component glyphName="ypogegrammenigreekcomb" x="327" y="-10" flags="0x4"/>
      <component glyphName="asciitilde" x="-235" y="547" flags="0x4"/>
      <component glyphName="commareversedabovecomb" x="14" y="31" flags="0x4"/>
      <component glyphName="A" x="0" y="0" flags="0x4"/>
    </TTGlyph>
    <TTGlyph name="Alphaiotasublenis" xMin="25" yMin="-412" xMax="1105" yMax="1532">
      <component glyphName="ypogegrammenigreekcomb" x="327" y="-10" flags="0x4"/>
      <component glyphName="comma" x="63" y="1382" flags="0x4"/>
      <component glyphName="A" x="0" y="0" flags="0x4"/>
    </TTGlyph>
    <TTGlyph name="Alphaiotasublenisacute" xMin="-262" yMin="-412" xMax="1105" yMax="1531">
      <component glyphName="ypogegrammenigreekcomb" x="327" y="-10" flags="0x4"/>
      <component glyphName="psili_oxia" x="-329" y="-160" flags="0x4"/>
      <component glyphName="A" x="0" y="0" flags="0x4"/>
    </TTGlyph>
    <TTGlyph name="Alphaiotasublenisgrave" xMin="-249" yMin="-412" xMax="1105" yMax="1556">
      <component glyphName="ypogegrammenigreekcomb" x="327" y="-10" flags="0x4"/>
      <component glyphName="psili_varia" x="-316" y="-136" flags="0x4"/>
      <component glyphName="A" x="0" y="0" flags="0x4"/>
    </TTGlyph>
    <TTGlyph name="Alphaiotasublenistilde" xMin="-147" yMin="-412" xMax="1105" yMax="1862">
      <component glyphName="ypogegrammenigreekcomb" x="327" y="-10" flags="0x4"/>
      <component glyphName="asciitilde" x="-237" y="547" flags="0x4"/>
      <component glyphName="comma" x="-10" y="1390" flags="0x4"/>
      <component glyphName="A" x="0" y="0" flags="0x4"/>
    </TTGlyph>
    <TTGlyph name="Alphalenis" xMin="25" yMin="0" xMax="1105" yMax="1532">
      <component glyphName="comma" x="63" y="1382" flags="0x4"/>
      <component glyphName="A" x="0" y="0" flags="0x4"/>
    </TTGlyph>
    <TTGlyph name="Alphalenisacute" xMin="-262" yMin="0" xMax="1105" yMax="1531">
      <component glyphName="psili_oxia" x="-329" y="-160" flags="0x4"/>
      <component glyphName="A" x="0" y="0" flags="0x4"/>
    </TTGlyph>
    <TTGlyph name="Alphalenisgrave" xMin="-249" yMin="0" xMax="1105" yMax="1556">
      <component glyphName="psili_varia" x="-316" y="-136" flags="0x4"/>
      <component glyphName="A" x="0" y="0" flags="0x4"/>
    </TTGlyph>
    <TTGlyph name="Alphalenistilde" xMin="-147" yMin="0" xMax="1105" yMax="1862">
      <component glyphName="asciitilde" x="-237" y="547" flags="0x4"/>
      <component glyphName="comma" x="-10" y="1390" flags="0x4"/>
      <component glyphName="A" x="0" y="0" flags="0x4"/>
    </TTGlyph>
    <TTGlyph name="Alphamacron" xMin="25" yMin="0" xMax="1105" yMax="1746">
      <component glyphName="macron" x="212" y="423" flags="0x4"/>
      <component glyphName="A" x="0" y="0" flags="0x4"/>
    </TTGlyph>
    <TTGlyph name="Alphatonos" xMin="25" yMin="0" xMax="1105" yMax="1523">
      <component glyphName="tonos" x="-127" y="43" flags="0x4"/>
      <component glyphName="A" x="0" y="0" flags="0x4"/>
    </TTGlyph>
    <TTGlyph name="Amacron" xMin="25" yMin="0" xMax="1105" yMax="1746">
      <component glyphName="macron" x="212" y="423" flags="0x4"/>
      <component glyphName="A" x="0" y="0" flags="0x4"/>
    </TTGlyph>
    <TTGlyph name="Aogonek" xMin="25" yMin="-314" xMax="1121" yMax="1515">
      <contour>
        <pt x="1085" y="-314" on="1"/>
        <pt x="880" y="-314" on="0"/>
        <pt x="880" y="-199" on="1"/>
        <pt x="880" y="-103" on="0"/>
        <pt x="953" y="-1" on="1"/>
        <pt x="1051" y="-1" on="1"/>
        <pt x="973" y="-97" on="0"/>
        <pt x="973" y="-172" on="1"/>
        <pt x="973" y="-208" on="0"/>
        <pt x="1090" y="-217" on="1"/>
        <pt x="1108" y="-219" on="0"/>
        <pt x="1121" y="-219" on="1"/>
        <pt x="1121" y="-313" on="1"/>
      </contour>
      <contour>
        <pt x="346" y="602" on="1"/>
        <pt x="786" y="602" on="1"/>
        <pt x="565" y="1389" on="1"/>
      </contour>
      <contour>
        <pt x="25" y="0" on="1"/>
        <pt x="457" y="1515" on="1"/>
        <pt x="673" y="1515" on="1"/>
        <pt x="1105" y="0" on="1"/>
        <pt x="951" y="0" on="1"/>
        <pt x="821" y="478" on="1"/>
        <pt x="312" y="478" on="1"/>
        <pt x="179" y="0" on="1"/>
      </contour>
    </TTGlyph>
    <TTGlyph name="Aring" xMin="25" yMin="0" xMax="1105" yMax="2002">
      <contour>
        <pt x="452" y="1858" on="1"/>
        <pt x="406" y="1812" on="0"/>
        <pt x="406" y="1682" on="0"/>
        <pt x="498" y="1589" on="0"/>
        <pt x="629" y="1589" on="0"/>
        <pt x="722" y="1682" on="0"/>
        <pt x="722" y="1812" on="0"/>
        <pt x="629" y="1905" on="0"/>
        <pt x="498" y="1905" on="0"/>
      </contour>
      <contour>
        <pt x="745" y="1566" on="1"/>
        <pt x="712" y="1533" on="0"/>
        <pt x="672" y="1515" on="1"/>
        <pt x="673" y="1515" on="1"/>
        <pt x="1105" y="0" on="1"/>
        <pt x="951" y="0" on="1"/>
        <pt x="821" y="478" on="1"/>
        <pt x="312" y="478" on="1"/>
        <pt x="179" y="0" on="1"/>
        <pt x="25" y="0" on="1"/>
        <pt x="457" y="1515" on="1"/>
        <pt x="418" y="1533" on="0"/>
        <pt x="384" y="1566" on="1"/>
        <pt x="310" y="1641" on="0"/>
        <pt x="310" y="1853" on="0"/>
        <pt x="459" y="2002" on="0"/>
        <pt x="670" y="2002" on="0"/>
        <pt x="820" y="1853" on="0"/>
        <pt x="820" y="1641" on="0"/>
      </contour>
      <contour>
        <pt x="346" y="602" on="1"/>
        <pt x="786" y="602" on="1"/>
        <pt x="565" y="1389" on="1"/>
      </contour>
    </TTGlyph>
    <TTGlyph name="Aringacute" xMin="25" yMin="0" xMax="1105" yMax="2510">
      <component glyphName="acute" x="299" y="1055" flags="0x4"/>
      <component glyphName="Aring" x="0" y="0" flags="0x4"/>
    </TTGlyph>
    <TTGlyph name="Aringbelow" xMin="25" yMin="-632" xMax="1105" yMax="1515">
      <component glyphName="ring" x="564" y="-761" flags="0x4"/>
      <component glyphName="A" x="0" y="0" flags="0x4"/>
    </TTGlyph>
    <TTGlyph name="Astroke" xMin="25" yMin="-94" xMax="1105" yMax="1569">
      <contour>
        <pt x="25" y="0" on="1"/>
        <pt x="457" y="1515" on="1"/>
        <pt x="673" y="1515" on="1"/>
        <pt x="721" y="1346" on="1"/>
        <pt x="798" y="1557" on="1"/>
        <pt x="940" y="1569" on="1"/>
        <pt x="782" y="1134" on="1"/>
        <pt x="1105" y="0" on="1"/>
        <pt x="951" y="0" on="1"/>
        <pt x="821" y="478" on="1"/>
        <pt x="543" y="478" on="1"/>
        <pt x="339" y="-82" on="1"/>
        <pt x="196" y="-94" on="1"/>
        <pt x="405" y="478" on="1"/>
        <pt x="312" y="478" on="1"/>
        <pt x="179" y="0" on="1"/>
      </contour>
      <contour>
        <pt x="700" y="909" on="1"/>
        <pt x="588" y="602" on="1"/>
        <pt x="786" y="602" on="1"/>
      </contour>
      <contour>
        <pt x="640" y="1122" on="1"/>
        <pt x="565" y="1389" on="1"/>
        <pt x="346" y="602" on="1"/>
        <pt x="450" y="602" on="1"/>
      </contour>
    </TTGlyph>
    <TTGlyph name="Atilde" xMin="25" yMin="0" xMax="1105" yMax="1854">
      <component glyphName="asciitilde" x="170" y="539" flags="0x4"/>
      <component glyphName="A" x="0" y="0" flags="0x4"/>
    </TTGlyph>
    <TTGlyph name="B" xMin="135" yMin="0" xMax="1064" yMax="1515">
      <contour>
        <pt x="135" y="0" on="1"/>
        <pt x="135" y="1515" on="1"/>
        <pt x="608" y="1515" on="1"/>
        <pt x="791" y="1515" on="0"/>
        <pt x="1029" y="1306" on="0"/>
        <pt x="1029" y="1152" on="1"/>
        <pt x="1029" y="897" on="0"/>
        <pt x="851" y="826" on="1"/>
        <pt x="820" y="813" on="0"/>
        <pt x="774" y="800" on="1"/>
        <pt x="938" y="758" on="0"/>
        <pt x="1020" y="603" on="1"/>
        <pt x="1064" y="518" on="0"/>
        <pt x="1064" y="410" on="1"/>
        <pt x="1064" y="223" on="0"/>
        <pt x="830" y="0" on="0"/>
        <pt x="608" y="0" on="1"/>
      </contour>
      <contour>
        <pt x="283" y="124" on="1"/>
        <pt x="608" y="124" on="1"/>
        <pt x="771" y="124" on="0"/>
        <pt x="846" y="192" on="1"/>
        <pt x="878" y="221" on="0"/>
        <pt x="924" y="333" on="0"/>
        <pt x="924" y="410" on="1"/>
        <pt x="924" y="552" on="0"/>
        <pt x="750" y="726" on="0"/>
        <pt x="608" y="726" on="1"/>
        <pt x="283" y="726" on="1"/>
      </contour>
      <contour>
        <pt x="283" y="853" on="1"/>
        <pt x="608" y="853" on="1"/>
        <pt x="748" y="853" on="0"/>
        <pt x="820" y="924" on="1"/>
        <pt x="850" y="953" on="0"/>
        <pt x="895" y="1071" on="0"/>
        <pt x="895" y="1152" on="1"/>
        <pt x="895" y="1269" on="0"/>
        <pt x="748" y="1391" on="0"/>
        <pt x="608" y="1391" on="1"/>
        <pt x="283" y="1391" on="1"/>
      </contour>
    </TTGlyph>
    <TTGlyph name="Bbar" xMin="13" yMin="0" xMax="1064" yMax="1515">
      <contour>
        <pt x="13" y="395" on="1"/>
        <pt x="13" y="519" on="1"/>
        <pt x="135" y="519" on="1"/>
        <pt x="135" y="1515" on="1"/>
        <pt x="608" y="1515" on="1"/>
        <pt x="791" y="1515" on="0"/>
        <pt x="1029" y="1306" on="0"/>
        <pt x="1029" y="1152" on="1"/>
        <pt x="1029" y="897" on="0"/>
        <pt x="851" y="826" on="1"/>
        <pt x="820" y="813" on="0"/>
        <pt x="774" y="800" on="1"/>
        <pt x="938" y="758" on="0"/>
        <pt x="1020" y="603" on="1"/>
        <pt x="1064" y="518" on="0"/>
        <pt x="1064" y="410" on="1"/>
        <pt x="1064" y="223" on="0"/>
        <pt x="830" y="0" on="0"/>
        <pt x="608" y="0" on="1"/>
        <pt x="135" y="0" on="1"/>
        <pt x="135" y="395" on="1"/>
      </contour>
      <contour>
        <pt x="283" y="853" on="1"/>
        <pt x="608" y="853" on="1"/>
        <pt x="748" y="853" on="0"/>
        <pt x="820" y="924" on="1"/>
        <pt x="850" y="953" on="0"/>
        <pt x="895" y="1071" on="0"/>
        <pt x="895" y="1152" on="1"/>
        <pt x="895" y="1269" on="0"/>
        <pt x="748" y="1391" on="0"/>
        <pt x="608" y="1391" on="1"/>
        <pt x="283" y="1391" on="1"/>
      </contour>
      <contour>
        <pt x="283" y="124" on="1"/>
        <pt x="608" y="124" on="1"/>
        <pt x="771" y="124" on="0"/>
        <pt x="846" y="192" on="1"/>
        <pt x="878" y="221" on="0"/>
        <pt x="924" y="333" on="0"/>
        <pt x="924" y="410" on="1"/>
        <pt x="924" y="552" on="0"/>
        <pt x="750" y="726" on="0"/>
        <pt x="608" y="726" on="1"/>
        <pt x="283" y="726" on="1"/>
        <pt x="283" y="519" on="1"/>
        <pt x="537" y="519" on="1"/>
        <pt x="537" y="395" on="1"/>
        <pt x="283" y="395" on="1"/>
      </contour>
    </TTGlyph>
    <TTGlyph name="Bdotaccent" xMin="135" yMin="0" xMax="1064" yMax="1804">
      <component glyphName="dotaccent" x="518" y="1532" flags="0x4"/>
      <component glyphName="B" x="0" y="0" flags="0x4"/>
    </TTGlyph>
    <TTGlyph name="Bdotbelow" xMin="135" yMin="-272" xMax="1064" yMax="1515">
      <component glyphName="dotaccent" x="494" y="-394" flags="0x4"/>
      <component glyphName="B" x="0" y="0" flags="0x4"/>
    </TTGlyph>
    <TTGlyph name="Be" xMin="135" yMin="0" xMax="1064" yMax="1514">
      <contour>
        <pt x="283" y="124" on="1"/>
        <pt x="608" y="124" on="1"/>
        <pt x="771" y="124" on="0"/>
        <pt x="846" y="192" on="1"/>
        <pt x="878" y="221" on="0"/>
        <pt x="924" y="333" on="0"/>
        <pt x="924" y="410" on="1"/>
        <pt x="924" y="552" on="0"/>
        <pt x="750" y="726" on="0"/>
        <pt x="608" y="726" on="1"/>
        <pt x="283" y="726" on="1"/>
      </contour>
      <contour>
        <pt x="608" y="852" on="1"/>
        <pt x="944" y="852" on="0"/>
        <pt x="1038" y="575" on="1"/>
        <pt x="1064" y="498" on="0"/>
        <pt x="1064" y="410" on="1"/>
        <pt x="1064" y="223" on="0"/>
        <pt x="830" y="0" on="0"/>
        <pt x="608" y="0" on="1"/>
        <pt x="135" y="0" on="1"/>
        <pt x="135" y="1514" on="1"/>
        <pt x="1023" y="1514" on="1"/>
        <pt x="1023" y="1390" on="1"/>
        <pt x="283" y="1390" on="1"/>
        <pt x="283" y="852" on="1"/>
      </contour>
    </TTGlyph>
    <TTGlyph name="Beta" xMin="135" yMin="0" xMax="1064" yMax="1515">
      <component glyphName="B" x="0" y="0" flags="0x204"/>
    </TTGlyph>
    <TTGlyph name="Bhook" xMin="-58" yMin="0" xMax="1064" yMax="1515">
      <contour>
        <pt x="-58" y="1350" on="1"/>
        <pt x="-58" y="1442" on="0"/>
        <pt x="39" y="1515" on="0"/>
        <pt x="135" y="1515" on="1"/>
        <pt x="608" y="1515" on="1"/>
        <pt x="791" y="1515" on="0"/>
        <pt x="1029" y="1306" on="0"/>
        <pt x="1029" y="1152" on="1"/>
        <pt x="1029" y="897" on="0"/>
        <pt x="851" y="826" on="1"/>
        <pt x="820" y="813" on="0"/>
        <pt x="774" y="800" on="1"/>
        <pt x="938" y="758" on="0"/>
        <pt x="1020" y="603" on="1"/>
        <pt x="1064" y="518" on="0"/>
        <pt x="1064" y="410" on="1"/>
        <pt x="1064" y="223" on="0"/>
        <pt x="830" y="0" on="0"/>
        <pt x="608" y="0" on="1"/>
        <pt x="135" y="0" on="1"/>
        <pt x="135" y="1419" on="1"/>
        <pt x="77" y="1419" on="0"/>
        <pt x="44" y="1392" on="0"/>
        <pt x="44" y="1301" on="0"/>
        <pt x="50" y="1277" on="1"/>
        <pt x="-52" y="1290" on="1"/>
        <pt x="-58" y="1323" on="0"/>
      </contour>
      <contour>
        <pt x="283" y="124" on="1"/>
        <pt x="608" y="124" on="1"/>
        <pt x="771" y="124" on="0"/>
        <pt x="846" y="192" on="1"/>
        <pt x="878" y="221" on="0"/>
        <pt x="924" y="333" on="0"/>
        <pt x="924" y="410" on="1"/>
        <pt x="924" y="552" on="0"/>
        <pt x="750" y="726" on="0"/>
        <pt x="608" y="726" on="1"/>
        <pt x="283" y="726" on="1"/>
      </contour>
      <contour>
        <pt x="283" y="853" on="1"/>
        <pt x="608" y="853" on="1"/>
        <pt x="748" y="853" on="0"/>
        <pt x="820" y="924" on="1"/>
        <pt x="850" y="953" on="0"/>
        <pt x="895" y="1071" on="0"/>
        <pt x="895" y="1152" on="1"/>
        <pt x="895" y="1269" on="0"/>
        <pt x="748" y="1391" on="0"/>
        <pt x="608" y="1391" on="1"/>
        <pt x="283" y="1391" on="1"/>
      </contour>
    </TTGlyph>
    <TTGlyph name="Blinebelow" xMin="135" yMin="-214" xMax="1064" yMax="1515">
      <component glyphName="macron" x="147" y="-1445" flags="0x4"/>
      <component glyphName="B" x="0" y="0" flags="0x4"/>
    </TTGlyph>
    <TTGlyph name="Bsmall" xMin="120" yMin="-6" xMax="926" yMax="1055">
      <component glyphName="ve" x="0" y="0" flags="0x204"/>
    </TTGlyph>
    <TTGlyph name="Btopbar" xMin="135" yMin="0" xMax="1064" yMax="1515">
      <contour>
        <pt x="135" y="0" on="1"/>
        <pt x="135" y="1515" on="1"/>
        <pt x="1041" y="1515" on="1"/>
        <pt x="1041" y="1391" on="1"/>
        <pt x="283" y="1391" on="1"/>
        <pt x="283" y="853" on="1"/>
        <pt x="608" y="853" on="1"/>
        <pt x="798" y="853" on="0"/>
        <pt x="927" y="750" on="1"/>
        <pt x="1064" y="639" on="0"/>
        <pt x="1064" y="410" on="1"/>
        <pt x="1064" y="223" on="0"/>
        <pt x="830" y="0" on="0"/>
        <pt x="608" y="0" on="1"/>
      </contour>
      <contour>
        <pt x="283" y="124" on="1"/>
        <pt x="608" y="124" on="1"/>
        <pt x="771" y="124" on="0"/>
        <pt x="846" y="192" on="1"/>
        <pt x="878" y="221" on="0"/>
        <pt x="924" y="333" on="0"/>
        <pt x="924" y="410" on="1"/>
        <pt x="924" y="552" on="0"/>
        <pt x="750" y="726" on="0"/>
        <pt x="608" y="726" on="1"/>
        <pt x="283" y="726" on="1"/>
      </contour>
    </TTGlyph>
    <TTGlyph name="C" xMin="80" yMin="-16" xMax="1106" yMax="1532">
      <contour>
        <pt x="1021" y="1262" on="1"/>
        <pt x="1067" y="1163" on="0"/>
        <pt x="1078" y="1112" on="1"/>
        <pt x="1084" y="1088" on="1"/>
        <pt x="1084" y="1087" on="1"/>
        <pt x="932" y="1046" on="1"/>
        <pt x="916" y="1160" on="0"/>
        <pt x="867" y="1265" on="0"/>
        <pt x="818" y="1332" on="0"/>
        <pt x="788" y="1355" on="1"/>
        <pt x="717" y="1408" on="0"/>
        <pt x="618" y="1408" on="1"/>
        <pt x="228" y="1408" on="0"/>
        <pt x="228" y="759" on="1"/>
        <pt x="228" y="481" on="0"/>
        <pt x="310" y="305" on="1"/>
        <pt x="403" y="108" on="0"/>
        <pt x="618" y="108" on="1"/>
        <pt x="794" y="108" on="0"/>
        <pt x="892" y="246" on="1"/>
        <pt x="960" y="343" on="0"/>
        <pt x="960" y="463" on="1"/>
        <pt x="1106" y="440" on="1"/>
        <pt x="1102" y="429" on="0"/>
        <pt x="1073" y="343" on="0"/>
        <pt x="1053" y="289" on="0"/>
        <pt x="1008" y="196" on="0"/>
        <pt x="963" y="134" on="0"/>
        <pt x="888" y="59" on="0"/>
        <pt x="846" y="37" on="1"/>
        <pt x="745" y="-16" on="0"/>
        <pt x="533" y="-16" on="0"/>
        <pt x="388" y="32" on="0"/>
        <pt x="280" y="115" on="0"/>
        <pt x="193" y="232" on="0"/>
        <pt x="135" y="367" on="0"/>
        <pt x="97" y="522" on="0"/>
        <pt x="80" y="678" on="0"/>
        <pt x="80" y="873" on="0"/>
        <pt x="115" y="1088" on="0"/>
        <pt x="197" y="1291" on="0"/>
        <pt x="319" y="1441" on="0"/>
        <pt x="504" y="1532" on="0"/>
        <pt x="696" y="1532" on="0"/>
        <pt x="831" y="1483" on="0"/>
        <pt x="923" y="1405" on="0"/>
        <pt x="999" y="1310" on="0"/>
      </contour>
    </TTGlyph>
    <TTGlyph name="Cacute" xMin="80" yMin="-16" xMax="1106" yMax="1967">
      <component glyphName="acute" x="482" y="512" flags="0x4"/>
      <component glyphName="C" x="0" y="0" flags="0x4"/>
    </TTGlyph>
    <TTGlyph name="Ccaron" xMin="80" yMin="-16" xMax="1106" yMax="1941">
      <component glyphName="caron" x="306" y="522" flags="0x4"/>
      <component glyphName="C" x="0" y="0" flags="0x4"/>
    </TTGlyph>
    <TTGlyph name="Ccedilla" xMin="80" yMin="-319" xMax="1106" yMax="1532">
      <contour>
        <pt x="535" y="-319" on="1"/>
        <pt x="499" y="-318" on="1"/>
        <pt x="499" y="-224" on="1"/>
        <pt x="588" y="-224" on="0"/>
        <pt x="647" y="-192" on="0"/>
        <pt x="647" y="-177" on="1"/>
        <pt x="647" y="-105" on="0"/>
        <pt x="575" y="-14" on="1"/>
        <pt x="510" y="-8" on="0"/>
        <pt x="460" y="8" on="1"/>
        <pt x="388" y="32" on="0"/>
        <pt x="280" y="115" on="0"/>
        <pt x="193" y="232" on="0"/>
        <pt x="135" y="367" on="0"/>
        <pt x="97" y="522" on="0"/>
        <pt x="80" y="678" on="0"/>
        <pt x="80" y="873" on="0"/>
        <pt x="115" y="1088" on="0"/>
        <pt x="197" y="1291" on="0"/>
        <pt x="319" y="1441" on="0"/>
        <pt x="504" y="1532" on="0"/>
        <pt x="696" y="1532" on="0"/>
        <pt x="831" y="1483" on="0"/>
        <pt x="923" y="1405" on="0"/>
        <pt x="999" y="1310" on="0"/>
        <pt x="1021" y="1262" on="1"/>
        <pt x="1067" y="1163" on="0"/>
        <pt x="1078" y="1112" on="1"/>
        <pt x="1084" y="1088" on="1"/>
        <pt x="1084" y="1087" on="1"/>
        <pt x="932" y="1046" on="1"/>
        <pt x="916" y="1160" on="0"/>
        <pt x="867" y="1265" on="0"/>
        <pt x="818" y="1332" on="0"/>
        <pt x="788" y="1355" on="1"/>
        <pt x="717" y="1408" on="0"/>
        <pt x="618" y="1408" on="1"/>
        <pt x="228" y="1408" on="0"/>
        <pt x="228" y="759" on="1"/>
        <pt x="228" y="481" on="0"/>
        <pt x="310" y="305" on="1"/>
        <pt x="403" y="108" on="0"/>
        <pt x="618" y="108" on="1"/>
        <pt x="794" y="108" on="0"/>
        <pt x="892" y="246" on="1"/>
        <pt x="960" y="343" on="0"/>
        <pt x="960" y="463" on="1"/>
        <pt x="1106" y="440" on="1"/>
        <pt x="1102" y="429" on="0"/>
        <pt x="1073" y="343" on="0"/>
        <pt x="1053" y="289" on="0"/>
        <pt x="1008" y="196" on="0"/>
        <pt x="963" y="134" on="0"/>
        <pt x="888" y="59" on="0"/>
        <pt x="846" y="37" on="1"/>
        <pt x="761" y="-7" on="0"/>
        <pt x="673" y="-15" on="1"/>
        <pt x="740" y="-112" on="0"/>
        <pt x="740" y="-204" on="1"/>
        <pt x="740" y="-319" on="0"/>
      </contour>
    </TTGlyph>
    <TTGlyph name="Ccedillaacute" xMin="80" yMin="-319" xMax="1106" yMax="2014">
      <component glyphName="acute" x="430" y="559" flags="0x4"/>
      <component glyphName="Ccedilla" x="0" y="0" flags="0x4"/>
    </TTGlyph>
    <TTGlyph name="Ccircumflex" xMin="80" yMin="-16" xMax="1106" yMax="1941">
      <component glyphName="asciicircum" x="306" y="522" flags="0x4"/>
      <component glyphName="C" x="0" y="0" flags="0x4"/>
    </TTGlyph>
    <TTGlyph name="Cdotaccent" xMin="80" yMin="-16" xMax="1106" yMax="1804">
      <component glyphName="dotaccent" x="618" y="1532" flags="0x4"/>
      <component glyphName="C" x="0" y="0" flags="0x4"/>
    </TTGlyph>
    <TTGlyph name="Che" xMin="128" yMin="0" xMax="1002" yMax="1515">
      <contour>
        <pt x="854" y="0" on="1"/>
        <pt x="854" y="627" on="1"/>
        <pt x="777" y="552" on="0"/>
        <pt x="555" y="443" on="0"/>
        <pt x="396" y="443" on="0"/>
        <pt x="285" y="480" on="0"/>
        <pt x="188" y="549" on="0"/>
        <pt x="128" y="664" on="0"/>
        <pt x="128" y="735" on="1"/>
        <pt x="128" y="1515" on="1"/>
        <pt x="276" y="1515" on="1"/>
        <pt x="276" y="735" on="1"/>
        <pt x="276" y="685" on="0"/>
        <pt x="319" y="644" on="1"/>
        <pt x="401" y="567" on="0"/>
        <pt x="590" y="567" on="0"/>
        <pt x="792" y="672" on="0"/>
        <pt x="854" y="740" on="1"/>
        <pt x="854" y="1515" on="1"/>
        <pt x="1002" y="1515" on="1"/>
        <pt x="1002" y="0" on="1"/>
      </contour>
    </TTGlyph>
    <TTGlyph name="Cheabkhasian" xMin="-209" yMin="-8" xMax="1199" yMax="1528">
      <contour>
        <pt x="251" y="863" on="1"/>
        <pt x="1056" y="863" on="1"/>
        <pt x="1056" y="991" on="0"/>
        <pt x="979" y="1200" on="0"/>
        <pt x="896" y="1322" on="0"/>
        <pt x="758" y="1404" on="0"/>
        <pt x="593" y="1404" on="0"/>
        <pt x="460" y="1348" on="0"/>
        <pt x="371" y="1255" on="0"/>
        <pt x="304" y="1142" on="0"/>
        <pt x="286" y="1080" on="1"/>
        <pt x="251" y="958" on="0"/>
      </contour>
      <contour>
        <pt x="103" y="739" on="1"/>
        <pt x="-209" y="739" on="0"/>
        <pt x="-209" y="936" on="1"/>
        <pt x="-209" y="988" on="0"/>
        <pt x="-187" y="1071" on="1"/>
        <pt x="-75" y="1055" on="1"/>
        <pt x="-96" y="1008" on="0"/>
        <pt x="-96" y="939" on="0"/>
        <pt x="-87" y="912" on="0"/>
        <pt x="-64" y="893" on="0"/>
        <pt x="-45" y="879" on="0"/>
        <pt x="-6" y="871" on="0"/>
        <pt x="16" y="866" on="0"/>
        <pt x="65" y="864" on="0"/>
        <pt x="82" y="863" on="0"/>
        <pt x="108" y="863" on="1"/>
        <pt x="121" y="1020" on="0"/>
        <pt x="208" y="1263" on="0"/>
        <pt x="322" y="1405" on="0"/>
        <pt x="396" y="1450" on="1"/>
        <pt x="523" y="1528" on="0"/>
        <pt x="673" y="1528" on="1"/>
        <pt x="917" y="1528" on="0"/>
        <pt x="1054" y="1334" on="1"/>
        <pt x="1195" y="1135" on="0"/>
        <pt x="1195" y="739" on="1"/>
        <pt x="242" y="739" on="1"/>
        <pt x="242" y="346" on="0"/>
        <pt x="440" y="197" on="1"/>
        <pt x="548" y="116" on="0"/>
        <pt x="696" y="116" on="1"/>
        <pt x="920" y="116" on="0"/>
        <pt x="1080" y="405" on="1"/>
        <pt x="1084" y="411" on="0"/>
        <pt x="1085" y="413" on="1"/>
        <pt x="1199" y="334" on="1"/>
        <pt x="1156" y="253" on="0"/>
        <pt x="1026" y="120" on="0"/>
        <pt x="972" y="82" on="1"/>
        <pt x="844" y="-8" on="0"/>
        <pt x="575" y="-8" on="0"/>
        <pt x="376" y="74" on="0"/>
        <pt x="239" y="215" on="0"/>
        <pt x="192" y="310" on="1"/>
        <pt x="101" y="496" on="0"/>
      </contour>
    </TTGlyph>
    <TTGlyph name="Chedescender" xMin="135" yMin="-258" xMax="1162" yMax="1515">
      <contour>
        <pt x="861" y="627" on="1"/>
        <pt x="784" y="552" on="0"/>
        <pt x="562" y="443" on="0"/>
        <pt x="403" y="443" on="0"/>
        <pt x="292" y="480" on="0"/>
        <pt x="195" y="549" on="0"/>
        <pt x="135" y="664" on="0"/>
        <pt x="135" y="735" on="1"/>
        <pt x="135" y="1515" on="1"/>
        <pt x="283" y="1515" on="1"/>
        <pt x="283" y="735" on="1"/>
        <pt x="283" y="685" on="0"/>
        <pt x="326" y="644" on="1"/>
        <pt x="408" y="567" on="0"/>
        <pt x="597" y="567" on="0"/>
        <pt x="799" y="672" on="0"/>
        <pt x="861" y="740" on="1"/>
        <pt x="861" y="1515" on="1"/>
        <pt x="1009" y="1515" on="1"/>
        <pt x="1009" y="133" on="1"/>
        <pt x="1162" y="133" on="1"/>
        <pt x="1162" y="0" on="1"/>
        <pt x="1135" y="-96" on="0"/>
        <pt x="1135" y="-258" on="1"/>
        <pt x="1014" y="-258" on="1"/>
        <pt x="994" y="-36" on="0"/>
        <pt x="1010" y="0" on="1"/>
        <pt x="861" y="0" on="1"/>
      </contour>
    </TTGlyph>
    <TTGlyph name="Chedescenderabkhasian" xMin="-209" yMin="-258" xMax="1199" yMax="1528">
      <contour>
        <pt x="103" y="739" on="1"/>
        <pt x="-209" y="739" on="0"/>
        <pt x="-209" y="936" on="1"/>
        <pt x="-209" y="988" on="0"/>
        <pt x="-187" y="1071" on="1"/>
        <pt x="-75" y="1055" on="1"/>
        <pt x="-96" y="1008" on="0"/>
        <pt x="-96" y="939" on="0"/>
        <pt x="-87" y="912" on="0"/>
        <pt x="-64" y="893" on="0"/>
        <pt x="-45" y="879" on="0"/>
        <pt x="-6" y="871" on="0"/>
        <pt x="16" y="866" on="0"/>
        <pt x="65" y="864" on="0"/>
        <pt x="82" y="863" on="0"/>
        <pt x="108" y="863" on="1"/>
        <pt x="121" y="1020" on="0"/>
        <pt x="208" y="1263" on="0"/>
        <pt x="322" y="1405" on="0"/>
        <pt x="396" y="1450" on="1"/>
        <pt x="523" y="1528" on="0"/>
        <pt x="673" y="1528" on="1"/>
        <pt x="917" y="1528" on="0"/>
        <pt x="1054" y="1334" on="1"/>
        <pt x="1195" y="1135" on="0"/>
        <pt x="1195" y="739" on="1"/>
        <pt x="242" y="739" on="1"/>
        <pt x="242" y="346" on="0"/>
        <pt x="440" y="197" on="1"/>
        <pt x="548" y="116" on="0"/>
        <pt x="696" y="116" on="1"/>
        <pt x="920" y="116" on="0"/>
        <pt x="1080" y="405" on="1"/>
        <pt x="1084" y="411" on="0"/>
        <pt x="1085" y="413" on="1"/>
        <pt x="1199" y="334" on="1"/>
        <pt x="1153" y="248" on="0"/>
        <pt x="1076" y="171" on="1"/>
        <pt x="932" y="27" on="0"/>
        <pt x="776" y="-1" on="1"/>
        <pt x="749" y="-91" on="0"/>
        <pt x="749" y="-258" on="1"/>
        <pt x="625" y="-258" on="1"/>
        <pt x="625" y="-91" on="0"/>
        <pt x="598" y="-1" on="1"/>
        <pt x="473" y="18" on="0"/>
        <pt x="278" y="156" on="0"/>
        <pt x="220" y="258" on="1"/>
        <pt x="101" y="465" on="0"/>
      </contour>
      <contour>
        <pt x="251" y="863" on="1"/>
        <pt x="1056" y="863" on="1"/>
        <pt x="1056" y="991" on="0"/>
        <pt x="979" y="1200" on="0"/>
        <pt x="896" y="1322" on="0"/>
        <pt x="758" y="1404" on="0"/>
        <pt x="593" y="1404" on="0"/>
        <pt x="460" y="1348" on="0"/>
        <pt x="371" y="1255" on="0"/>
        <pt x="304" y="1142" on="0"/>
        <pt x="286" y="1080" on="1"/>
        <pt x="251" y="958" on="0"/>
      </contour>
    </TTGlyph>
    <TTGlyph name="Chedieresis" xMin="128" yMin="0" xMax="1002" yMax="1804">
      <component glyphName="dieresis" x="238" y="451" flags="0x4"/>
      <component glyphName="Che" x="0" y="0" flags="0x4"/>
    </TTGlyph>
    <TTGlyph name="Chekhakassian" xMin="135" yMin="-258" xMax="1009" yMax="1515">
      <contour>
        <pt x="709" y="124" on="1"/>
        <pt x="861" y="124" on="1"/>
        <pt x="861" y="627" on="1"/>
        <pt x="784" y="552" on="0"/>
        <pt x="562" y="443" on="0"/>
        <pt x="403" y="443" on="0"/>
        <pt x="292" y="480" on="0"/>
        <pt x="195" y="549" on="0"/>
        <pt x="135" y="664" on="0"/>
        <pt x="135" y="735" on="1"/>
        <pt x="135" y="1515" on="1"/>
        <pt x="283" y="1515" on="1"/>
        <pt x="283" y="735" on="1"/>
        <pt x="283" y="685" on="0"/>
        <pt x="326" y="644" on="1"/>
        <pt x="408" y="567" on="0"/>
        <pt x="597" y="567" on="0"/>
        <pt x="799" y="672" on="0"/>
        <pt x="861" y="740" on="1"/>
        <pt x="861" y="1515" on="1"/>
        <pt x="1009" y="1515" on="1"/>
        <pt x="1009" y="0" on="1"/>
        <pt x="861" y="0" on="1"/>
        <pt x="877" y="-36" on="0"/>
        <pt x="857" y="-258" on="1"/>
        <pt x="736" y="-258" on="1"/>
        <pt x="736" y="-118" on="0"/>
        <pt x="716" y="-28" on="1"/>
        <pt x="709" y="0" on="1"/>
      </contour>
    </TTGlyph>
    <TTGlyph name="Chevertbar" xMin="135" yMin="0" xMax="1009" yMax="1515">
      <contour>
        <pt x="631" y="590" on="1"/>
        <pt x="769" y="641" on="0"/>
        <pt x="861" y="740" on="1"/>
        <pt x="861" y="1515" on="1"/>
        <pt x="1009" y="1515" on="1"/>
        <pt x="1009" y="0" on="1"/>
        <pt x="861" y="0" on="1"/>
        <pt x="861" y="627" on="1"/>
        <pt x="762" y="531" on="0"/>
        <pt x="631" y="479" on="1"/>
        <pt x="631" y="178" on="1"/>
        <pt x="507" y="178" on="1"/>
        <pt x="507" y="446" on="1"/>
        <pt x="483" y="443" on="0"/>
        <pt x="403" y="443" on="0"/>
        <pt x="292" y="480" on="0"/>
        <pt x="195" y="549" on="0"/>
        <pt x="135" y="664" on="0"/>
        <pt x="135" y="735" on="1"/>
        <pt x="135" y="1515" on="1"/>
        <pt x="283" y="1515" on="1"/>
        <pt x="283" y="735" on="1"/>
        <pt x="283" y="686" on="0"/>
        <pt x="324" y="646" on="1"/>
        <pt x="400" y="572" on="0"/>
        <pt x="507" y="567" on="1"/>
        <pt x="507" y="908" on="1"/>
        <pt x="631" y="908" on="1"/>
      </contour>
    </TTGlyph>
    <TTGlyph name="Chi" xMin="25" yMin="0" xMax="1058" yMax="1515">
      <component glyphName="X" x="0" y="0" flags="0x204"/>
    </TTGlyph>
    <TTGlyph name="Chook" xMin="80" yMin="-16" xMax="1226" yMax="1532">
      <contour>
        <pt x="961" y="1358" on="1"/>
        <pt x="980" y="1522" on="0"/>
        <pt x="1107" y="1522" on="1"/>
        <pt x="1173" y="1522" on="0"/>
        <pt x="1226" y="1491" on="1"/>
        <pt x="1212" y="1390" on="1"/>
        <pt x="1200" y="1398" on="0"/>
        <pt x="1132" y="1419" on="0"/>
        <pt x="1073" y="1419" on="0"/>
        <pt x="1054" y="1397" on="1"/>
        <pt x="1022" y="1361" on="0"/>
        <pt x="1022" y="1298" on="1"/>
        <pt x="1022" y="1260" on="0"/>
        <pt x="1068" y="1131" on="1"/>
        <pt x="1084" y="1088" on="1"/>
        <pt x="1084" y="1087" on="1"/>
        <pt x="932" y="1046" on="1"/>
        <pt x="916" y="1160" on="0"/>
        <pt x="867" y="1265" on="0"/>
        <pt x="818" y="1332" on="0"/>
        <pt x="788" y="1355" on="1"/>
        <pt x="717" y="1408" on="0"/>
        <pt x="618" y="1408" on="1"/>
        <pt x="228" y="1408" on="0"/>
        <pt x="228" y="759" on="1"/>
        <pt x="228" y="481" on="0"/>
        <pt x="310" y="305" on="1"/>
        <pt x="403" y="108" on="0"/>
        <pt x="618" y="108" on="1"/>
        <pt x="696" y="108" on="0"/>
        <pt x="820" y="163" on="0"/>
        <pt x="892" y="242" on="0"/>
        <pt x="916" y="294" on="1"/>
        <pt x="958" y="380" on="0"/>
        <pt x="960" y="463" on="1"/>
        <pt x="1106" y="440" on="1"/>
        <pt x="1102" y="429" on="0"/>
        <pt x="1073" y="343" on="0"/>
        <pt x="1053" y="289" on="0"/>
        <pt x="1008" y="196" on="0"/>
        <pt x="963" y="134" on="0"/>
        <pt x="888" y="59" on="0"/>
        <pt x="846" y="37" on="1"/>
        <pt x="745" y="-16" on="0"/>
        <pt x="533" y="-16" on="0"/>
        <pt x="388" y="32" on="0"/>
        <pt x="280" y="115" on="0"/>
        <pt x="193" y="232" on="0"/>
        <pt x="135" y="367" on="0"/>
        <pt x="116" y="444" on="1"/>
        <pt x="80" y="591" on="0"/>
        <pt x="80" y="873" on="0"/>
        <pt x="115" y="1088" on="0"/>
        <pt x="197" y="1291" on="0"/>
        <pt x="319" y="1441" on="0"/>
        <pt x="504" y="1532" on="0"/>
        <pt x="618" y="1532" on="1"/>
        <pt x="828" y="1532" on="0"/>
      </contour>
    </TTGlyph>
    <TTGlyph name="Cstroke" xMin="52" yMin="-38" xMax="1106" yMax="1554">
      <contour>
        <pt x="80" y="759" on="1"/>
        <pt x="80" y="1147" on="0"/>
        <pt x="258" y="1366" on="1"/>
        <pt x="319" y="1441" on="0"/>
        <pt x="504" y="1532" on="0"/>
        <pt x="703" y="1532" on="0"/>
        <pt x="773" y="1504" on="1"/>
        <pt x="796" y="1554" on="1"/>
        <pt x="938" y="1554" on="1"/>
        <pt x="884" y="1438" on="1"/>
        <pt x="995" y="1347" on="0"/>
        <pt x="1058" y="1174" on="1"/>
        <pt x="1073" y="1135" on="0"/>
        <pt x="1078" y="1112" on="1"/>
        <pt x="1084" y="1088" on="1"/>
        <pt x="1084" y="1087" on="1"/>
        <pt x="932" y="1046" on="1"/>
        <pt x="907" y="1228" on="0"/>
        <pt x="828" y="1318" on="1"/>
        <pt x="335" y="262" on="1"/>
        <pt x="434" y="108" on="0"/>
        <pt x="618" y="108" on="1"/>
        <pt x="696" y="108" on="0"/>
        <pt x="820" y="163" on="0"/>
        <pt x="892" y="242" on="0"/>
        <pt x="916" y="294" on="1"/>
        <pt x="958" y="380" on="0"/>
        <pt x="960" y="463" on="1"/>
        <pt x="1106" y="440" on="1"/>
        <pt x="1102" y="429" on="0"/>
        <pt x="1073" y="343" on="0"/>
        <pt x="1053" y="289" on="0"/>
        <pt x="1008" y="196" on="0"/>
        <pt x="963" y="134" on="0"/>
        <pt x="888" y="59" on="0"/>
        <pt x="846" y="37" on="1"/>
        <pt x="745" y="-16" on="0"/>
        <pt x="618" y="-16" on="1"/>
        <pt x="407" y="-16" on="0"/>
        <pt x="273" y="129" on="1"/>
        <pt x="195" y="-38" on="1"/>
        <pt x="52" y="-38" on="1"/>
        <pt x="187" y="251" on="1"/>
        <pt x="80" y="457" on="0"/>
      </contour>
      <contour>
        <pt x="267" y="422" on="1"/>
        <pt x="720" y="1391" on="1"/>
        <pt x="674" y="1408" on="0"/>
        <pt x="618" y="1408" on="1"/>
        <pt x="228" y="1408" on="0"/>
        <pt x="228" y="759" on="1"/>
        <pt x="228" y="560" on="0"/>
      </contour>
    </TTGlyph>
    <TTGlyph name="D" xMin="135" yMin="0" xMax="1146" yMax="1515">
      <contour>
        <pt x="135" y="0" on="1"/>
        <pt x="135" y="1515" on="1"/>
        <pt x="496" y="1515" on="1"/>
        <pt x="998" y="1515" on="0"/>
        <pt x="1110" y="1069" on="1"/>
        <pt x="1146" y="925" on="0"/>
        <pt x="1146" y="625" on="0"/>
        <pt x="1104" y="413" on="0"/>
        <pt x="1007" y="220" on="0"/>
        <pt x="934" y="151" on="1"/>
        <pt x="773" y="0" on="0"/>
        <pt x="496" y="0" on="1"/>
      </contour>
      <contour>
        <pt x="283" y="124" on="1"/>
        <pt x="496" y="124" on="1"/>
        <pt x="823" y="124" on="0"/>
        <pt x="940" y="403" on="1"/>
        <pt x="998" y="543" on="0"/>
        <pt x="998" y="745" on="1"/>
        <pt x="998" y="1104" on="0"/>
        <pt x="860" y="1257" on="1"/>
        <pt x="806" y="1316" on="0"/>
        <pt x="621" y="1391" on="0"/>
        <pt x="496" y="1391" on="1"/>
        <pt x="283" y="1391" on="1"/>
      </contour>
    </TTGlyph>
    <TTGlyph name="DZ" xMin="135" yMin="0" xMax="2288" yMax="1515">
      <component glyphName="Z" x="1214" y="0" flags="0x4"/>
      <component glyphName="D" x="0" y="0" flags="0x4"/>
    </TTGlyph>
    <TTGlyph name="DZcaron" xMin="135" yMin="0" xMax="2288" yMax="1941">
      <component glyphName="caron" x="1500" y="522" flags="0x4"/>
      <component glyphName="Z" x="1214" y="0" flags="0x4"/>
      <component glyphName="D" x="0" y="0" flags="0x4"/>
    </TTGlyph>
    <TTGlyph name="Dbar" xMin="9" yMin="0" xMax="1156" yMax="1515">
      <component glyphName="Eth" x="0" y="0" flags="0x204"/>
    </TTGlyph>
    <TTGlyph name="Dcaron" xMin="135" yMin="0" xMax="1146" yMax="1941">
      <component glyphName="caron" x="220" y="522" flags="0x4"/>
      <component glyphName="D" x="0" y="0" flags="0x4"/>
    </TTGlyph>
    <TTGlyph name="Dcedilla" xMin="135" yMin="-312" xMax="1146" yMax="1515">
      <contour>
        <pt x="354" y="-217" on="1"/>
        <pt x="443" y="-217" on="0"/>
        <pt x="502" y="-185" on="0"/>
        <pt x="502" y="-170" on="1"/>
        <pt x="502" y="-94" on="0"/>
        <pt x="424" y="0" on="1"/>
        <pt x="135" y="0" on="1"/>
        <pt x="135" y="1515" on="1"/>
        <pt x="496" y="1515" on="1"/>
        <pt x="998" y="1515" on="0"/>
        <pt x="1110" y="1069" on="1"/>
        <pt x="1146" y="925" on="0"/>
        <pt x="1146" y="627" on="0"/>
        <pt x="1106" y="419" on="0"/>
        <pt x="1012" y="228" on="0"/>
        <pt x="942" y="158" on="1"/>
        <pt x="789" y="8" on="0"/>
        <pt x="522" y="0" on="1"/>
        <pt x="594" y="-96" on="0"/>
        <pt x="594" y="-197" on="1"/>
        <pt x="594" y="-240" on="0"/>
        <pt x="554" y="-275" on="0"/>
        <pt x="524" y="-293" on="0"/>
        <pt x="483" y="-303" on="0"/>
        <pt x="450" y="-309" on="0"/>
        <pt x="408" y="-311" on="0"/>
        <pt x="385" y="-312" on="0"/>
        <pt x="355" y="-311" on="0"/>
        <pt x="354" y="-311" on="1"/>
      </contour>
      <contour>
        <pt x="283" y="124" on="1"/>
        <pt x="496" y="124" on="1"/>
        <pt x="823" y="124" on="0"/>
        <pt x="940" y="403" on="1"/>
        <pt x="998" y="543" on="0"/>
        <pt x="998" y="745" on="1"/>
        <pt x="998" y="1104" on="0"/>
        <pt x="860" y="1257" on="1"/>
        <pt x="806" y="1316" on="0"/>
        <pt x="621" y="1391" on="0"/>
        <pt x="496" y="1391" on="1"/>
        <pt x="283" y="1391" on="1"/>
      </contour>
    </TTGlyph>
    <TTGlyph name="Dcircumflexbelow" xMin="135" yMin="-409" xMax="1146" yMax="1515">
      <component glyphName="asciicircum" x="220" y="-1541" flags="0x4"/>
      <component glyphName="D" x="0" y="0" flags="0x4"/>
    </TTGlyph>
    <TTGlyph name="Dcroat" xMin="9" yMin="0" xMax="1156" yMax="1515">
      <component glyphName="Eth" x="0" y="0" flags="0x204"/>
    </TTGlyph>
    <TTGlyph name="Ddotaccent" xMin="135" yMin="0" xMax="1146" yMax="1804">
      <component glyphName="dotaccent" x="538" y="1532" flags="0x4"/>
      <component glyphName="D" x="0" y="0" flags="0x4"/>
    </TTGlyph>
    <TTGlyph name="Ddotbelow" xMin="135" yMin="-272" xMax="1146" yMax="1515">
      <component glyphName="dotaccent" x="526" y="-394" flags="0x4"/>
      <component glyphName="D" x="0" y="0" flags="0x4"/>
    </TTGlyph>
    <TTGlyph name="De" xMin="25" yMin="-258" xMax="1360" yMax="1515">
      <contour>
        <pt x="177" y="0" on="1"/>
        <pt x="193" y="-36" on="0"/>
        <pt x="173" y="-258" on="1"/>
        <pt x="52" y="-258" on="1"/>
        <pt x="52" y="-118" on="0"/>
        <pt x="32" y="-28" on="1"/>
        <pt x="25" y="0" on="1"/>
        <pt x="25" y="124" on="1"/>
        <pt x="31" y="124" on="1"/>
        <pt x="114" y="124" on="0"/>
        <pt x="242" y="280" on="0"/>
        <pt x="323" y="541" on="0"/>
        <pt x="348" y="722" on="1"/>
        <pt x="394" y="1057" on="0"/>
        <pt x="386" y="1515" on="1"/>
        <pt x="1214" y="1515" on="1"/>
        <pt x="1214" y="124" on="1"/>
        <pt x="1360" y="124" on="1"/>
        <pt x="1360" y="0" on="1"/>
        <pt x="1333" y="-96" on="0"/>
        <pt x="1333" y="-258" on="1"/>
        <pt x="1212" y="-258" on="1"/>
        <pt x="1192" y="-36" on="0"/>
        <pt x="1208" y="0" on="1"/>
      </contour>
      <contour>
        <pt x="297" y="124" on="1"/>
        <pt x="1067" y="124" on="1"/>
        <pt x="1067" y="1391" on="1"/>
        <pt x="540" y="1391" on="1"/>
        <pt x="540" y="413" on="0"/>
      </contour>
    </TTGlyph>
    <TTGlyph name="Dei" xMin="25" yMin="0" xMax="1037" yMax="1515">
      <contour>
        <pt x="173" y="1055" on="1"/>
        <pt x="159" y="939" on="1"/>
        <pt x="25" y="939" on="1"/>
        <pt x="25" y="1179" on="1"/>
        <pt x="457" y="1179" on="1"/>
        <pt x="457" y="1515" on="1"/>
        <pt x="605" y="1515" on="1"/>
        <pt x="605" y="1179" on="1"/>
        <pt x="1037" y="1179" on="1"/>
        <pt x="1037" y="939" on="1"/>
        <pt x="903" y="939" on="1"/>
        <pt x="889" y="1055" on="1"/>
        <pt x="605" y="1055" on="1"/>
        <pt x="605" y="0" on="1"/>
        <pt x="457" y="0" on="1"/>
        <pt x="457" y="1055" on="1"/>
      </contour>
    </TTGlyph>
    <TTGlyph name="Delta" xMin="68" yMin="0" xMax="1208" yMax="1515">
      <contour>
        <pt x="691" y="1515" on="1"/>
        <pt x="1208" y="107" on="1"/>
        <pt x="1208" y="0" on="1"/>
        <pt x="68" y="0" on="1"/>
        <pt x="68" y="107" on="1"/>
        <pt x="585" y="1515" on="1"/>
      </contour>
      <contour>
        <pt x="1034" y="142" on="1"/>
        <pt x="638" y="1256" on="1"/>
        <pt x="242" y="142" on="1"/>
      </contour>
    </TTGlyph>
    <TTGlyph name="Delta.math" xMin="25" yMin="0" xMax="1253" yMax="1515">
      <contour>
        <pt x="25" y="0" on="1"/>
        <pt x="638" y="1515" on="1"/>
        <pt x="1253" y="0" on="1"/>
      </contour>
      <contour>
        <pt x="242" y="142" on="1"/>
        <pt x="1034" y="142" on="1"/>
        <pt x="638" y="1116" on="1"/>
      </contour>
    </TTGlyph>
    <TTGlyph name="Dhook" xMin="-59" yMin="0" xMax="1146" yMax="1518">
      <contour>
        <pt x="283" y="124" on="1"/>
        <pt x="496" y="124" on="1"/>
        <pt x="823" y="124" on="0"/>
        <pt x="940" y="403" on="1"/>
        <pt x="998" y="543" on="0"/>
        <pt x="998" y="745" on="1"/>
        <pt x="998" y="1104" on="0"/>
        <pt x="860" y="1257" on="1"/>
        <pt x="806" y="1316" on="0"/>
        <pt x="621" y="1391" on="0"/>
        <pt x="496" y="1391" on="1"/>
        <pt x="283" y="1391" on="1"/>
      </contour>
      <contour>
        <pt x="96" y="1518" on="1"/>
        <pt x="496" y="1515" on="1"/>
        <pt x="998" y="1515" on="0"/>
        <pt x="1110" y="1069" on="1"/>
        <pt x="1146" y="925" on="0"/>
        <pt x="1146" y="625" on="0"/>
        <pt x="1104" y="413" on="0"/>
        <pt x="1007" y="220" on="0"/>
        <pt x="934" y="151" on="1"/>
        <pt x="773" y="0" on="0"/>
        <pt x="496" y="0" on="1"/>
        <pt x="135" y="0" on="1"/>
        <pt x="135" y="1447" on="1"/>
        <pt x="43" y="1447" on="0"/>
        <pt x="43" y="1342" on="1"/>
        <pt x="43" y="1304" on="0"/>
        <pt x="49" y="1280" on="1"/>
        <pt x="-53" y="1293" on="1"/>
        <pt x="-59" y="1326" on="0"/>
        <pt x="-59" y="1353" on="1"/>
        <pt x="-59" y="1427" on="0"/>
        <pt x="22" y="1518" on="0"/>
      </contour>
    </TTGlyph>
    <TTGlyph name="Digamma" xMin="135" yMin="0" xMax="956" yMax="1515">
      <contour>
        <pt x="135" y="0" on="1"/>
        <pt x="135" y="1515" on="1"/>
        <pt x="956" y="1515" on="1"/>
        <pt x="956" y="1391" on="1"/>
        <pt x="283" y="1391" on="1"/>
        <pt x="283" y="858" on="1"/>
        <pt x="766" y="858" on="1"/>
        <pt x="766" y="734" on="1"/>
        <pt x="283" y="734" on="1"/>
        <pt x="283" y="0" on="1"/>
      </contour>
    </TTGlyph>
    <TTGlyph name="Digammapamphylian" xMin="128" yMin="0" xMax="1123" yMax="1515">
      <contour>
        <pt x="128" y="0" on="1"/>
        <pt x="128" y="1515" on="1"/>
        <pt x="276" y="1515" on="1"/>
        <pt x="276" y="361" on="1"/>
        <pt x="887" y="1515" on="1"/>
        <pt x="1123" y="1515" on="1"/>
        <pt x="1123" y="0" on="1"/>
        <pt x="975" y="0" on="1"/>
        <pt x="975" y="1368" on="1"/>
        <pt x="255" y="0" on="1"/>
      </contour>
    </TTGlyph>
    <TTGlyph name="Dje" xMin="25" yMin="-335" xMax="1331" yMax="1515">
      <contour>
        <pt x="1331" y="-2" on="1"/>
        <pt x="1331" y="-209" on="0"/>
        <pt x="1259" y="-273" on="1"/>
        <pt x="1232" y="-297" on="0"/>
        <pt x="1191" y="-321" on="0"/>
        <pt x="1152" y="-327" on="1"/>
        <pt x="1100" y="-335" on="0"/>
        <pt x="1008" y="-335" on="1"/>
        <pt x="1000" y="-223" on="1"/>
        <pt x="1097" y="-223" on="0"/>
        <pt x="1183" y="-153" on="0"/>
        <pt x="1183" y="-2" on="1"/>
        <pt x="1183" y="780" on="1"/>
        <pt x="1183" y="830" on="0"/>
        <pt x="1140" y="870" on="1"/>
        <pt x="1058" y="948" on="0"/>
        <pt x="869" y="948" on="0"/>
        <pt x="667" y="843" on="0"/>
        <pt x="605" y="775" on="1"/>
        <pt x="605" y="0" on="1"/>
        <pt x="457" y="0" on="1"/>
        <pt x="457" y="1391" on="1"/>
        <pt x="25" y="1391" on="1"/>
        <pt x="25" y="1515" on="1"/>
        <pt x="1037" y="1515" on="1"/>
        <pt x="1037" y="1391" on="1"/>
        <pt x="605" y="1391" on="1"/>
        <pt x="605" y="888" on="1"/>
        <pt x="682" y="963" on="0"/>
        <pt x="904" y="1072" on="0"/>
        <pt x="1063" y="1072" on="0"/>
        <pt x="1174" y="1035" on="0"/>
        <pt x="1271" y="966" on="0"/>
        <pt x="1331" y="851" on="0"/>
        <pt x="1331" y="780" on="1"/>
      </contour>
    </TTGlyph>
    <TTGlyph name="Dlinebelow" xMin="135" yMin="-214" xMax="1146" yMax="1515">
      <component glyphName="macron" x="214" y="-1445" flags="0x4"/>
      <component glyphName="D" x="0" y="0" flags="0x4"/>
    </TTGlyph>
    <TTGlyph name="Dtopbar" xMin="68" yMin="0" xMax="1079" yMax="1515">
      <contour>
        <pt x="68" y="517" on="1"/>
        <pt x="68" y="632" on="0"/>
        <pt x="100" y="786" on="0"/>
        <pt x="186" y="922" on="0"/>
        <pt x="258" y="964" on="1"/>
        <pt x="413" y="1055" on="0"/>
        <pt x="718" y="1055" on="1"/>
        <pt x="931" y="1055" on="1"/>
        <pt x="931" y="1389" on="1"/>
        <pt x="173" y="1389" on="1"/>
        <pt x="173" y="1515" on="1"/>
        <pt x="1079" y="1515" on="1"/>
        <pt x="1079" y="0" on="1"/>
        <pt x="718" y="0" on="1"/>
        <pt x="364" y="0" on="0"/>
        <pt x="212" y="142" on="1"/>
        <pt x="68" y="276" on="0"/>
      </contour>
      <contour>
        <pt x="426" y="163" on="1"/>
        <pt x="539" y="124" on="0"/>
        <pt x="718" y="124" on="1"/>
        <pt x="931" y="124" on="1"/>
        <pt x="931" y="931" on="1"/>
        <pt x="718" y="931" on="1"/>
        <pt x="504" y="931" on="0"/>
        <pt x="396" y="874" on="1"/>
        <pt x="285" y="816" on="0"/>
        <pt x="250" y="728" on="1"/>
        <pt x="216" y="642" on="0"/>
        <pt x="216" y="474" on="0"/>
        <pt x="225" y="390" on="0"/>
        <pt x="252" y="303" on="0"/>
        <pt x="297" y="239" on="0"/>
        <pt x="373" y="181" on="0"/>
      </contour>
    </TTGlyph>
    <TTGlyph name="Dz" xMin="135" yMin="0" xMax="1968" yMax="1515">
      <component glyphName="z" x="1214" y="0" flags="0x4"/>
      <component glyphName="D" x="0" y="0" flags="0x4"/>
    </TTGlyph>
    <TTGlyph name="Dzcaron" xMin="135" yMin="0" xMax="1968" yMax="1515">
      <component glyphName="caron" x="1318" y="56" flags="0x4"/>
      <component glyphName="z" x="1214" y="0" flags="0x4"/>
      <component glyphName="D" x="0" y="0" flags="0x4"/>
    </TTGlyph>
    <TTGlyph name="Dze" xMin="40" yMin="-16" xMax="988" yMax="1532">
      <component glyphName="S" x="0" y="0" flags="0x204"/>
    </TTGlyph>
    <TTGlyph name="Dzeabkhasian" xMin="70" yMin="-11" xMax="1041" yMax="1515">
      <component glyphName="Ezh" x="0" y="0" flags="0x204"/>
    </TTGlyph>
    <TTGlyph name="Dzhe" xMin="128" yMin="-258" xMax="1112" yMax="1515">
      <contour>
        <pt x="553" y="-258" on="1"/>
        <pt x="553" y="-110" on="0"/>
        <pt x="533" y="-28" on="1"/>
        <pt x="526" y="0" on="1"/>
        <pt x="128" y="0" on="1"/>
        <pt x="128" y="1515" on="1"/>
        <pt x="276" y="1515" on="1"/>
        <pt x="276" y="124" on="1"/>
        <pt x="961" y="124" on="1"/>
        <pt x="961" y="1515" on="1"/>
        <pt x="1112" y="1515" on="1"/>
        <pt x="1112" y="0" on="1"/>
        <pt x="704" y="0" on="1"/>
        <pt x="677" y="-96" on="0"/>
        <pt x="677" y="-258" on="1"/>
      </contour>
    </TTGlyph>
    <TTGlyph name="E" xMin="135" yMin="0" xMax="994" yMax="1515">
      <contour>
        <pt x="135" y="0" on="1"/>
        <pt x="135" y="1515" on="1"/>
        <pt x="956" y="1515" on="1"/>
        <pt x="956" y="1391" on="1"/>
        <pt x="283" y="1391" on="1"/>
        <pt x="283" y="858" on="1"/>
        <pt x="766" y="858" on="1"/>
        <pt x="766" y="734" on="1"/>
        <pt x="283" y="734" on="1"/>
        <pt x="283" y="133" on="1"/>
        <pt x="994" y="133" on="1"/>
        <pt x="994" y="0" on="1"/>
      </contour>
    </TTGlyph>
    <TTGlyph name="Eacute" xMin="135" yMin="0" xMax="994" yMax="1967">
      <component glyphName="acute" x="410" y="512" flags="0x4"/>
      <component glyphName="E" x="0" y="0" flags="0x4"/>
    </TTGlyph>
    <TTGlyph name="Ebreve" xMin="135" yMin="0" xMax="994" yMax="1829">
      <component glyphName="breve" x="280" y="539" flags="0x4"/>
      <component glyphName="E" x="0" y="0" flags="0x4"/>
    </TTGlyph>
    <TTGlyph name="Ecaron" xMin="135" yMin="0" xMax="994" yMax="1941">
      <component glyphName="caron" x="234" y="522" flags="0x4"/>
      <component glyphName="E" x="0" y="0" flags="0x4"/>
    </TTGlyph>
    <TTGlyph name="Ecedilla" xMin="135" yMin="-313" xMax="994" yMax="1515">
      <contour>
        <pt x="446" y="-218" on="1"/>
        <pt x="535" y="-218" on="0"/>
        <pt x="594" y="-186" on="0"/>
        <pt x="594" y="-171" on="1"/>
        <pt x="594" y="-96" on="0"/>
        <pt x="516" y="0" on="1"/>
        <pt x="135" y="0" on="1"/>
        <pt x="135" y="1515" on="1"/>
        <pt x="956" y="1515" on="1"/>
        <pt x="956" y="1391" on="1"/>
        <pt x="283" y="1391" on="1"/>
        <pt x="283" y="858" on="1"/>
        <pt x="766" y="858" on="1"/>
        <pt x="766" y="734" on="1"/>
        <pt x="283" y="734" on="1"/>
        <pt x="283" y="133" on="1"/>
        <pt x="994" y="133" on="1"/>
        <pt x="994" y="0" on="1"/>
        <pt x="614" y="0" on="1"/>
        <pt x="686" y="-101" on="0"/>
        <pt x="686" y="-198" on="1"/>
        <pt x="686" y="-241" on="0"/>
        <pt x="646" y="-276" on="0"/>
        <pt x="616" y="-294" on="0"/>
        <pt x="575" y="-304" on="0"/>
        <pt x="542" y="-310" on="0"/>
        <pt x="500" y="-312" on="0"/>
        <pt x="477" y="-313" on="0"/>
        <pt x="447" y="-312" on="0"/>
        <pt x="446" y="-312" on="1"/>
      </contour>
    </TTGlyph>
    <TTGlyph name="Ecedillabreve" xMin="135" yMin="-313" xMax="994" yMax="1829">
      <component glyphName="breve" x="280" y="539" flags="0x4"/>
      <component glyphName="Ecedilla" x="0" y="0" flags="0x4"/>
    </TTGlyph>
    <TTGlyph name="Ecircumflex" xMin="135" yMin="0" xMax="994" yMax="1941">
      <component glyphName="asciicircum" x="234" y="522" flags="0x4"/>
      <component glyphName="E" x="0" y="0" flags="0x4"/>
    </TTGlyph>
    <TTGlyph name="Ecircumflexacute" xMin="135" yMin="0" xMax="994" yMax="2423">
      <component glyphName="acute" x="358" y="968" flags="0x4"/>
      <component glyphName="asciicircum" x="234" y="522" flags="0x4"/>
      <component glyphName="E" x="0" y="0" flags="0x4"/>
    </TTGlyph>
    <TTGlyph name="Ecircumflexbelow" xMin="135" yMin="-409" xMax="994" yMax="1515">
      <component glyphName="asciicircum" x="252" y="-1541" flags="0x4"/>
      <component glyphName="E" x="0" y="0" flags="0x4"/>
    </TTGlyph>
    <TTGlyph name="Ecircumflexdotbelow" xMin="135" yMin="-272" xMax="994" yMax="1941">
      <component glyphName="asciicircum" x="234" y="522" flags="0x4"/>
      <component glyphName="dotaccent" x="564" y="-394" flags="0x4"/>
      <component glyphName="E" x="0" y="0" flags="0x4"/>
    </TTGlyph>
    <TTGlyph name="Ecircumflexgrave" xMin="135" yMin="0" xMax="994" yMax="2423">
      <component glyphName="grave" x="50" y="968" flags="0x4"/>
      <component glyphName="asciicircum" x="234" y="522" flags="0x4"/>
      <component glyphName="E" x="0" y="0" flags="0x4"/>
    </TTGlyph>
    <TTGlyph name="Ecircumflextilde" xMin="135" yMin="0" xMax="994" yMax="2263">
      <component glyphName="asciitilde" x="152" y="948" flags="0x4"/>
      <component glyphName="asciicircum" x="234" y="522" flags="0x4"/>
      <component glyphName="E" x="0" y="0" flags="0x4"/>
    </TTGlyph>
    <TTGlyph name="Ecyrillic" xMin="80" yMin="-16" xMax="1083" yMax="1532">
      <contour>
        <pt x="917" y="1127" on="1"/>
        <pt x="840" y="1408" on="0"/>
        <pt x="618" y="1408" on="1"/>
        <pt x="369" y="1408" on="0"/>
        <pt x="278" y="1150" on="1"/>
        <pt x="229" y="1009" on="0"/>
        <pt x="229" y="814" on="1"/>
        <pt x="708" y="814" on="1"/>
        <pt x="708" y="690" on="1"/>
        <pt x="230" y="690" on="1"/>
        <pt x="230" y="445" on="0"/>
        <pt x="317" y="283" on="1"/>
        <pt x="361" y="201" on="0"/>
        <pt x="515" y="108" on="0"/>
        <pt x="618" y="108" on="1"/>
        <pt x="794" y="108" on="0"/>
        <pt x="893" y="272" on="1"/>
        <pt x="910" y="299" on="0"/>
        <pt x="920" y="326" on="1"/>
        <pt x="935" y="367" on="1"/>
        <pt x="940" y="381" on="0"/>
        <pt x="940" y="382" on="1"/>
        <pt x="1083" y="359" on="1"/>
        <pt x="1082" y="356" on="0"/>
        <pt x="1079" y="349" on="1"/>
        <pt x="937" y="-16" on="0"/>
        <pt x="618" y="-16" on="1"/>
        <pt x="291" y="-16" on="0"/>
        <pt x="157" y="312" on="1"/>
        <pt x="80" y="500" on="0"/>
        <pt x="80" y="759" on="1"/>
        <pt x="80" y="1157" on="0"/>
        <pt x="262" y="1374" on="1"/>
        <pt x="324" y="1447" on="0"/>
        <pt x="507" y="1532" on="0"/>
        <pt x="687" y="1532" on="0"/>
        <pt x="811" y="1492" on="0"/>
        <pt x="898" y="1429" on="0"/>
        <pt x="971" y="1352" on="0"/>
        <pt x="994" y="1314" on="1"/>
        <pt x="1040" y="1234" on="0"/>
        <pt x="1054" y="1192" on="1"/>
        <pt x="1060" y="1172" on="1"/>
      </contour>
    </TTGlyph>
    <TTGlyph name="Edblgrave" xMin="135" yMin="0" xMax="994" yMax="2014">
      <component glyphName="grave" x="399" y="559" flags="0x4"/>
      <component glyphName="grave" x="46" y="559" flags="0x4"/>
      <component glyphName="E" x="0" y="0" flags="0x4"/>
    </TTGlyph>
    <TTGlyph name="Edieresis" xMin="135" yMin="0" xMax="994" yMax="1804">
      <component glyphName="dieresis" x="219" y="451" flags="0x4"/>
      <component glyphName="E" x="0" y="0" flags="0x4"/>
    </TTGlyph>
    <TTGlyph name="Edotaccent" xMin="135" yMin="0" xMax="994" yMax="1804">
      <component glyphName="dotaccent" x="546" y="1532" flags="0x4"/>
      <component glyphName="E" x="0" y="0" flags="0x4"/>
    </TTGlyph>
    <TTGlyph name="Edotbelow" xMin="135" yMin="-272" xMax="994" yMax="1515">
      <component glyphName="dotaccent" x="564" y="-394" flags="0x4"/>
      <component glyphName="E" x="0" y="0" flags="0x4"/>
    </TTGlyph>
    <TTGlyph name="Ef" xMin="80" yMin="0" xMax="1246" yMax="1515">
      <contour>
        <pt x="589" y="191" on="1"/>
        <pt x="433" y="207" on="0"/>
        <pt x="200" y="366" on="0"/>
        <pt x="80" y="611" on="0"/>
        <pt x="80" y="905" on="0"/>
        <pt x="199" y="1150" on="0"/>
        <pt x="432" y="1309" on="0"/>
        <pt x="589" y="1325" on="1"/>
        <pt x="589" y="1515" on="1"/>
        <pt x="737" y="1515" on="1"/>
        <pt x="737" y="1325" on="1"/>
        <pt x="969" y="1301" on="0"/>
        <pt x="1246" y="983" on="0"/>
        <pt x="1246" y="533" on="0"/>
        <pt x="969" y="215" on="0"/>
        <pt x="737" y="191" on="1"/>
        <pt x="737" y="0" on="1"/>
        <pt x="589" y="0" on="1"/>
      </contour>
      <contour>
        <pt x="589" y="1200" on="1"/>
        <pt x="477" y="1184" on="0"/>
        <pt x="394" y="1121" on="1"/>
        <pt x="228" y="995" on="0"/>
        <pt x="228" y="758" on="1"/>
        <pt x="228" y="584" on="0"/>
        <pt x="418" y="339" on="0"/>
        <pt x="589" y="316" on="1"/>
      </contour>
      <contour>
        <pt x="737" y="1200" on="1"/>
        <pt x="737" y="316" on="1"/>
        <pt x="904" y="340" on="0"/>
        <pt x="1098" y="586" on="0"/>
        <pt x="1098" y="930" on="0"/>
        <pt x="904" y="1176" on="0"/>
      </contour>
    </TTGlyph>
    <TTGlyph name="Egrave" xMin="135" yMin="0" xMax="994" yMax="1967">
      <component glyphName="grave" x="-2" y="512" flags="0x4"/>
      <component glyphName="E" x="0" y="0" flags="0x4"/>
    </TTGlyph>
    <TTGlyph name="Einvertedbreve" xMin="135" yMin="0" xMax="994" yMax="1829">
      <component glyphName="breveinvertedcomb" x="280" y="539" flags="0x4"/>
      <component glyphName="E" x="0" y="0" flags="0x4"/>
    </TTGlyph>
    <TTGlyph name="Eiotifiedcyrillic" xMin="135" yMin="-16" xMax="1411" yMax="1532">
      <contour>
        <pt x="1245" y="1127" on="1"/>
        <pt x="1168" y="1408" on="0"/>
        <pt x="946" y="1408" on="1"/>
        <pt x="573" y="1408" on="0"/>
        <pt x="557" y="814" on="1"/>
        <pt x="1036" y="814" on="1"/>
        <pt x="1036" y="690" on="1"/>
        <pt x="558" y="690" on="1"/>
        <pt x="578" y="363" on="0"/>
        <pt x="692" y="222" on="1"/>
        <pt x="784" y="108" on="0"/>
        <pt x="946" y="108" on="1"/>
        <pt x="1122" y="108" on="0"/>
        <pt x="1221" y="272" on="1"/>
        <pt x="1238" y="299" on="0"/>
        <pt x="1248" y="326" on="1"/>
        <pt x="1263" y="367" on="1"/>
        <pt x="1268" y="381" on="0"/>
        <pt x="1268" y="382" on="1"/>
        <pt x="1411" y="359" on="1"/>
        <pt x="1410" y="356" on="0"/>
        <pt x="1407" y="349" on="1"/>
        <pt x="1265" y="-16" on="0"/>
        <pt x="946" y="-16" on="1"/>
        <pt x="637" y="-16" on="0"/>
        <pt x="498" y="280" on="1"/>
        <pt x="419" y="449" on="0"/>
        <pt x="409" y="690" on="1"/>
        <pt x="283" y="690" on="1"/>
        <pt x="283" y="0" on="1"/>
        <pt x="135" y="0" on="1"/>
        <pt x="135" y="1515" on="1"/>
        <pt x="283" y="1515" on="1"/>
        <pt x="283" y="814" on="1"/>
        <pt x="409" y="814" on="1"/>
        <pt x="419" y="1108" on="0"/>
        <pt x="545" y="1312" on="1"/>
        <pt x="608" y="1414" on="0"/>
        <pt x="814" y="1532" on="0"/>
        <pt x="946" y="1532" on="1"/>
        <pt x="1128" y="1532" on="0"/>
        <pt x="1262" y="1390" on="1"/>
        <pt x="1314" y="1336" on="0"/>
        <pt x="1375" y="1212" on="0"/>
        <pt x="1382" y="1192" on="1"/>
        <pt x="1388" y="1172" on="1"/>
      </contour>
    </TTGlyph>
    <TTGlyph name="El" xMin="40" yMin="-16" xMax="1085" yMax="1515">
      <contour>
        <pt x="40" y="108" on="1"/>
        <pt x="167" y="108" on="0"/>
        <pt x="216" y="216" on="1"/>
        <pt x="256" y="305" on="0"/>
        <pt x="256" y="455" on="1"/>
        <pt x="256" y="1515" on="1"/>
        <pt x="1085" y="1515" on="1"/>
        <pt x="1085" y="0" on="1"/>
        <pt x="937" y="0" on="1"/>
        <pt x="937" y="1391" on="1"/>
        <pt x="410" y="1391" on="1"/>
        <pt x="410" y="455" on="1"/>
        <pt x="410" y="226" on="0"/>
        <pt x="301" y="94" on="1"/>
        <pt x="210" y="-16" on="0"/>
        <pt x="40" y="-16" on="1"/>
      </contour>
    </TTGlyph>
    <TTGlyph name="Eltail" xMin="40" yMin="-250" xMax="1235" yMax="1515">
      <contour>
        <pt x="1063" y="-250" on="1"/>
        <pt x="1150" y="0" on="1"/>
        <pt x="937" y="0" on="1"/>
        <pt x="937" y="1391" on="1"/>
        <pt x="410" y="1391" on="1"/>
        <pt x="410" y="455" on="1"/>
        <pt x="410" y="226" on="0"/>
        <pt x="301" y="94" on="1"/>
        <pt x="210" y="-16" on="0"/>
        <pt x="40" y="-16" on="1"/>
        <pt x="40" y="108" on="1"/>
        <pt x="167" y="108" on="0"/>
        <pt x="216" y="216" on="1"/>
        <pt x="256" y="305" on="0"/>
        <pt x="256" y="455" on="1"/>
        <pt x="256" y="1515" on="1"/>
        <pt x="1085" y="1515" on="1"/>
        <pt x="1085" y="150" on="1"/>
        <pt x="1235" y="150" on="1"/>
        <pt x="1235" y="0" on="1"/>
        <pt x="1208" y="-57" on="0"/>
        <pt x="1110" y="-247" on="0"/>
        <pt x="1107" y="-250" on="1"/>
      </contour>
    </TTGlyph>
    <TTGlyph name="Em" xMin="128" yMin="0" xMax="1322" yMax="1515">
      <component glyphName="M" x="0" y="0" flags="0x204"/>
    </TTGlyph>
    <TTGlyph name="Emacron" xMin="135" yMin="0" xMax="994" yMax="1746">
      <component glyphName="macron" x="192" y="423" flags="0x4"/>
      <component glyphName="E" x="0" y="0" flags="0x4"/>
    </TTGlyph>
    <TTGlyph name="Emacronacute" xMin="135" yMin="0" xMax="994" yMax="2228">
      <component glyphName="acute" x="358" y="773" flags="0x4"/>
      <component glyphName="macron" x="192" y="423" flags="0x4"/>
      <component glyphName="E" x="0" y="0" flags="0x4"/>
    </TTGlyph>
    <TTGlyph name="Emacrongrave" xMin="135" yMin="0" xMax="994" yMax="2228">
      <component glyphName="grave" x="50" y="773" flags="0x4"/>
      <component glyphName="macron" x="192" y="423" flags="0x4"/>
      <component glyphName="E" x="0" y="0" flags="0x4"/>
    </TTGlyph>
    <TTGlyph name="Emtail" xMin="128" yMin="-250" xMax="1472" yMax="1515">
      <contour>
        <pt x="1322" y="150" on="1"/>
        <pt x="1472" y="150" on="1"/>
        <pt x="1472" y="0" on="1"/>
        <pt x="1445" y="-57" on="0"/>
        <pt x="1347" y="-247" on="0"/>
        <pt x="1344" y="-250" on="1"/>
        <pt x="1300" y="-250" on="1"/>
        <pt x="1387" y="0" on="1"/>
        <pt x="1174" y="0" on="1"/>
        <pt x="1174" y="1374" on="1"/>
        <pt x="1164" y="1374" on="1"/>
        <pt x="782" y="0" on="1"/>
        <pt x="668" y="0" on="1"/>
        <pt x="286" y="1374" on="1"/>
        <pt x="276" y="1374" on="1"/>
        <pt x="276" y="0" on="1"/>
        <pt x="128" y="0" on="1"/>
        <pt x="128" y="1515" on="1"/>
        <pt x="396" y="1515" on="1"/>
        <pt x="720" y="352" on="1"/>
        <pt x="730" y="352" on="1"/>
        <pt x="1054" y="1515" on="1"/>
        <pt x="1322" y="1515" on="1"/>
      </contour>
    </TTGlyph>
    <TTGlyph name="En" xMin="135" yMin="0" xMax="1119" yMax="1515">
      <component glyphName="H" x="0" y="0" flags="0x204"/>
    </TTGlyph>
    <TTGlyph name="EnGhe" xMin="135" yMin="0" xMax="1791" yMax="1515">
      <contour>
        <pt x="135" y="0" on="1"/>
        <pt x="135" y="1515" on="1"/>
        <pt x="283" y="1515" on="1"/>
        <pt x="283" y="858" on="1"/>
        <pt x="971" y="858" on="1"/>
        <pt x="971" y="1515" on="1"/>
        <pt x="1791" y="1515" on="1"/>
        <pt x="1791" y="1373" on="1"/>
        <pt x="1119" y="1373" on="1"/>
        <pt x="1119" y="0" on="1"/>
        <pt x="971" y="0" on="1"/>
        <pt x="971" y="734" on="1"/>
        <pt x="283" y="734" on="1"/>
        <pt x="283" y="0" on="1"/>
      </contour>
    </TTGlyph>
    <TTGlyph name="Endescender" xMin="135" yMin="-258" xMax="1272" yMax="1515">
      <contour>
        <pt x="1119" y="133" on="1"/>
        <pt x="1272" y="133" on="1"/>
        <pt x="1272" y="0" on="1"/>
        <pt x="1245" y="-96" on="0"/>
        <pt x="1245" y="-258" on="1"/>
        <pt x="1124" y="-258" on="1"/>
        <pt x="1104" y="-36" on="0"/>
        <pt x="1120" y="0" on="1"/>
        <pt x="971" y="0" on="1"/>
        <pt x="971" y="734" on="1"/>
        <pt x="283" y="734" on="1"/>
        <pt x="283" y="0" on="1"/>
        <pt x="135" y="0" on="1"/>
        <pt x="135" y="1515" on="1"/>
        <pt x="283" y="1515" on="1"/>
        <pt x="283" y="858" on="1"/>
        <pt x="971" y="858" on="1"/>
        <pt x="971" y="1515" on="1"/>
        <pt x="1119" y="1515" on="1"/>
      </contour>
    </TTGlyph>
    <TTGlyph name="Eng" xMin="128" yMin="-338" xMax="1123" yMax="1515">
      <contour>
        <pt x="128" y="0" on="1"/>
        <pt x="128" y="1515" on="1"/>
        <pt x="364" y="1515" on="1"/>
        <pt x="975" y="361" on="1"/>
        <pt x="975" y="1515" on="1"/>
        <pt x="1123" y="1515" on="1"/>
        <pt x="1123" y="0" on="1"/>
        <pt x="1123" y="-212" on="0"/>
        <pt x="1055" y="-275" on="1"/>
        <pt x="1029" y="-299" on="0"/>
        <pt x="991" y="-324" on="0"/>
        <pt x="952" y="-330" on="1"/>
        <pt x="901" y="-338" on="0"/>
        <pt x="860" y="-338" on="1"/>
        <pt x="816" y="-338" on="1"/>
        <pt x="808" y="-226" on="1"/>
        <pt x="905" y="-226" on="0"/>
        <pt x="991" y="-156" on="0"/>
        <pt x="991" y="-10" on="1"/>
        <pt x="991" y="9" on="1"/>
        <pt x="276" y="1368" on="1"/>
        <pt x="276" y="0" on="1"/>
      </contour>
    </TTGlyph>
    <TTGlyph name="Enhook" xMin="135" yMin="-339" xMax="1119" yMax="1515">
      <contour>
        <pt x="1119" y="108" on="1"/>
        <pt x="1119" y="-189" on="0"/>
        <pt x="993" y="-286" on="1"/>
        <pt x="926" y="-337" on="0"/>
        <pt x="818" y="-339" on="1"/>
        <pt x="810" y="-215" on="1"/>
        <pt x="929" y="-215" on="0"/>
        <pt x="956" y="-106" on="1"/>
        <pt x="971" y="-50" on="0"/>
        <pt x="971" y="51" on="1"/>
        <pt x="971" y="734" on="1"/>
        <pt x="283" y="734" on="1"/>
        <pt x="283" y="0" on="1"/>
        <pt x="135" y="0" on="1"/>
        <pt x="135" y="1515" on="1"/>
        <pt x="283" y="1515" on="1"/>
        <pt x="283" y="858" on="1"/>
        <pt x="971" y="858" on="1"/>
        <pt x="971" y="1515" on="1"/>
        <pt x="1119" y="1515" on="1"/>
      </contour>
    </TTGlyph>
    <TTGlyph name="Entail" xMin="135" yMin="-250" xMax="1269" yMax="1515">
      <contour>
        <pt x="1097" y="-250" on="1"/>
        <pt x="1184" y="0" on="1"/>
        <pt x="971" y="0" on="1"/>
        <pt x="971" y="734" on="1"/>
        <pt x="283" y="734" on="1"/>
        <pt x="283" y="0" on="1"/>
        <pt x="135" y="0" on="1"/>
        <pt x="135" y="1515" on="1"/>
        <pt x="283" y="1515" on="1"/>
        <pt x="283" y="858" on="1"/>
        <pt x="971" y="858" on="1"/>
        <pt x="971" y="1515" on="1"/>
        <pt x="1119" y="1515" on="1"/>
        <pt x="1119" y="150" on="1"/>
        <pt x="1269" y="150" on="1"/>
        <pt x="1269" y="0" on="1"/>
        <pt x="1242" y="-57" on="0"/>
        <pt x="1144" y="-247" on="0"/>
        <pt x="1141" y="-250" on="1"/>
      </contour>
    </TTGlyph>
    <TTGlyph name="Eogonek" xMin="135" yMin="-303" xMax="994" yMax="1515">
      <contour>
        <pt x="958" y="-303" on="1"/>
        <pt x="753" y="-303" on="0"/>
        <pt x="753" y="-188" on="1"/>
        <pt x="753" y="-97" on="0"/>
        <pt x="819" y="0" on="1"/>
        <pt x="135" y="0" on="1"/>
        <pt x="135" y="1515" on="1"/>
        <pt x="956" y="1515" on="1"/>
        <pt x="956" y="1391" on="1"/>
        <pt x="283" y="1391" on="1"/>
        <pt x="283" y="858" on="1"/>
        <pt x="766" y="858" on="1"/>
        <pt x="766" y="734" on="1"/>
        <pt x="283" y="734" on="1"/>
        <pt x="283" y="133" on="1"/>
        <pt x="994" y="133" on="1"/>
        <pt x="994" y="0" on="1"/>
        <pt x="916" y="0" on="1"/>
        <pt x="846" y="-90" on="0"/>
        <pt x="846" y="-161" on="1"/>
        <pt x="846" y="-197" on="0"/>
        <pt x="962" y="-206" on="1"/>
        <pt x="981" y="-208" on="0"/>
        <pt x="994" y="-208" on="1"/>
        <pt x="994" y="-302" on="1"/>
      </contour>
    </TTGlyph>
    <TTGlyph name="Epsilon" xMin="135" yMin="0" xMax="994" yMax="1515">
      <component glyphName="E" x="0" y="0" flags="0x204"/>
    </TTGlyph>
    <TTGlyph name="Epsilonacute" xMin="-258" yMin="0" xMax="994" yMax="1531">
      <component glyphName="oxia" x="-439" y="53" flags="0x4"/>
      <component glyphName="E" x="0" y="0" flags="0x4"/>
    </TTGlyph>
    <TTGlyph name="Epsilonasper" xMin="-147" yMin="0" xMax="994" yMax="1532">
      <component glyphName="commareversedabovecomb" x="-217" y="26" flags="0x4"/>
      <component glyphName="E" x="0" y="0" flags="0x4"/>
    </TTGlyph>
    <TTGlyph name="Epsilonasperacute" xMin="-533" yMin="0" xMax="994" yMax="1532">
      <component glyphName="oxia" x="-451" y="53" flags="0x4"/>
      <component glyphName="commareversedabovecomb" x="-603" y="26" flags="0x4"/>
      <component glyphName="E" x="0" y="0" flags="0x4"/>
    </TTGlyph>
    <TTGlyph name="Epsilonaspergrave" xMin="-488" yMin="0" xMax="994" yMax="1532">
      <component glyphName="varia" x="-488" y="51" flags="0x4"/>
      <component glyphName="commareversedabovecomb" x="-558" y="26" flags="0x4"/>
      <component glyphName="E" x="0" y="0" flags="0x4"/>
    </TTGlyph>
    <TTGlyph name="Epsilongrave" xMin="-259" yMin="0" xMax="994" yMax="1532">
      <component glyphName="varia" x="-488" y="51" flags="0x4"/>
      <component glyphName="E" x="0" y="0" flags="0x4"/>
    </TTGlyph>
    <TTGlyph name="Epsilonlatin" xMin="70" yMin="-11" xMax="1041" yMax="1527">
      <contour>
        <pt x="70" y="417" on="1"/>
        <pt x="70" y="648" on="0"/>
        <pt x="307" y="792" on="1"/>
        <pt x="176" y="877" on="0"/>
        <pt x="134" y="1036" on="1"/>
        <pt x="119" y="1090" on="0"/>
        <pt x="119" y="1149" on="1"/>
        <pt x="119" y="1250" on="0"/>
        <pt x="238" y="1425" on="0"/>
        <pt x="434" y="1527" on="0"/>
        <pt x="697" y="1527" on="0"/>
        <pt x="927" y="1410" on="0"/>
        <pt x="1000" y="1326" on="1"/>
        <pt x="904" y="1233" on="1"/>
        <pt x="857" y="1294" on="0"/>
        <pt x="665" y="1384" on="0"/>
        <pt x="441" y="1384" on="0"/>
        <pt x="260" y="1255" on="0"/>
        <pt x="260" y="1019" on="0"/>
        <pt x="399" y="862" on="0"/>
        <pt x="532" y="862" on="1"/>
        <pt x="745" y="862" on="1"/>
        <pt x="745" y="721" on="1"/>
        <pt x="532" y="721" on="1"/>
        <pt x="388" y="721" on="0"/>
        <pt x="212" y="552" on="0"/>
        <pt x="212" y="407" on="1"/>
        <pt x="212" y="317" on="0"/>
        <pt x="262" y="253" on="1"/>
        <pt x="358" y="132" on="0"/>
        <pt x="560" y="132" on="1"/>
        <pt x="651" y="132" on="0"/>
        <pt x="797" y="189" on="0"/>
        <pt x="864" y="246" on="0"/>
        <pt x="900" y="282" on="1"/>
        <pt x="940" y="324" on="1"/>
        <pt x="1041" y="237" on="1"/>
        <pt x="846" y="-11" on="0"/>
        <pt x="560" y="-11" on="1"/>
        <pt x="338" y="-11" on="0"/>
        <pt x="70" y="209" on="0"/>
      </contour>
    </TTGlyph>
    <TTGlyph name="Epsilonlenis" xMin="-171" yMin="0" xMax="994" yMax="1532">
      <component glyphName="comma" x="-241" y="1382" flags="0x4"/>
      <component glyphName="E" x="0" y="0" flags="0x4"/>
    </TTGlyph>
    <TTGlyph name="Epsilonlenisacute" xMin="-532" yMin="0" xMax="994" yMax="1555">
      <component glyphName="psili_oxia" x="-599" y="-136" flags="0x4"/>
      <component glyphName="E" x="0" y="0" flags="0x4"/>
    </TTGlyph>
    <TTGlyph name="Epsilonlenisgrave" xMin="-526" yMin="0" xMax="994" yMax="1556">
      <component glyphName="psili_varia" x="-593" y="-136" flags="0x4"/>
      <component glyphName="E" x="0" y="0" flags="0x4"/>
    </TTGlyph>
    <TTGlyph name="Epsilontonos" xMin="-219" yMin="0" xMax="994" yMax="1520">
      <component glyphName="tonos" x="-399" y="40" flags="0x4"/>
      <component glyphName="E" x="0" y="0" flags="0x4"/>
    </TTGlyph>
    <TTGlyph name="Er" xMin="135" yMin="0" xMax="1068" yMax="1515">
      <component glyphName="P" x="0" y="0" flags="0x204"/>
    </TTGlyph>
    <TTGlyph name="Ereversed" xMin="135" yMin="0" xMax="994" yMax="1515">
      <contour>
        <pt x="135" y="0" on="1"/>
        <pt x="135" y="133" on="1"/>
        <pt x="846" y="133" on="1"/>
        <pt x="846" y="734" on="1"/>
        <pt x="363" y="734" on="1"/>
        <pt x="363" y="858" on="1"/>
        <pt x="846" y="858" on="1"/>
        <pt x="846" y="1391" on="1"/>
        <pt x="173" y="1391" on="1"/>
        <pt x="173" y="1515" on="1"/>
        <pt x="994" y="1515" on="1"/>
        <pt x="994" y="0" on="1"/>
      </contour>
    </TTGlyph>
    <TTGlyph name="Ereversedcyrillic" xMin="68" yMin="-16" xMax="1071" yMax="1532">
      <contour>
        <pt x="892" y="140" on="1"/>
        <pt x="760" y="-16" on="0"/>
        <pt x="533" y="-16" on="1"/>
        <pt x="214" y="-16" on="0"/>
        <pt x="72" y="349" on="1"/>
        <pt x="69" y="356" on="0"/>
        <pt x="68" y="359" on="1"/>
        <pt x="211" y="382" on="1"/>
        <pt x="211" y="381" on="0"/>
        <pt x="216" y="367" on="1"/>
        <pt x="226" y="341" on="1"/>
        <pt x="313" y="108" on="0"/>
        <pt x="533" y="108" on="1"/>
        <pt x="833" y="108" on="0"/>
        <pt x="901" y="509" on="1"/>
        <pt x="915" y="591" on="0"/>
        <pt x="921" y="690" on="1"/>
        <pt x="443" y="690" on="1"/>
        <pt x="443" y="814" on="1"/>
        <pt x="922" y="814" on="1"/>
        <pt x="906" y="1408" on="0"/>
        <pt x="533" y="1408" on="1"/>
        <pt x="469" y="1408" on="0"/>
        <pt x="364" y="1358" on="0"/>
        <pt x="304" y="1293" on="0"/>
        <pt x="280" y="1249" on="1"/>
        <pt x="250" y="1192" on="0"/>
        <pt x="234" y="1128" on="0"/>
        <pt x="234" y="1127" on="1"/>
        <pt x="91" y="1172" on="1"/>
        <pt x="118" y="1281" on="0"/>
        <pt x="216" y="1390" on="1"/>
        <pt x="345" y="1532" on="0"/>
        <pt x="533" y="1532" on="1"/>
        <pt x="644" y="1532" on="0"/>
        <pt x="827" y="1447" on="0"/>
        <pt x="950" y="1301" on="0"/>
        <pt x="1033" y="1102" on="0"/>
        <pt x="1071" y="881" on="0"/>
        <pt x="1071" y="634" on="0"/>
        <pt x="1035" y="412" on="0"/>
        <pt x="953" y="212" on="0"/>
      </contour>
    </TTGlyph>
    <TTGlyph name="Ereversedcyrillicdieresis" xMin="68" yMin="-16" xMax="1071" yMax="1804">
      <component glyphName="dieresis" x="206" y="451" flags="0x4"/>
      <component glyphName="Ereversedcyrillic" x="0" y="0" flags="0x4"/>
    </TTGlyph>
    <TTGlyph name="Ertick" xMin="135" yMin="0" xMax="1068" yMax="1515">
      <contour>
        <pt x="283" y="816" on="1"/>
        <pt x="283" y="816" on="0"/>
        <pt x="563" y="816" on="1"/>
        <pt x="604" y="816" on="0"/>
        <pt x="633" y="820" on="1"/>
        <pt x="456" y="1072" on="1"/>
        <pt x="558" y="1143" on="1"/>
        <pt x="762" y="852" on="1"/>
        <pt x="920" y="921" on="0"/>
        <pt x="920" y="1110" on="1"/>
        <pt x="920" y="1250" on="0"/>
        <pt x="724" y="1391" on="0"/>
        <pt x="563" y="1391" on="1"/>
        <pt x="283" y="1391" on="1"/>
      </contour>
      <contour>
        <pt x="135" y="0" on="1"/>
        <pt x="135" y="1515" on="1"/>
        <pt x="664" y="1515" on="1"/>
        <pt x="899" y="1515" on="0"/>
        <pt x="1010" y="1329" on="1"/>
        <pt x="1068" y="1231" on="0"/>
        <pt x="1068" y="990" on="0"/>
        <pt x="960" y="778" on="0"/>
        <pt x="849" y="728" on="1"/>
        <pt x="979" y="543" on="1"/>
        <pt x="877" y="472" on="1"/>
        <pt x="721" y="695" on="1"/>
        <pt x="694" y="692" on="0"/>
        <pt x="664" y="692" on="1"/>
        <pt x="283" y="692" on="1"/>
        <pt x="283" y="0" on="1"/>
      </contour>
    </TTGlyph>
    <TTGlyph name="Es" xMin="80" yMin="-16" xMax="1106" yMax="1532">
      <component glyphName="C" x="0" y="0" flags="0x204"/>
    </TTGlyph>
    <TTGlyph name="Escedilla" xMin="80" yMin="-326" xMax="1106" yMax="1532">
      <contour>
        <pt x="499" y="-231" on="1"/>
        <pt x="588" y="-231" on="0"/>
        <pt x="647" y="-199" on="0"/>
        <pt x="647" y="-184" on="1"/>
        <pt x="647" y="-106" on="0"/>
        <pt x="570" y="-14" on="1"/>
        <pt x="463" y="-5" on="0"/>
        <pt x="293" y="95" on="0"/>
        <pt x="183" y="244" on="0"/>
        <pt x="146" y="344" on="1"/>
        <pt x="80" y="525" on="0"/>
        <pt x="80" y="759" on="1"/>
        <pt x="80" y="1147" on="0"/>
        <pt x="258" y="1366" on="1"/>
        <pt x="319" y="1441" on="0"/>
        <pt x="504" y="1532" on="0"/>
        <pt x="696" y="1532" on="0"/>
        <pt x="831" y="1483" on="0"/>
        <pt x="923" y="1405" on="0"/>
        <pt x="999" y="1310" on="0"/>
        <pt x="1021" y="1262" on="1"/>
        <pt x="1067" y="1163" on="0"/>
        <pt x="1078" y="1112" on="1"/>
        <pt x="1084" y="1088" on="1"/>
        <pt x="1084" y="1087" on="1"/>
        <pt x="932" y="1046" on="1"/>
        <pt x="916" y="1160" on="0"/>
        <pt x="867" y="1265" on="0"/>
        <pt x="818" y="1332" on="0"/>
        <pt x="788" y="1355" on="1"/>
        <pt x="717" y="1408" on="0"/>
        <pt x="618" y="1408" on="1"/>
        <pt x="228" y="1408" on="0"/>
        <pt x="228" y="759" on="1"/>
        <pt x="228" y="481" on="0"/>
        <pt x="310" y="305" on="1"/>
        <pt x="403" y="108" on="0"/>
        <pt x="618" y="108" on="1"/>
        <pt x="696" y="108" on="0"/>
        <pt x="820" y="163" on="0"/>
        <pt x="892" y="242" on="0"/>
        <pt x="916" y="294" on="1"/>
        <pt x="958" y="380" on="0"/>
        <pt x="960" y="463" on="1"/>
        <pt x="1106" y="440" on="1"/>
        <pt x="1101" y="428" on="0"/>
        <pt x="1088" y="388" on="1"/>
        <pt x="1066" y="322" on="1"/>
        <pt x="1021" y="200" on="0"/>
        <pt x="940" y="112" on="1"/>
        <pt x="838" y="0" on="0"/>
        <pt x="668" y="-14" on="1"/>
        <pt x="740" y="-116" on="0"/>
        <pt x="740" y="-211" on="1"/>
        <pt x="740" y="-254" on="0"/>
        <pt x="699" y="-289" on="0"/>
        <pt x="669" y="-307" on="0"/>
        <pt x="629" y="-317" on="0"/>
        <pt x="596" y="-323" on="0"/>
        <pt x="574" y="-324" on="1"/>
        <pt x="542" y="-326" on="1"/>
        <pt x="530" y="-326" on="0"/>
        <pt x="500" y="-325" on="0"/>
        <pt x="499" y="-325" on="1"/>
      </contour>
    </TTGlyph>
    <TTGlyph name="Esh" xMin="68" yMin="0" xMax="1068" yMax="1519">
      <contour>
        <pt x="480" y="744" on="1"/>
        <pt x="68" y="1392" on="1"/>
        <pt x="68" y="1519" on="1"/>
        <pt x="1020" y="1519" on="1"/>
        <pt x="1020" y="1387" on="1"/>
        <pt x="249" y="1387" on="1"/>
        <pt x="664" y="744" on="1"/>
        <pt x="280" y="142" on="1"/>
        <pt x="1068" y="142" on="1"/>
        <pt x="1068" y="0" on="1"/>
        <pt x="68" y="0" on="1"/>
        <pt x="68" y="107" on="1"/>
      </contour>
    </TTGlyph>
    <TTGlyph name="Estroke" xMin="135" yMin="-72" xMax="994" yMax="1591">
      <contour>
        <pt x="135" y="0" on="1"/>
        <pt x="135" y="1515" on="1"/>
        <pt x="737" y="1515" on="1"/>
        <pt x="760" y="1578" on="1"/>
        <pt x="901" y="1591" on="1"/>
        <pt x="874" y="1515" on="1"/>
        <pt x="956" y="1515" on="1"/>
        <pt x="956" y="1391" on="1"/>
        <pt x="829" y="1391" on="1"/>
        <pt x="634" y="858" on="1"/>
        <pt x="766" y="858" on="1"/>
        <pt x="766" y="734" on="1"/>
        <pt x="589" y="734" on="1"/>
        <pt x="370" y="133" on="1"/>
        <pt x="994" y="133" on="1"/>
        <pt x="994" y="0" on="1"/>
        <pt x="322" y="0" on="1"/>
        <pt x="300" y="-60" on="1"/>
        <pt x="157" y="-72" on="1"/>
        <pt x="184" y="0" on="1"/>
      </contour>
      <contour>
        <pt x="283" y="272" on="1"/>
        <pt x="452" y="734" on="1"/>
        <pt x="283" y="734" on="1"/>
      </contour>
      <contour>
        <pt x="497" y="858" on="1"/>
        <pt x="691" y="1391" on="1"/>
        <pt x="283" y="1391" on="1"/>
        <pt x="283" y="858" on="1"/>
      </contour>
    </TTGlyph>
    <TTGlyph name="Eta" xMin="135" yMin="0" xMax="1119" yMax="1515">
      <component glyphName="H" x="0" y="0" flags="0x204"/>
    </TTGlyph>
    <TTGlyph name="Etaacute" xMin="-258" yMin="0" xMax="1119" yMax="1531">
      <component glyphName="oxia" x="-439" y="53" flags="0x4"/>
      <component glyphName="H" x="0" y="0" flags="0x4"/>
    </TTGlyph>
    <TTGlyph name="Etaasper" xMin="-150" yMin="0" xMax="1119" yMax="1529">
      <component glyphName="commareversedabovecomb" x="-220" y="23" flags="0x4"/>
      <component glyphName="H" x="0" y="0" flags="0x4"/>
    </TTGlyph>
    <TTGlyph name="Etaasperacute" xMin="-530" yMin="0" xMax="1119" yMax="1532">
      <component glyphName="oxia" x="-448" y="53" flags="0x4"/>
      <component glyphName="commareversedabovecomb" x="-600" y="26" flags="0x4"/>
      <component glyphName="H" x="0" y="0" flags="0x4"/>
    </TTGlyph>
    <TTGlyph name="Etaaspergrave" xMin="-485" yMin="0" xMax="1119" yMax="1532">
      <component glyphName="varia" x="-485" y="51" flags="0x4"/>
      <component glyphName="commareversedabovecomb" x="-555" y="26" flags="0x4"/>
      <component glyphName="H" x="0" y="0" flags="0x4"/>
    </TTGlyph>
    <TTGlyph name="Etaaspertilde" xMin="-373" yMin="0" xMax="1119" yMax="1862">
      <component glyphName="asciitilde" x="-463" y="547" flags="0x4"/>
      <component glyphName="commareversedabovecomb" x="-214" y="31" flags="0x4"/>
      <component glyphName="H" x="0" y="0" flags="0x4"/>
    </TTGlyph>
    <TTGlyph name="Etagrave" xMin="-259" yMin="0" xMax="1119" yMax="1532">
      <component glyphName="varia" x="-488" y="51" flags="0x4"/>
      <component glyphName="H" x="0" y="0" flags="0x4"/>
    </TTGlyph>
    <TTGlyph name="Etaiotasub" xMin="135" yMin="-410" xMax="1119" yMax="1515">
      <component glyphName="ypogegrammenigreekcomb" x="402" y="-8" flags="0x4"/>
      <component glyphName="H" x="0" y="0" flags="0x4"/>
    </TTGlyph>
    <TTGlyph name="Etaiotasubasper" xMin="-150" yMin="-410" xMax="1119" yMax="1529">
      <component glyphName="ypogegrammenigreekcomb" x="400" y="-8" flags="0x4"/>
      <component glyphName="commareversedabovecomb" x="-220" y="23" flags="0x4"/>
      <component glyphName="H" x="0" y="0" flags="0x4"/>
    </TTGlyph>
    <TTGlyph name="Etaiotasubasperacute" xMin="-530" yMin="-410" xMax="1119" yMax="1532">
      <component glyphName="ypogegrammenigreekcomb" x="400" y="-8" flags="0x4"/>
      <component glyphName="oxia" x="-448" y="53" flags="0x4"/>
      <component glyphName="commareversedabovecomb" x="-600" y="26" flags="0x4"/>
      <component glyphName="H" x="0" y="0" flags="0x4"/>
    </TTGlyph>
    <TTGlyph name="Etaiotasubaspergrave" xMin="-485" yMin="-410" xMax="1119" yMax="1532">
      <component glyphName="ypogegrammenigreekcomb" x="400" y="-8" flags="0x4"/>
      <component glyphName="varia" x="-485" y="51" flags="0x4"/>
      <component glyphName="commareversedabovecomb" x="-555" y="26" flags="0x4"/>
      <component glyphName="H" x="0" y="0" flags="0x4"/>
    </TTGlyph>
    <TTGlyph name="Etaiotasubaspertilde" xMin="-373" yMin="-410" xMax="1119" yMax="1862">
      <component glyphName="ypogegrammenigreekcomb" x="400" y="-8" flags="0x4"/>
      <component glyphName="asciitilde" x="-463" y="547" flags="0x4"/>
      <component glyphName="commareversedabovecomb" x="-214" y="31" flags="0x4"/>
      <component glyphName="H" x="0" y="0" flags="0x4"/>
    </TTGlyph>
    <TTGlyph name="Etaiotasublenis" xMin="-171" yMin="-410" xMax="1119" yMax="1532">
      <component glyphName="ypogegrammenigreekcomb" x="400" y="-8" flags="0x4"/>
      <component glyphName="comma" x="-241" y="1382" flags="0x4"/>
      <component glyphName="H" x="0" y="0" flags="0x4"/>
    </TTGlyph>
    <TTGlyph name="Etaiotasublenisacute" xMin="-529" yMin="-410" xMax="1119" yMax="1555">
      <component glyphName="ypogegrammenigreekcomb" x="400" y="-8" flags="0x4"/>
      <component glyphName="psili_oxia" x="-596" y="-136" flags="0x4"/>
      <component glyphName="H" x="0" y="0" flags="0x4"/>
    </TTGlyph>
    <TTGlyph name="Etaiotasublenisgrave" xMin="-526" yMin="-410" xMax="1119" yMax="1556">
      <component glyphName="ypogegrammenigreekcomb" x="400" y="-8" flags="0x4"/>
      <component glyphName="psili_varia" x="-593" y="-136" flags="0x4"/>
      <component glyphName="H" x="0" y="0" flags="0x4"/>
    </TTGlyph>
    <TTGlyph name="Etaiotasublenistilde" xMin="-379" yMin="-410" xMax="1119" yMax="1862">
      <component glyphName="ypogegrammenigreekcomb" x="400" y="-8" flags="0x4"/>
      <component glyphName="asciitilde" x="-469" y="547" flags="0x4"/>
      <component glyphName="comma" x="-242" y="1390" flags="0x4"/>
      <component glyphName="H" x="0" y="0" flags="0x4"/>
    </TTGlyph>
    <TTGlyph name="Etalenis" xMin="-171" yMin="0" xMax="1119" yMax="1532">
      <component glyphName="comma" x="-241" y="1382" flags="0x4"/>
      <component glyphName="H" x="0" y="0" flags="0x4"/>
    </TTGlyph>
    <TTGlyph name="Etalenisacute" xMin="-529" yMin="0" xMax="1119" yMax="1555">
      <component glyphName="psili_oxia" x="-596" y="-136" flags="0x4"/>
      <component glyphName="H" x="0" y="0" flags="0x4"/>
    </TTGlyph>
    <TTGlyph name="Etalenisgrave" xMin="-526" yMin="0" xMax="1119" yMax="1556">
      <component glyphName="psili_varia" x="-593" y="-136" flags="0x4"/>
      <component glyphName="H" x="0" y="0" flags="0x4"/>
    </TTGlyph>
    <TTGlyph name="Etalenistilde" xMin="-379" yMin="0" xMax="1119" yMax="1862">
      <component glyphName="asciitilde" x="-469" y="547" flags="0x4"/>
      <component glyphName="comma" x="-242" y="1390" flags="0x4"/>
      <component glyphName="H" x="0" y="0" flags="0x4"/>
    </TTGlyph>
    <TTGlyph name="Etatonos" xMin="-210" yMin="0" xMax="1119" yMax="1522">
      <component glyphName="tonos" x="-390" y="42" flags="0x4"/>
      <component glyphName="H" x="0" y="0" flags="0x4"/>
    </TTGlyph>
    <TTGlyph name="Eth" xMin="9" yMin="0" xMax="1156" yMax="1515">
      <contour>
        <pt x="9" y="676" on="1"/>
        <pt x="9" y="812" on="1"/>
        <pt x="137" y="812" on="1"/>
        <pt x="137" y="1515" on="1"/>
        <pt x="498" y="1515" on="1"/>
        <pt x="653" y="1515" on="0"/>
        <pt x="889" y="1429" on="0"/>
        <pt x="1033" y="1288" on="0"/>
        <pt x="1078" y="1186" on="1"/>
        <pt x="1156" y="1008" on="0"/>
        <pt x="1156" y="745" on="1"/>
        <pt x="1156" y="351" on="0"/>
        <pt x="938" y="150" on="1"/>
        <pt x="777" y="0" on="0"/>
        <pt x="498" y="0" on="1"/>
        <pt x="137" y="0" on="1"/>
        <pt x="137" y="676" on="1"/>
      </contour>
      <contour>
        <pt x="285" y="124" on="1"/>
        <pt x="498" y="124" on="1"/>
        <pt x="754" y="124" on="0"/>
        <pt x="884" y="296" on="1"/>
        <pt x="1008" y="461" on="0"/>
        <pt x="1008" y="745" on="1"/>
        <pt x="1008" y="1179" on="0"/>
        <pt x="788" y="1319" on="1"/>
        <pt x="675" y="1391" on="0"/>
        <pt x="498" y="1391" on="1"/>
        <pt x="285" y="1391" on="1"/>
        <pt x="285" y="812" on="1"/>
        <pt x="609" y="812" on="1"/>
        <pt x="609" y="676" on="1"/>
        <pt x="285" y="676" on="1"/>
      </contour>
    </TTGlyph>
    <TTGlyph name="Etilde" xMin="135" yMin="0" xMax="994" yMax="1854">
      <component glyphName="asciitilde" x="152" y="539" flags="0x4"/>
      <component glyphName="E" x="0" y="0" flags="0x4"/>
    </TTGlyph>
    <TTGlyph name="Etildebelow" xMin="135" yMin="-322" xMax="994" yMax="1515">
      <component glyphName="asciitilde" x="170" y="-1434" flags="0x4"/>
      <component glyphName="E" x="0" y="0" flags="0x4"/>
    </TTGlyph>
    <TTGlyph name="Euro" xMin="40" yMin="-16" xMax="1179" yMax="1532">
      <contour>
        <pt x="40" y="572" on="1"/>
        <pt x="40" y="674" on="1"/>
        <pt x="156" y="674" on="1"/>
        <pt x="153" y="720" on="0"/>
        <pt x="153" y="776" on="0"/>
        <pt x="155" y="828" on="1"/>
        <pt x="40" y="828" on="1"/>
        <pt x="40" y="930" on="1"/>
        <pt x="164" y="930" on="1"/>
        <pt x="197" y="1179" on="0"/>
        <pt x="317" y="1346" on="1"/>
        <pt x="379" y="1433" on="0"/>
        <pt x="571" y="1532" on="0"/>
        <pt x="769" y="1532" on="0"/>
        <pt x="904" y="1483" on="0"/>
        <pt x="997" y="1405" on="0"/>
        <pt x="1072" y="1311" on="0"/>
        <pt x="1094" y="1264" on="1"/>
        <pt x="1141" y="1168" on="0"/>
        <pt x="1152" y="1114" on="1"/>
        <pt x="1158" y="1090" on="1"/>
        <pt x="1158" y="1089" on="1"/>
        <pt x="1008" y="1046" on="1"/>
        <pt x="1000" y="1084" on="1"/>
        <pt x="968" y="1246" on="0"/>
        <pt x="881" y="1334" on="1"/>
        <pt x="809" y="1408" on="0"/>
        <pt x="691" y="1408" on="1"/>
        <pt x="358" y="1408" on="0"/>
        <pt x="309" y="930" on="1"/>
        <pt x="691" y="930" on="1"/>
        <pt x="691" y="828" on="1"/>
        <pt x="302" y="828" on="1"/>
        <pt x="301" y="802" on="0"/>
        <pt x="301" y="720" on="0"/>
        <pt x="304" y="674" on="1"/>
        <pt x="691" y="674" on="1"/>
        <pt x="691" y="572" on="1"/>
        <pt x="311" y="572" on="1"/>
        <pt x="366" y="108" on="0"/>
        <pt x="691" y="108" on="1"/>
        <pt x="920" y="108" on="0"/>
        <pt x="1010" y="372" on="1"/>
        <pt x="1026" y="421" on="0"/>
        <pt x="1034" y="463" on="1"/>
        <pt x="1179" y="440" on="1"/>
        <pt x="1142" y="272" on="0"/>
        <pt x="1036" y="144" on="1"/>
        <pt x="903" y="-16" on="0"/>
        <pt x="691" y="-16" on="1"/>
        <pt x="413" y="-16" on="0"/>
        <pt x="272" y="232" on="1"/>
        <pt x="192" y="372" on="0"/>
        <pt x="165" y="572" on="1"/>
      </contour>
    </TTGlyph>
    <TTGlyph name="Ezh" xMin="70" yMin="-11" xMax="1041" yMax="1515">
      <contour>
        <pt x="70" y="237" on="1"/>
        <pt x="171" y="324" on="1"/>
        <pt x="171" y="324" on="0"/>
        <pt x="220" y="267" on="1"/>
        <pt x="282" y="196" on="0"/>
        <pt x="334" y="169" on="1"/>
        <pt x="442" y="113" on="0"/>
        <pt x="688" y="113" on="0"/>
        <pt x="893" y="326" on="0"/>
        <pt x="893" y="476" on="1"/>
        <pt x="893" y="624" on="0"/>
        <pt x="822" y="692" on="1"/>
        <pt x="771" y="741" on="0"/>
        <pt x="670" y="771" on="0"/>
        <pt x="603" y="783" on="0"/>
        <pt x="553" y="786" on="1"/>
        <pt x="474" y="792" on="0"/>
        <pt x="366" y="792" on="1"/>
        <pt x="366" y="933" on="1"/>
        <pt x="843" y="1388" on="1"/>
        <pt x="122" y="1388" on="1"/>
        <pt x="122" y="1515" on="1"/>
        <pt x="1041" y="1515" on="1"/>
        <pt x="1041" y="1392" on="1"/>
        <pt x="579" y="933" on="1"/>
        <pt x="578" y="932" on="0"/>
        <pt x="578" y="930" on="0"/>
        <pt x="577" y="930" on="1"/>
        <pt x="604" y="930" on="1"/>
        <pt x="733" y="930" on="0"/>
        <pt x="858" y="854" on="1"/>
        <pt x="968" y="787" on="0"/>
        <pt x="1014" y="656" on="1"/>
        <pt x="1041" y="580" on="0"/>
        <pt x="1041" y="486" on="1"/>
        <pt x="1041" y="258" on="0"/>
        <pt x="769" y="-11" on="0"/>
        <pt x="551" y="-11" on="1"/>
        <pt x="265" y="-11" on="0"/>
      </contour>
    </TTGlyph>
    <TTGlyph name="Ezhcaron" xMin="70" yMin="-11" xMax="1041" yMax="1941">
      <component glyphName="caron" x="263" y="522" flags="0x4"/>
      <component glyphName="Ezh" x="0" y="0" flags="0x4"/>
    </TTGlyph>
    <TTGlyph name="Ezhreversed" xMin="70" yMin="-11" xMax="1041" yMax="1515">
      <contour>
        <pt x="534" y="930" on="1"/>
        <pt x="532" y="932" on="0"/>
        <pt x="532" y="933" on="1"/>
        <pt x="70" y="1392" on="1"/>
        <pt x="70" y="1515" on="1"/>
        <pt x="989" y="1515" on="1"/>
        <pt x="989" y="1388" on="1"/>
        <pt x="268" y="1388" on="1"/>
        <pt x="745" y="933" on="1"/>
        <pt x="745" y="792" on="1"/>
        <pt x="558" y="792" on="0"/>
        <pt x="441" y="771" on="0"/>
        <pt x="364" y="748" on="0"/>
        <pt x="313" y="715" on="0"/>
        <pt x="264" y="668" on="0"/>
        <pt x="250" y="638" on="1"/>
        <pt x="218" y="571" on="0"/>
        <pt x="218" y="476" on="1"/>
        <pt x="218" y="326" on="0"/>
        <pt x="423" y="113" on="0"/>
        <pt x="560" y="113" on="1"/>
        <pt x="756" y="113" on="0"/>
        <pt x="892" y="267" on="1"/>
        <pt x="940" y="324" on="1"/>
        <pt x="1041" y="237" on="1"/>
        <pt x="846" y="-11" on="0"/>
        <pt x="560" y="-11" on="1"/>
        <pt x="342" y="-11" on="0"/>
        <pt x="70" y="258" on="0"/>
        <pt x="70" y="486" on="1"/>
        <pt x="70" y="674" on="0"/>
        <pt x="162" y="776" on="1"/>
        <pt x="248" y="872" on="0"/>
        <pt x="352" y="901" on="1"/>
        <pt x="454" y="930" on="0"/>
        <pt x="508" y="930" on="1"/>
      </contour>
    </TTGlyph>
    <TTGlyph name="F" xMin="135" yMin="0" xMax="956" yMax="1515">
      <contour>
        <pt x="135" y="0" on="1"/>
        <pt x="135" y="1515" on="1"/>
        <pt x="956" y="1515" on="1"/>
        <pt x="956" y="1391" on="1"/>
        <pt x="283" y="1391" on="1"/>
        <pt x="283" y="858" on="1"/>
        <pt x="766" y="858" on="1"/>
        <pt x="766" y="734" on="1"/>
        <pt x="283" y="734" on="1"/>
        <pt x="283" y="0" on="1"/>
      </contour>
    </TTGlyph>
    <TTGlyph name="Fdotaccent" xMin="135" yMin="0" xMax="956" yMax="1804">
      <component glyphName="dotaccent" x="546" y="1532" flags="0x4"/>
      <component glyphName="F" x="0" y="0" flags="0x4"/>
    </TTGlyph>
    <TTGlyph name="Fei" xMin="68" yMin="0" xMax="942" yMax="1515">
      <contour>
        <pt x="794" y="732" on="1"/>
        <pt x="794" y="1515" on="1"/>
        <pt x="942" y="1515" on="1"/>
        <pt x="942" y="0" on="1"/>
        <pt x="794" y="0" on="1"/>
        <pt x="794" y="553" on="1"/>
        <pt x="756" y="452" on="0"/>
        <pt x="696" y="390" on="1"/>
        <pt x="587" y="276" on="0"/>
        <pt x="440" y="276" on="1"/>
        <pt x="378" y="276" on="0"/>
        <pt x="247" y="348" on="0"/>
        <pt x="138" y="468" on="0"/>
        <pt x="68" y="647" on="0"/>
        <pt x="68" y="831" on="0"/>
        <pt x="109" y="1010" on="0"/>
        <pt x="174" y="1157" on="0"/>
        <pt x="253" y="1295" on="0"/>
        <pt x="292" y="1346" on="1"/>
        <pt x="364" y="1436" on="1"/>
        <pt x="397" y="1475" on="0"/>
        <pt x="418" y="1495" on="1"/>
        <pt x="438" y="1515" on="1"/>
        <pt x="586" y="1515" on="1"/>
        <pt x="387" y="1316" on="0"/>
        <pt x="288" y="1081" on="1"/>
        <pt x="216" y="908" on="0"/>
        <pt x="216" y="589" on="0"/>
        <pt x="378" y="400" on="0"/>
        <pt x="494" y="400" on="1"/>
        <pt x="608" y="400" on="0"/>
        <pt x="716" y="578" on="1"/>
        <pt x="761" y="652" on="0"/>
      </contour>
    </TTGlyph>
    <TTGlyph name="Fhook" xMin="-41" yMin="-176" xMax="956" yMax="1515">
      <contour>
        <pt x="-41" y="-155" on="1"/>
        <pt x="-36" y="-53" on="1"/>
        <pt x="8" y="-73" on="0"/>
        <pt x="63" y="-73" on="1"/>
        <pt x="135" y="-73" on="0"/>
        <pt x="135" y="0" on="1"/>
        <pt x="135" y="1515" on="1"/>
        <pt x="956" y="1515" on="1"/>
        <pt x="956" y="1391" on="1"/>
        <pt x="283" y="1391" on="1"/>
        <pt x="283" y="858" on="1"/>
        <pt x="766" y="858" on="1"/>
        <pt x="766" y="734" on="1"/>
        <pt x="283" y="734" on="1"/>
        <pt x="283" y="0" on="1"/>
        <pt x="283" y="-92" on="0"/>
        <pt x="182" y="-176" on="0"/>
        <pt x="62" y="-176" on="1"/>
        <pt x="7" y="-176" on="0"/>
      </contour>
    </TTGlyph>
    <TTGlyph name="Fita" xMin="80" yMin="-16" xMax="1183" yMax="1532">
      <contour>
        <pt x="1104" y="1184" on="1"/>
        <pt x="1183" y="992" on="0"/>
        <pt x="1183" y="752" on="1"/>
        <pt x="1183" y="313" on="0"/>
        <pt x="956" y="100" on="1"/>
        <pt x="833" y="-16" on="0"/>
        <pt x="641" y="-16" on="1"/>
        <pt x="530" y="-16" on="0"/>
        <pt x="342" y="73" on="0"/>
        <pt x="213" y="222" on="0"/>
        <pt x="122" y="421" on="0"/>
        <pt x="80" y="638" on="0"/>
        <pt x="80" y="868" on="0"/>
        <pt x="118" y="1086" on="0"/>
        <pt x="204" y="1290" on="0"/>
        <pt x="331" y="1441" on="0"/>
        <pt x="523" y="1532" on="0"/>
        <pt x="754" y="1532" on="0"/>
        <pt x="939" y="1439" on="0"/>
        <pt x="1062" y="1286" on="0"/>
      </contour>
      <contour>
        <pt x="1035" y="734" on="1"/>
        <pt x="228" y="734" on="1"/>
        <pt x="231" y="404" on="0"/>
        <pt x="370" y="233" on="1"/>
        <pt x="471" y="108" on="0"/>
        <pt x="641" y="108" on="1"/>
        <pt x="729" y="108" on="0"/>
        <pt x="867" y="184" on="0"/>
        <pt x="953" y="305" on="0"/>
        <pt x="982" y="389" on="1"/>
        <pt x="1033" y="541" on="0"/>
      </contour>
      <contour>
        <pt x="232" y="858" on="1"/>
        <pt x="1031" y="858" on="1"/>
        <pt x="1002" y="1268" on="0"/>
        <pt x="784" y="1376" on="1"/>
        <pt x="720" y="1408" on="0"/>
        <pt x="560" y="1408" on="0"/>
        <pt x="428" y="1350" on="0"/>
        <pt x="337" y="1251" on="0"/>
        <pt x="305" y="1180" on="1"/>
        <pt x="244" y="1045" on="0"/>
      </contour>
    </TTGlyph>
    <TTGlyph name="G" xMin="80" yMin="-16" xMax="1118" yMax="1532">
      <contour>
        <pt x="316" y="1416" on="1"/>
        <pt x="444" y="1532" on="0"/>
        <pt x="636" y="1532" on="1"/>
        <pt x="777" y="1532" on="0"/>
        <pt x="901" y="1447" on="1"/>
        <pt x="1046" y="1348" on="0"/>
        <pt x="1112" y="1099" on="1"/>
        <pt x="967" y="1063" on="1"/>
        <pt x="966" y="1070" on="0"/>
        <pt x="963" y="1095" on="0"/>
        <pt x="944" y="1167" on="0"/>
        <pt x="918" y="1232" on="0"/>
        <pt x="865" y="1311" on="0"/>
        <pt x="832" y="1340" on="1"/>
        <pt x="756" y="1408" on="0"/>
        <pt x="524" y="1408" on="0"/>
        <pt x="360" y="1300" on="0"/>
        <pt x="315" y="1206" on="1"/>
        <pt x="228" y="1026" on="0"/>
        <pt x="228" y="768" on="1"/>
        <pt x="228" y="460" on="0"/>
        <pt x="308" y="308" on="1"/>
        <pt x="413" y="108" on="0"/>
        <pt x="639" y="108" on="1"/>
        <pt x="920" y="108" on="0"/>
        <pt x="964" y="432" on="1"/>
        <pt x="973" y="502" on="0"/>
        <pt x="973" y="591" on="1"/>
        <pt x="636" y="591" on="1"/>
        <pt x="636" y="715" on="1"/>
        <pt x="1118" y="715" on="1"/>
        <pt x="1118" y="0" on="1"/>
        <pt x="998" y="0" on="1"/>
        <pt x="998" y="192" on="1"/>
        <pt x="885" y="36" on="0"/>
        <pt x="759" y="0" on="1"/>
        <pt x="703" y="-16" on="0"/>
        <pt x="519" y="-16" on="0"/>
        <pt x="328" y="76" on="0"/>
        <pt x="202" y="228" on="0"/>
        <pt x="117" y="433" on="0"/>
        <pt x="80" y="651" on="0"/>
        <pt x="80" y="862" on="0"/>
        <pt x="108" y="1044" on="0"/>
        <pt x="164" y="1216" on="0"/>
        <pt x="257" y="1361" on="0"/>
      </contour>
    </TTGlyph>
    <TTGlyph name="Gacute" xMin="80" yMin="-16" xMax="1118" yMax="2014">
      <component glyphName="acute" x="448" y="559" flags="0x4"/>
      <component glyphName="G" x="0" y="0" flags="0x4"/>
    </TTGlyph>
    <TTGlyph name="Gamma" xMin="135" yMin="0" xMax="955" yMax="1515">
      <component glyphName="Ghe" x="0" y="0" flags="0x204"/>
    </TTGlyph>
    <TTGlyph name="Gammalatin" xMin="25" yMin="-11" xMax="911" yMax="1514">
      <contour>
        <pt x="467" y="460" on="1"/>
        <pt x="396" y="460" on="0"/>
        <pt x="299" y="341" on="0"/>
        <pt x="299" y="194" on="0"/>
        <pt x="393" y="107" on="0"/>
        <pt x="541" y="107" on="0"/>
        <pt x="635" y="194" on="0"/>
        <pt x="635" y="341" on="0"/>
        <pt x="538" y="460" on="0"/>
      </contour>
      <contour>
        <pt x="42" y="1514" on="1"/>
        <pt x="180" y="1514" on="1"/>
        <pt x="161" y="1495" on="0"/>
        <pt x="242" y="1168" on="0"/>
        <pt x="312" y="1000" on="1"/>
        <pt x="467" y="666" on="1"/>
        <pt x="623" y="1000" on="1"/>
        <pt x="711" y="1206" on="0"/>
        <pt x="753" y="1400" on="1"/>
        <pt x="764" y="1454" on="0"/>
        <pt x="764" y="1509" on="0"/>
        <pt x="755" y="1514" on="1"/>
        <pt x="893" y="1514" on="1"/>
        <pt x="911" y="1498" on="0"/>
        <pt x="833" y="1169" on="0"/>
        <pt x="767" y="1000" on="1"/>
        <pt x="570" y="550" on="1"/>
        <pt x="643" y="502" on="0"/>
        <pt x="754" y="338" on="0"/>
        <pt x="754" y="261" on="1"/>
        <pt x="754" y="144" on="0"/>
        <pt x="588" y="-11" on="0"/>
        <pt x="348" y="-11" on="0"/>
        <pt x="182" y="144" on="0"/>
        <pt x="182" y="261" on="1"/>
        <pt x="182" y="338" on="0"/>
        <pt x="293" y="502" on="0"/>
        <pt x="366" y="550" on="1"/>
        <pt x="170" y="1000" on="1"/>
        <pt x="104" y="1170" on="0"/>
        <pt x="25" y="1499" on="0"/>
      </contour>
    </TTGlyph>
    <TTGlyph name="Gangia" xMin="25" yMin="0" xMax="1347" yMax="1529">
      <contour>
        <pt x="761" y="750" on="1"/>
        <pt x="1106" y="142" on="1"/>
        <pt x="1268" y="142" on="1"/>
        <pt x="1268" y="0" on="1"/>
        <pt x="105" y="0" on="1"/>
        <pt x="105" y="142" on="1"/>
        <pt x="236" y="142" on="1"/>
        <pt x="593" y="773" on="1"/>
        <pt x="543" y="861" on="0"/>
        <pt x="486" y="972" on="1"/>
        <pt x="394" y="1150" on="1"/>
        <pt x="305" y="1326" on="0"/>
        <pt x="226" y="1405" on="0"/>
        <pt x="163" y="1405" on="0"/>
        <pt x="105" y="1317" on="1"/>
        <pt x="25" y="1381" on="1"/>
        <pt x="26" y="1382" on="0"/>
        <pt x="39" y="1406" on="0"/>
        <pt x="50" y="1423" on="0"/>
        <pt x="72" y="1454" on="0"/>
        <pt x="92" y="1476" on="0"/>
        <pt x="124" y="1501" on="0"/>
        <pt x="140" y="1510" on="1"/>
        <pt x="177" y="1529" on="0"/>
        <pt x="243" y="1529" on="0"/>
        <pt x="281" y="1518" on="0"/>
        <pt x="321" y="1487" on="0"/>
        <pt x="354" y="1454" on="0"/>
        <pt x="402" y="1384" on="0"/>
        <pt x="421" y="1353" on="1"/>
        <pt x="686" y="881" on="1"/>
        <pt x="926" y="1312" on="0"/>
        <pt x="970" y="1384" on="0"/>
        <pt x="1018" y="1454" on="0"/>
        <pt x="1051" y="1487" on="0"/>
        <pt x="1071" y="1502" on="1"/>
        <pt x="1105" y="1529" on="0"/>
        <pt x="1174" y="1529" on="0"/>
        <pt x="1216" y="1518" on="0"/>
        <pt x="1248" y="1501" on="0"/>
        <pt x="1280" y="1476" on="0"/>
        <pt x="1300" y="1454" on="0"/>
        <pt x="1322" y="1423" on="0"/>
        <pt x="1333" y="1406" on="0"/>
        <pt x="1346" y="1382" on="0"/>
        <pt x="1347" y="1381" on="1"/>
        <pt x="1267" y="1317" on="1"/>
        <pt x="1252" y="1345" on="0"/>
        <pt x="1197" y="1405" on="0"/>
        <pt x="1146" y="1405" on="0"/>
        <pt x="1083" y="1341" on="0"/>
        <pt x="1003" y="1205" on="0"/>
        <pt x="966" y="1135" on="1"/>
        <pt x="806" y="830" on="0"/>
      </contour>
      <contour>
        <pt x="392" y="142" on="1"/>
        <pt x="950" y="142" on="1"/>
        <pt x="671" y="636" on="1"/>
      </contour>
    </TTGlyph>
    <TTGlyph name="Gbar" xMin="80" yMin="-16" xMax="1221" yMax="1532">
      <contour>
        <pt x="697" y="378" on="1"/>
        <pt x="697" y="502" on="1"/>
        <pt x="970" y="502" on="1"/>
        <pt x="973" y="546" on="0"/>
        <pt x="973" y="591" on="1"/>
        <pt x="636" y="591" on="1"/>
        <pt x="636" y="715" on="1"/>
        <pt x="1118" y="715" on="1"/>
        <pt x="1118" y="502" on="1"/>
        <pt x="1221" y="502" on="1"/>
        <pt x="1221" y="378" on="1"/>
        <pt x="1118" y="378" on="1"/>
        <pt x="1118" y="0" on="1"/>
        <pt x="998" y="0" on="1"/>
        <pt x="998" y="192" on="1"/>
        <pt x="885" y="36" on="0"/>
        <pt x="759" y="0" on="1"/>
        <pt x="703" y="-16" on="0"/>
        <pt x="519" y="-16" on="0"/>
        <pt x="328" y="76" on="0"/>
        <pt x="202" y="228" on="0"/>
        <pt x="160" y="330" on="1"/>
        <pt x="80" y="522" on="0"/>
        <pt x="80" y="768" on="1"/>
        <pt x="80" y="958" on="0"/>
        <pt x="136" y="1130" on="1"/>
        <pt x="192" y="1301" on="0"/>
        <pt x="316" y="1416" on="1"/>
        <pt x="444" y="1532" on="0"/>
        <pt x="636" y="1532" on="1"/>
        <pt x="777" y="1532" on="0"/>
        <pt x="901" y="1447" on="1"/>
        <pt x="1046" y="1348" on="0"/>
        <pt x="1112" y="1099" on="1"/>
        <pt x="967" y="1063" on="1"/>
        <pt x="966" y="1070" on="0"/>
        <pt x="963" y="1095" on="0"/>
        <pt x="944" y="1167" on="0"/>
        <pt x="918" y="1232" on="0"/>
        <pt x="865" y="1311" on="0"/>
        <pt x="832" y="1340" on="1"/>
        <pt x="756" y="1408" on="0"/>
        <pt x="524" y="1408" on="0"/>
        <pt x="360" y="1300" on="0"/>
        <pt x="315" y="1206" on="1"/>
        <pt x="228" y="1026" on="0"/>
        <pt x="228" y="768" on="1"/>
        <pt x="228" y="460" on="0"/>
        <pt x="308" y="308" on="1"/>
        <pt x="413" y="108" on="0"/>
        <pt x="639" y="108" on="1"/>
        <pt x="775" y="108" on="0"/>
        <pt x="925" y="247" on="0"/>
        <pt x="954" y="378" on="1"/>
      </contour>
    </TTGlyph>
    <TTGlyph name="Gbreve" xMin="80" yMin="-16" xMax="1118" yMax="1829">
      <component glyphName="breve" x="371" y="539" flags="0x4"/>
      <component glyphName="G" x="0" y="0" flags="0x4"/>
    </TTGlyph>
    <TTGlyph name="Gcaron" xMin="80" yMin="-16" xMax="1118" yMax="1941">
      <component glyphName="caron" x="324" y="522" flags="0x4"/>
      <component glyphName="G" x="0" y="0" flags="0x4"/>
    </TTGlyph>
    <TTGlyph name="Gcircumflex" xMin="80" yMin="-16" xMax="1118" yMax="1941">
      <component glyphName="asciicircum" x="324" y="522" flags="0x4"/>
      <component glyphName="G" x="0" y="0" flags="0x4"/>
    </TTGlyph>
    <TTGlyph name="Gcommaaccent" xMin="80" yMin="-538" xMax="1118" yMax="1532">
      <component glyphName="comma" x="480" y="-288" flags="0x4"/>
      <component glyphName="G" x="0" y="0" flags="0x4"/>
    </TTGlyph>
    <TTGlyph name="Gdotaccent" xMin="80" yMin="-16" xMax="1118" yMax="1804">
      <component glyphName="dotaccent" x="636" y="1532" flags="0x4"/>
      <component glyphName="G" x="0" y="0" flags="0x4"/>
    </TTGlyph>
    <TTGlyph name="Ghe" xMin="135" yMin="0" xMax="955" yMax="1515">
      <contour>
        <pt x="135" y="1515" on="1"/>
        <pt x="955" y="1515" on="1"/>
        <pt x="955" y="1373" on="1"/>
        <pt x="283" y="1373" on="1"/>
        <pt x="283" y="0" on="1"/>
        <pt x="135" y="0" on="1"/>
      </contour>
    </TTGlyph>
    <TTGlyph name="Ghebar" xMin="-87" yMin="0" xMax="955" yMax="1515">
      <contour>
        <pt x="135" y="686" on="1"/>
        <pt x="-87" y="686" on="1"/>
        <pt x="-87" y="810" on="1"/>
        <pt x="135" y="810" on="1"/>
        <pt x="135" y="1515" on="1"/>
        <pt x="955" y="1515" on="1"/>
        <pt x="955" y="1373" on="1"/>
        <pt x="283" y="1373" on="1"/>
        <pt x="283" y="810" on="1"/>
        <pt x="505" y="810" on="1"/>
        <pt x="505" y="686" on="1"/>
        <pt x="283" y="686" on="1"/>
        <pt x="283" y="0" on="1"/>
        <pt x="135" y="0" on="1"/>
      </contour>
    </TTGlyph>
    <TTGlyph name="Ghebarhook" xMin="-87" yMin="-333" xMax="955" yMax="1515">
      <contour>
        <pt x="135" y="686" on="1"/>
        <pt x="-87" y="686" on="1"/>
        <pt x="-87" y="810" on="1"/>
        <pt x="135" y="810" on="1"/>
        <pt x="135" y="1515" on="1"/>
        <pt x="955" y="1515" on="1"/>
        <pt x="955" y="1373" on="1"/>
        <pt x="283" y="1373" on="1"/>
        <pt x="283" y="810" on="1"/>
        <pt x="505" y="810" on="1"/>
        <pt x="505" y="686" on="1"/>
        <pt x="283" y="686" on="1"/>
        <pt x="283" y="124" on="1"/>
        <pt x="505" y="124" on="1"/>
        <pt x="505" y="0" on="1"/>
        <pt x="505" y="-207" on="0"/>
        <pt x="433" y="-271" on="1"/>
        <pt x="406" y="-295" on="0"/>
        <pt x="365" y="-319" on="0"/>
        <pt x="326" y="-325" on="1"/>
        <pt x="274" y="-333" on="0"/>
        <pt x="182" y="-333" on="1"/>
        <pt x="174" y="-221" on="1"/>
        <pt x="277" y="-221" on="0"/>
        <pt x="357" y="-116" on="0"/>
        <pt x="357" y="0" on="1"/>
        <pt x="135" y="0" on="1"/>
      </contour>
    </TTGlyph>
    <TTGlyph name="Ghedescender" xMin="135" yMin="-258" xMax="955" yMax="1515">
      <contour>
        <pt x="283" y="1373" on="1"/>
        <pt x="283" y="133" on="1"/>
        <pt x="435" y="133" on="1"/>
        <pt x="435" y="0" on="1"/>
        <pt x="408" y="-96" on="0"/>
        <pt x="408" y="-258" on="1"/>
        <pt x="287" y="-258" on="1"/>
        <pt x="267" y="-36" on="0"/>
        <pt x="283" y="0" on="1"/>
        <pt x="135" y="0" on="1"/>
        <pt x="135" y="1515" on="1"/>
        <pt x="955" y="1515" on="1"/>
        <pt x="955" y="1373" on="1"/>
      </contour>
    </TTGlyph>
    <TTGlyph name="Ghehook" xMin="135" yMin="-335" xMax="1009" yMax="1515">
      <contour>
        <pt x="135" y="1515" on="1"/>
        <pt x="1009" y="1515" on="1"/>
        <pt x="1009" y="1373" on="1"/>
        <pt x="283" y="1373" on="1"/>
        <pt x="283" y="888" on="1"/>
        <pt x="360" y="963" on="0"/>
        <pt x="582" y="1072" on="0"/>
        <pt x="741" y="1072" on="0"/>
        <pt x="852" y="1035" on="0"/>
        <pt x="949" y="966" on="0"/>
        <pt x="1009" y="851" on="0"/>
        <pt x="1009" y="780" on="1"/>
        <pt x="1009" y="-2" on="1"/>
        <pt x="1009" y="-209" on="0"/>
        <pt x="937" y="-273" on="1"/>
        <pt x="910" y="-297" on="0"/>
        <pt x="869" y="-321" on="0"/>
        <pt x="830" y="-327" on="1"/>
        <pt x="778" y="-335" on="0"/>
        <pt x="686" y="-335" on="1"/>
        <pt x="678" y="-223" on="1"/>
        <pt x="775" y="-223" on="0"/>
        <pt x="861" y="-153" on="0"/>
        <pt x="861" y="-2" on="1"/>
        <pt x="861" y="780" on="1"/>
        <pt x="861" y="830" on="0"/>
        <pt x="818" y="870" on="1"/>
        <pt x="736" y="948" on="0"/>
        <pt x="547" y="948" on="0"/>
        <pt x="345" y="843" on="0"/>
        <pt x="283" y="775" on="1"/>
        <pt x="283" y="0" on="1"/>
        <pt x="135" y="0" on="1"/>
      </contour>
    </TTGlyph>
    <TTGlyph name="Gheupturn" xMin="135" yMin="0" xMax="1034" yMax="1764">
      <contour>
        <pt x="135" y="1515" on="1"/>
        <pt x="885" y="1515" on="1"/>
        <pt x="885" y="1764" on="1"/>
        <pt x="1034" y="1764" on="1"/>
        <pt x="1034" y="1373" on="1"/>
        <pt x="283" y="1373" on="1"/>
        <pt x="283" y="0" on="1"/>
        <pt x="135" y="0" on="1"/>
      </contour>
    </TTGlyph>
    <TTGlyph name="Ghook" xMin="80" yMin="-16" xMax="1244" yMax="1561">
      <contour>
        <pt x="316" y="1416" on="1"/>
        <pt x="444" y="1532" on="0"/>
        <pt x="636" y="1532" on="1"/>
        <pt x="896" y="1532" on="0"/>
        <pt x="1036" y="1290" on="1"/>
        <pt x="1112" y="1325" on="0"/>
        <pt x="1148" y="1375" on="0"/>
        <pt x="1137" y="1428" on="0"/>
        <pt x="1075" y="1488" on="0"/>
        <pt x="1056" y="1498" on="1"/>
        <pt x="1137" y="1561" on="1"/>
        <pt x="1170" y="1541" on="0"/>
        <pt x="1244" y="1454" on="0"/>
        <pt x="1244" y="1366" on="0"/>
        <pt x="1198" y="1296" on="0"/>
        <pt x="1162" y="1271" on="1"/>
        <pt x="1111" y="1235" on="0"/>
        <pt x="1075" y="1218" on="1"/>
        <pt x="1069" y="1223" on="1"/>
        <pt x="1096" y="1161" on="0"/>
        <pt x="1112" y="1099" on="1"/>
        <pt x="967" y="1063" on="1"/>
        <pt x="966" y="1070" on="0"/>
        <pt x="963" y="1095" on="0"/>
        <pt x="944" y="1167" on="0"/>
        <pt x="918" y="1232" on="0"/>
        <pt x="865" y="1311" on="0"/>
        <pt x="832" y="1340" on="1"/>
        <pt x="756" y="1408" on="0"/>
        <pt x="524" y="1408" on="0"/>
        <pt x="360" y="1300" on="0"/>
        <pt x="315" y="1206" on="1"/>
        <pt x="228" y="1026" on="0"/>
        <pt x="228" y="768" on="1"/>
        <pt x="228" y="460" on="0"/>
        <pt x="308" y="308" on="1"/>
        <pt x="413" y="108" on="0"/>
        <pt x="639" y="108" on="1"/>
        <pt x="920" y="108" on="0"/>
        <pt x="964" y="432" on="1"/>
        <pt x="973" y="502" on="0"/>
        <pt x="973" y="591" on="1"/>
        <pt x="636" y="591" on="1"/>
        <pt x="636" y="715" on="1"/>
        <pt x="1118" y="715" on="1"/>
        <pt x="1118" y="0" on="1"/>
        <pt x="998" y="0" on="1"/>
        <pt x="998" y="192" on="1"/>
        <pt x="885" y="36" on="0"/>
        <pt x="759" y="0" on="1"/>
        <pt x="703" y="-16" on="0"/>
        <pt x="519" y="-16" on="0"/>
        <pt x="328" y="76" on="0"/>
        <pt x="202" y="228" on="0"/>
        <pt x="117" y="433" on="0"/>
        <pt x="80" y="651" on="0"/>
        <pt x="80" y="862" on="0"/>
        <pt x="108" y="1044" on="0"/>
        <pt x="164" y="1216" on="0"/>
        <pt x="257" y="1361" on="0"/>
      </contour>
    </TTGlyph>
    <TTGlyph name="Gje" xMin="135" yMin="0" xMax="955" yMax="2014">
      <component glyphName="acute" x="357" y="559" flags="0x4"/>
      <component glyphName="Ghe" x="0" y="0" flags="0x4"/>
    </TTGlyph>
    <TTGlyph name="Glottalstop" xMin="93" yMin="0" xMax="772" yMax="1515">
      <contour>
        <pt x="420" y="0" on="1"/>
        <pt x="288" y="0" on="1"/>
        <pt x="288" y="469" on="1"/>
        <pt x="288" y="593" on="0"/>
        <pt x="411" y="738" on="1"/>
        <pt x="411" y="738" on="0"/>
        <pt x="513" y="859" on="1"/>
        <pt x="636" y="1004" on="0"/>
        <pt x="636" y="1236" on="0"/>
        <pt x="498" y="1386" on="0"/>
        <pt x="357" y="1386" on="0"/>
        <pt x="274" y="1355" on="0"/>
        <pt x="227" y="1303" on="0"/>
        <pt x="193" y="1246" on="1"/>
        <pt x="93" y="1314" on="1"/>
        <pt x="146" y="1414" on="0"/>
        <pt x="296" y="1515" on="0"/>
        <pt x="526" y="1515" on="0"/>
        <pt x="687" y="1405" on="0"/>
        <pt x="772" y="1229" on="0"/>
        <pt x="772" y="1047" on="0"/>
        <pt x="699" y="888" on="0"/>
        <pt x="648" y="826" on="1"/>
        <pt x="544" y="704" on="1"/>
        <pt x="420" y="563" on="0"/>
        <pt x="420" y="469" on="1"/>
      </contour>
    </TTGlyph>
    <TTGlyph name="Gmacron" xMin="80" yMin="-16" xMax="1118" yMax="1746">
      <component glyphName="macron" x="282" y="423" flags="0x4"/>
      <component glyphName="G" x="0" y="0" flags="0x4"/>
    </TTGlyph>
    <TTGlyph name="H" xMin="135" yMin="0" xMax="1119" yMax="1515">
      <contour>
        <pt x="135" y="0" on="1"/>
        <pt x="135" y="1515" on="1"/>
        <pt x="283" y="1515" on="1"/>
        <pt x="283" y="858" on="1"/>
        <pt x="971" y="858" on="1"/>
        <pt x="971" y="1515" on="1"/>
        <pt x="1119" y="1515" on="1"/>
        <pt x="1119" y="0" on="1"/>
        <pt x="971" y="0" on="1"/>
        <pt x="971" y="734" on="1"/>
        <pt x="283" y="734" on="1"/>
        <pt x="283" y="0" on="1"/>
      </contour>
    </TTGlyph>
    <TTGlyph name="Haabkhasian" xMin="80" yMin="-16" xMax="1457" yMax="1532">
      <contour>
        <pt x="641" y="-16" on="1"/>
        <pt x="530" y="-16" on="0"/>
        <pt x="342" y="73" on="0"/>
        <pt x="213" y="222" on="0"/>
        <pt x="168" y="322" on="1"/>
        <pt x="80" y="513" on="0"/>
        <pt x="80" y="752" on="1"/>
        <pt x="80" y="996" on="0"/>
        <pt x="161" y="1188" on="1"/>
        <pt x="252" y="1403" on="0"/>
        <pt x="427" y="1486" on="1"/>
        <pt x="523" y="1532" on="0"/>
        <pt x="641" y="1532" on="1"/>
        <pt x="641" y="1408" on="1"/>
        <pt x="384" y="1408" on="0"/>
        <pt x="284" y="1130" on="1"/>
        <pt x="228" y="973" on="0"/>
        <pt x="228" y="620" on="0"/>
        <pt x="275" y="395" on="0"/>
        <pt x="370" y="213" on="0"/>
        <pt x="533" y="108" on="0"/>
        <pt x="788" y="108" on="0"/>
        <pt x="914" y="176" on="1"/>
        <pt x="792" y="289" on="0"/>
        <pt x="672" y="532" on="0"/>
        <pt x="672" y="718" on="1"/>
        <pt x="672" y="1052" on="0"/>
        <pt x="873" y="1393" on="0"/>
        <pt x="1223" y="1393" on="0"/>
        <pt x="1422" y="1053" on="0"/>
        <pt x="1422" y="718" on="1"/>
        <pt x="1422" y="531" on="0"/>
        <pt x="1303" y="289" on="0"/>
        <pt x="1182" y="176" on="1"/>
        <pt x="1310" y="108" on="0"/>
        <pt x="1457" y="108" on="1"/>
        <pt x="1457" y="-16" on="1"/>
        <pt x="1238" y="-16" on="0"/>
        <pt x="1049" y="92" on="1"/>
        <pt x="864" y="-16" on="0"/>
      </contour>
      <contour>
        <pt x="1049" y="260" on="1"/>
        <pt x="1050" y="261" on="0"/>
        <pt x="1093" y="299" on="0"/>
        <pt x="1102" y="308" on="1"/>
        <pt x="1133" y="339" on="1"/>
        <pt x="1156" y="362" on="0"/>
        <pt x="1168" y="380" on="1"/>
        <pt x="1200" y="427" on="1"/>
        <pt x="1224" y="464" on="0"/>
        <pt x="1245" y="526" on="1"/>
        <pt x="1275" y="618" on="0"/>
        <pt x="1275" y="718" on="1"/>
        <pt x="1275" y="991" on="0"/>
        <pt x="1145" y="1269" on="0"/>
        <pt x="954" y="1269" on="0"/>
        <pt x="820" y="990" on="0"/>
        <pt x="820" y="718" on="1"/>
        <pt x="820" y="512" on="0"/>
        <pt x="934" y="372" on="1"/>
        <pt x="977" y="320" on="0"/>
        <pt x="1046" y="263" on="0"/>
      </contour>
    </TTGlyph>
    <TTGlyph name="Habar" xMin="25" yMin="0" xMax="1058" yMax="1515">
      <contour>
        <pt x="92" y="750" on="1"/>
        <pt x="92" y="862" on="1"/>
        <pt x="412" y="862" on="1"/>
        <pt x="43" y="1515" on="1"/>
        <pt x="197" y="1515" on="1"/>
        <pt x="556" y="881" on="1"/>
        <pt x="904" y="1515" on="1"/>
        <pt x="1058" y="1515" on="1"/>
        <pt x="693" y="862" on="1"/>
        <pt x="1020" y="862" on="1"/>
        <pt x="1020" y="750" on="1"/>
        <pt x="630" y="750" on="1"/>
        <pt x="1055" y="0" on="1"/>
        <pt x="899" y="0" on="1"/>
        <pt x="540" y="636" on="1"/>
        <pt x="181" y="0" on="1"/>
        <pt x="25" y="0" on="1"/>
        <pt x="449" y="750" on="1"/>
      </contour>
    </TTGlyph>
    <TTGlyph name="Hadescender" xMin="25" yMin="-258" xMax="1129" yMax="1515">
      <contour>
        <pt x="980" y="133" on="1"/>
        <pt x="1129" y="133" on="1"/>
        <pt x="1129" y="0" on="1"/>
        <pt x="1102" y="-96" on="0"/>
        <pt x="1102" y="-258" on="1"/>
        <pt x="981" y="-258" on="1"/>
        <pt x="961" y="-31" on="0"/>
        <pt x="978" y="0" on="1"/>
        <pt x="899" y="0" on="1"/>
        <pt x="540" y="636" on="1"/>
        <pt x="181" y="0" on="1"/>
        <pt x="25" y="0" on="1"/>
        <pt x="462" y="773" on="1"/>
        <pt x="43" y="1515" on="1"/>
        <pt x="197" y="1515" on="1"/>
        <pt x="556" y="881" on="1"/>
        <pt x="904" y="1515" on="1"/>
        <pt x="1058" y="1515" on="1"/>
        <pt x="630" y="750" on="1"/>
      </contour>
    </TTGlyph>
    <TTGlyph name="Hahook" xMin="25" yMin="-333" xMax="1058" yMax="1515">
      <contour>
        <pt x="540" y="636" on="1"/>
        <pt x="181" y="0" on="1"/>
        <pt x="25" y="0" on="1"/>
        <pt x="462" y="773" on="1"/>
        <pt x="43" y="1515" on="1"/>
        <pt x="197" y="1515" on="1"/>
        <pt x="556" y="881" on="1"/>
        <pt x="904" y="1515" on="1"/>
        <pt x="1058" y="1515" on="1"/>
        <pt x="630" y="750" on="1"/>
        <pt x="660" y="697" on="0"/>
        <pt x="744" y="570" on="1"/>
        <pt x="886" y="350" on="1"/>
        <pt x="945" y="255" on="0"/>
        <pt x="1046" y="5" on="0"/>
        <pt x="1046" y="-147" on="0"/>
        <pt x="1003" y="-234" on="0"/>
        <pt x="936" y="-286" on="0"/>
        <pt x="892" y="-303" on="1"/>
        <pt x="814" y="-333" on="0"/>
        <pt x="728" y="-333" on="1"/>
        <pt x="720" y="-221" on="1"/>
        <pt x="818" y="-221" on="0"/>
        <pt x="866" y="-149" on="1"/>
        <pt x="886" y="-120" on="0"/>
        <pt x="886" y="7" on="0"/>
        <pt x="801" y="218" on="0"/>
        <pt x="752" y="298" on="1"/>
        <pt x="634" y="487" on="1"/>
        <pt x="564" y="595" on="0"/>
      </contour>
    </TTGlyph>
    <TTGlyph name="Hard" xMin="-118" yMin="0" xMax="1068" yMax="1515">
      <contour>
        <pt x="282" y="124" on="1"/>
        <pt x="608" y="124" on="1"/>
        <pt x="769" y="124" on="0"/>
        <pt x="844" y="192" on="1"/>
        <pt x="875" y="221" on="0"/>
        <pt x="920" y="333" on="0"/>
        <pt x="920" y="410" on="1"/>
        <pt x="920" y="553" on="0"/>
        <pt x="749" y="726" on="0"/>
        <pt x="608" y="726" on="1"/>
        <pt x="282" y="726" on="1"/>
      </contour>
      <contour>
        <pt x="135" y="0" on="1"/>
        <pt x="135" y="1391" on="1"/>
        <pt x="-118" y="1391" on="1"/>
        <pt x="-118" y="1515" on="1"/>
        <pt x="283" y="1515" on="1"/>
        <pt x="283" y="853" on="1"/>
        <pt x="608" y="853" on="1"/>
        <pt x="895" y="853" on="0"/>
        <pt x="1006" y="664" on="1"/>
        <pt x="1068" y="558" on="0"/>
        <pt x="1068" y="410" on="1"/>
        <pt x="1068" y="223" on="0"/>
        <pt x="830" y="0" on="0"/>
        <pt x="608" y="0" on="1"/>
      </contour>
    </TTGlyph>
    <TTGlyph name="Hbar" xMin="85" yMin="0" xMax="1169" yMax="1515">
      <contour>
        <pt x="85" y="1050" on="1"/>
        <pt x="85" y="1174" on="1"/>
        <pt x="135" y="1174" on="1"/>
        <pt x="135" y="1515" on="1"/>
        <pt x="283" y="1515" on="1"/>
        <pt x="283" y="1174" on="1"/>
        <pt x="971" y="1174" on="1"/>
        <pt x="971" y="1515" on="1"/>
        <pt x="1119" y="1515" on="1"/>
        <pt x="1119" y="1174" on="1"/>
        <pt x="1169" y="1174" on="1"/>
        <pt x="1169" y="1050" on="1"/>
        <pt x="1119" y="1050" on="1"/>
        <pt x="1119" y="0" on="1"/>
        <pt x="971" y="0" on="1"/>
        <pt x="971" y="734" on="1"/>
        <pt x="283" y="734" on="1"/>
        <pt x="283" y="0" on="1"/>
        <pt x="135" y="0" on="1"/>
        <pt x="135" y="1050" on="1"/>
      </contour>
      <contour>
        <pt x="971" y="1050" on="1"/>
        <pt x="283" y="1050" on="1"/>
        <pt x="283" y="858" on="1"/>
        <pt x="971" y="858" on="1"/>
      </contour>
    </TTGlyph>
    <TTGlyph name="Hbrevebelow" xMin="135" yMin="-297" xMax="1119" yMax="1515">
      <component glyphName="breve" x="362" y="-1412" flags="0x4"/>
      <component glyphName="H" x="0" y="0" flags="0x4"/>
    </TTGlyph>
    <TTGlyph name="Hcaron" xMin="135" yMin="0" xMax="1119" yMax="1941">
      <component glyphName="caron" x="315" y="522" flags="0x4"/>
      <component glyphName="H" x="0" y="0" flags="0x4"/>
    </TTGlyph>
    <TTGlyph name="Hcedilla" xMin="90" yMin="-313" xMax="1119" yMax="1515">
      <contour>
        <pt x="90" y="-218" on="1"/>
        <pt x="179" y="-218" on="0"/>
        <pt x="238" y="-186" on="0"/>
        <pt x="238" y="-171" on="1"/>
        <pt x="238" y="-96" on="0"/>
        <pt x="160" y="0" on="1"/>
        <pt x="135" y="0" on="1"/>
        <pt x="135" y="1515" on="1"/>
        <pt x="283" y="1515" on="1"/>
        <pt x="283" y="858" on="1"/>
        <pt x="971" y="858" on="1"/>
        <pt x="971" y="1515" on="1"/>
        <pt x="1119" y="1515" on="1"/>
        <pt x="1119" y="0" on="1"/>
        <pt x="971" y="0" on="1"/>
        <pt x="971" y="734" on="1"/>
        <pt x="283" y="734" on="1"/>
        <pt x="283" y="0" on="1"/>
        <pt x="258" y="0" on="1"/>
        <pt x="331" y="-102" on="0"/>
        <pt x="331" y="-198" on="1"/>
        <pt x="331" y="-241" on="0"/>
        <pt x="290" y="-276" on="0"/>
        <pt x="260" y="-294" on="0"/>
        <pt x="220" y="-304" on="0"/>
        <pt x="187" y="-310" on="0"/>
        <pt x="166" y="-311" on="1"/>
        <pt x="132" y="-312" on="1"/>
        <pt x="121" y="-313" on="0"/>
        <pt x="91" y="-312" on="0"/>
        <pt x="90" y="-312" on="1"/>
      </contour>
    </TTGlyph>
    <TTGlyph name="Hcircumflex" xMin="135" yMin="0" xMax="1119" yMax="1941">
      <component glyphName="asciicircum" x="315" y="522" flags="0x4"/>
      <component glyphName="H" x="0" y="0" flags="0x4"/>
    </TTGlyph>
    <TTGlyph name="Hdieresis" xMin="135" yMin="0" xMax="1119" yMax="1804">
      <component glyphName="dieresis" x="300" y="451" flags="0x4"/>
      <component glyphName="H" x="0" y="0" flags="0x4"/>
    </TTGlyph>
    <TTGlyph name="Hdotaccent" xMin="135" yMin="0" xMax="1119" yMax="1804">
      <component glyphName="dotaccent" x="627" y="1532" flags="0x4"/>
      <component glyphName="H" x="0" y="0" flags="0x4"/>
    </TTGlyph>
    <TTGlyph name="Hdotbelow" xMin="135" yMin="-272" xMax="1119" yMax="1515">
      <component glyphName="dotaccent" x="627" y="-394" flags="0x4"/>
      <component glyphName="H" x="0" y="0" flags="0x4"/>
    </TTGlyph>
    <TTGlyph name="Heta" xMin="135" yMin="0" xMax="971" yMax="1515">
      <contour>
        <pt x="971" y="734" on="1"/>
        <pt x="283" y="734" on="1"/>
        <pt x="283" y="0" on="1"/>
        <pt x="135" y="0" on="1"/>
        <pt x="135" y="1515" on="1"/>
        <pt x="283" y="1515" on="1"/>
        <pt x="283" y="858" on="1"/>
        <pt x="971" y="858" on="1"/>
      </contour>
    </TTGlyph>
    <TTGlyph name="Hori" xMin="68" yMin="-264" xMax="1022" yMax="1527">
      <contour>
        <pt x="68" y="0" on="1"/>
        <pt x="874" y="688" on="0"/>
        <pt x="874" y="1116" on="1"/>
        <pt x="874" y="1245" on="0"/>
        <pt x="728" y="1403" on="0"/>
        <pt x="578" y="1403" on="1"/>
        <pt x="391" y="1403" on="0"/>
        <pt x="300" y="1252" on="1"/>
        <pt x="253" y="1172" on="0"/>
        <pt x="253" y="1088" on="1"/>
        <pt x="105" y="1088" on="1"/>
        <pt x="105" y="1213" on="0"/>
        <pt x="244" y="1417" on="0"/>
        <pt x="468" y="1527" on="0"/>
        <pt x="710" y="1527" on="0"/>
        <pt x="906" y="1419" on="0"/>
        <pt x="1022" y="1229" on="0"/>
        <pt x="1022" y="1016" on="0"/>
        <pt x="947" y="792" on="0"/>
        <pt x="830" y="594" on="0"/>
        <pt x="676" y="393" on="0"/>
        <pt x="530" y="236" on="0"/>
        <pt x="456" y="166" on="1"/>
        <pt x="350" y="65" on="0"/>
        <pt x="266" y="0" on="1"/>
        <pt x="273" y="-21" on="0"/>
        <pt x="364" y="-85" on="0"/>
        <pt x="522" y="-140" on="0"/>
        <pt x="680" y="-140" on="0"/>
        <pt x="889" y="-74" on="0"/>
        <pt x="954" y="-41" on="1"/>
        <pt x="1018" y="-8" on="1"/>
        <pt x="1018" y="-147" on="1"/>
        <pt x="929" y="-221" on="0"/>
        <pt x="754" y="-252" on="1"/>
        <pt x="682" y="-264" on="0"/>
        <pt x="504" y="-264" on="0"/>
        <pt x="317" y="-209" on="0"/>
        <pt x="250" y="-166" on="1"/>
        <pt x="121" y="-82" on="0"/>
      </contour>
    </TTGlyph>
    <TTGlyph name="Hpixels_perem" xMin="73" yMin="0" xMax="903" yMax="693">
      <contour>
        <pt x="73" y="31" on="1"/>
        <pt x="73" y="329" on="1"/>
        <pt x="102" y="329" on="1"/>
        <pt x="102" y="31" on="1"/>
      </contour>
      <contour>
        <pt x="73" y="363" on="1"/>
        <pt x="73" y="661" on="1"/>
        <pt x="102" y="661" on="1"/>
        <pt x="102" y="363" on="1"/>
      </contour>
      <contour>
        <pt x="102" y="0" on="1"/>
        <pt x="102" y="29" on="1"/>
        <pt x="411" y="29" on="1"/>
        <pt x="411" y="0" on="1"/>
      </contour>
      <contour>
        <pt x="102" y="332" on="1"/>
        <pt x="102" y="361" on="1"/>
        <pt x="411" y="361" on="1"/>
        <pt x="411" y="332" on="1"/>
      </contour>
      <contour>
        <pt x="102" y="664" on="1"/>
        <pt x="102" y="693" on="1"/>
        <pt x="411" y="693" on="1"/>
        <pt x="411" y="664" on="1"/>
      </contour>
      <contour>
        <pt x="411" y="31" on="1"/>
        <pt x="411" y="329" on="1"/>
        <pt x="440" y="329" on="1"/>
        <pt x="440" y="31" on="1"/>
      </contour>
      <contour>
        <pt x="411" y="363" on="1"/>
        <pt x="411" y="661" on="1"/>
        <pt x="440" y="661" on="1"/>
        <pt x="440" y="363" on="1"/>
      </contour>
      <contour>
        <pt x="537" y="31" on="1"/>
        <pt x="537" y="329" on="1"/>
        <pt x="566" y="329" on="1"/>
        <pt x="566" y="31" on="1"/>
      </contour>
      <contour>
        <pt x="537" y="363" on="1"/>
        <pt x="537" y="661" on="1"/>
        <pt x="566" y="661" on="1"/>
        <pt x="566" y="363" on="1"/>
      </contour>
      <contour>
        <pt x="566" y="0" on="1"/>
        <pt x="566" y="29" on="1"/>
        <pt x="874" y="29" on="1"/>
        <pt x="874" y="0" on="1"/>
      </contour>
      <contour>
        <pt x="566" y="332" on="1"/>
        <pt x="566" y="361" on="1"/>
        <pt x="874" y="361" on="1"/>
        <pt x="874" y="332" on="1"/>
      </contour>
      <contour>
        <pt x="566" y="664" on="1"/>
        <pt x="566" y="693" on="1"/>
        <pt x="874" y="693" on="1"/>
        <pt x="874" y="664" on="1"/>
      </contour>
      <contour>
        <pt x="874" y="31" on="1"/>
        <pt x="874" y="329" on="1"/>
        <pt x="903" y="329" on="1"/>
        <pt x="903" y="31" on="1"/>
      </contour>
      <contour>
        <pt x="874" y="363" on="1"/>
        <pt x="874" y="661" on="1"/>
        <pt x="903" y="661" on="1"/>
        <pt x="903" y="363" on="1"/>
      </contour>
    </TTGlyph>
    <TTGlyph name="Hryvnia" xMin="40" yMin="-16" xMax="1062" yMax="1532">
      <contour>
        <pt x="517" y="683" on="1"/>
        <pt x="1045" y="683" on="1"/>
        <pt x="1045" y="551" on="1"/>
        <pt x="307" y="551" on="1"/>
        <pt x="264" y="489" on="0"/>
        <pt x="264" y="262" on="0"/>
        <pt x="402" y="108" on="0"/>
        <pt x="540" y="108" on="1"/>
        <pt x="721" y="108" on="0"/>
        <pt x="832" y="228" on="1"/>
        <pt x="898" y="299" on="0"/>
        <pt x="930" y="394" on="1"/>
        <pt x="933" y="403" on="0"/>
        <pt x="935" y="413" on="1"/>
        <pt x="1062" y="367" on="1"/>
        <pt x="1032" y="246" on="0"/>
        <pt x="922" y="134" on="1"/>
        <pt x="775" y="-16" on="0"/>
        <pt x="540" y="-16" on="1"/>
        <pt x="348" y="-16" on="0"/>
        <pt x="233" y="106" on="1"/>
        <pt x="146" y="198" on="0"/>
        <pt x="122" y="327" on="1"/>
        <pt x="116" y="359" on="0"/>
        <pt x="116" y="478" on="0"/>
        <pt x="144" y="551" on="1"/>
        <pt x="40" y="551" on="1"/>
        <pt x="40" y="683" on="1"/>
        <pt x="230" y="683" on="1"/>
        <pt x="304" y="756" on="0"/>
        <pt x="441" y="807" on="1"/>
        <pt x="40" y="807" on="1"/>
        <pt x="40" y="939" on="1"/>
        <pt x="789" y="939" on="1"/>
        <pt x="882" y="1002" on="0"/>
        <pt x="882" y="1263" on="0"/>
        <pt x="728" y="1408" on="0"/>
        <pt x="605" y="1408" on="1"/>
        <pt x="400" y="1408" on="0"/>
        <pt x="322" y="1195" on="1"/>
        <pt x="306" y="1151" on="0"/>
        <pt x="302" y="1126" on="1"/>
        <pt x="168" y="1165" on="1"/>
        <pt x="196" y="1295" on="0"/>
        <pt x="286" y="1396" on="1"/>
        <pt x="406" y="1532" on="0"/>
        <pt x="605" y="1532" on="1"/>
        <pt x="701" y="1532" on="0"/>
        <pt x="865" y="1462" on="0"/>
        <pt x="918" y="1406" on="1"/>
        <pt x="1030" y="1284" on="0"/>
        <pt x="1030" y="1024" on="0"/>
        <pt x="973" y="939" on="1"/>
        <pt x="1045" y="939" on="1"/>
        <pt x="1045" y="807" on="1"/>
        <pt x="826" y="807" on="1"/>
        <pt x="768" y="773" on="0"/>
        <pt x="706" y="750" on="1"/>
        <pt x="590" y="708" on="1"/>
        <pt x="536" y="690" on="0"/>
      </contour>
    </TTGlyph>
    <TTGlyph name="Hsmall" xMin="120" yMin="0" xMax="866" yMax="1055">
      <component glyphName="en" x="0" y="0" flags="0x204"/>
    </TTGlyph>
    <TTGlyph name="Hwair" xMin="135" yMin="-11" xMax="1725" yMax="1515">
      <contour>
        <pt x="972" y="511" on="1"/>
        <pt x="971" y="734" on="1"/>
        <pt x="283" y="734" on="1"/>
        <pt x="283" y="0" on="1"/>
        <pt x="135" y="0" on="1"/>
        <pt x="135" y="1515" on="1"/>
        <pt x="283" y="1515" on="1"/>
        <pt x="283" y="858" on="1"/>
        <pt x="971" y="858" on="1"/>
        <pt x="971" y="1515" on="1"/>
        <pt x="1119" y="1515" on="1"/>
        <pt x="1119" y="495" on="1"/>
        <pt x="1119" y="337" on="0"/>
        <pt x="1142" y="250" on="0"/>
        <pt x="1165" y="193" on="0"/>
        <pt x="1200" y="158" on="0"/>
        <pt x="1224" y="143" on="1"/>
        <pt x="1270" y="114" on="0"/>
        <pt x="1385" y="114" on="0"/>
        <pt x="1445" y="127" on="0"/>
        <pt x="1505" y="159" on="0"/>
        <pt x="1527" y="184" on="1"/>
        <pt x="1576" y="238" on="0"/>
        <pt x="1576" y="336" on="1"/>
        <pt x="1576" y="587" on="0"/>
        <pt x="1499" y="1055" on="1"/>
        <pt x="1647" y="1055" on="1"/>
        <pt x="1725" y="596" on="0"/>
        <pt x="1725" y="336" on="1"/>
        <pt x="1725" y="225" on="0"/>
        <pt x="1671" y="144" on="1"/>
        <pt x="1567" y="-11" on="0"/>
        <pt x="1353" y="-11" on="1"/>
        <pt x="1141" y="-11" on="0"/>
        <pt x="1058" y="96" on="1"/>
        <pt x="1005" y="166" on="0"/>
        <pt x="991" y="247" on="1"/>
        <pt x="972" y="366" on="0"/>
      </contour>
    </TTGlyph>
    <TTGlyph name="I" xMin="135" yMin="0" xMax="283" yMax="1515">
      <contour>
        <pt x="135" y="0" on="1"/>
        <pt x="135" y="1515" on="1"/>
        <pt x="283" y="1515" on="1"/>
        <pt x="283" y="0" on="1"/>
      </contour>
    </TTGlyph>
    <TTGlyph name="IJ" xMin="135" yMin="-16" xMax="1179" yMax="1515">
      <component glyphName="J" x="418" y="0" flags="0x4"/>
      <component glyphName="I" x="0" y="0" flags="0x4"/>
    </TTGlyph>
    <TTGlyph name="Iacute" xMin="135" yMin="0" xMax="577" yMax="1967">
      <component glyphName="acute" x="73" y="512" flags="0x4"/>
      <component glyphName="I" x="0" y="0" flags="0x4"/>
    </TTGlyph>
    <TTGlyph name="Ibar" xMin="18" yMin="0" xMax="542" yMax="1515">
      <contour>
        <pt x="18" y="762" on="1"/>
        <pt x="18" y="898" on="1"/>
        <pt x="208" y="898" on="1"/>
        <pt x="208" y="1515" on="1"/>
        <pt x="356" y="1515" on="1"/>
        <pt x="356" y="898" on="1"/>
        <pt x="542" y="898" on="1"/>
        <pt x="542" y="762" on="1"/>
        <pt x="356" y="762" on="1"/>
        <pt x="356" y="0" on="1"/>
        <pt x="208" y="0" on="1"/>
        <pt x="208" y="762" on="1"/>
      </contour>
    </TTGlyph>
    <TTGlyph name="Ibreve" xMin="3" yMin="0" xMax="415" yMax="1829">
      <component glyphName="breve" x="-56" y="539" flags="0x4"/>
      <component glyphName="I" x="0" y="0" flags="0x4"/>
    </TTGlyph>
    <TTGlyph name="Icaron" xMin="-13" yMin="0" xMax="431" yMax="1941">
      <component glyphName="caron" x="-103" y="522" flags="0x4"/>
      <component glyphName="I" x="0" y="0" flags="0x4"/>
    </TTGlyph>
    <TTGlyph name="Icircumflex" xMin="-13" yMin="0" xMax="431" yMax="1941">
      <component glyphName="asciicircum" x="-103" y="522" flags="0x4"/>
      <component glyphName="I" x="0" y="0" flags="0x4"/>
    </TTGlyph>
    <TTGlyph name="Icyrillic" xMin="135" yMin="0" xMax="283" yMax="1515">
      <component glyphName="I" x="0" y="0" flags="0x204"/>
    </TTGlyph>
    <TTGlyph name="Idblgrave" xMin="-103" yMin="0" xMax="632" yMax="2014">
      <component glyphName="grave" x="71" y="559" flags="0x4"/>
      <component glyphName="grave" x="-282" y="559" flags="0x4"/>
      <component glyphName="I" x="0" y="0" flags="0x4"/>
    </TTGlyph>
    <TTGlyph name="Idieresis" xMin="-26" yMin="0" xMax="443" yMax="1804">
      <component glyphName="dieresis" x="-118" y="451" flags="0x4"/>
      <component glyphName="I" x="0" y="0" flags="0x4"/>
    </TTGlyph>
    <TTGlyph name="Idieresisacute" xMin="-26" yMin="0" xMax="525" yMax="2286">
      <component glyphName="acute" x="21" y="831" flags="0x4"/>
      <component glyphName="dieresis" x="-118" y="451" flags="0x4"/>
      <component glyphName="I" x="0" y="0" flags="0x4"/>
    </TTGlyph>
    <TTGlyph name="Idotaccent" xMin="134" yMin="0" xMax="284" yMax="1804">
      <component glyphName="dotaccent" x="209" y="1532" flags="0x4"/>
      <component glyphName="I" x="0" y="0" flags="0x4"/>
    </TTGlyph>
    <TTGlyph name="Idotbelow" xMin="134" yMin="-272" xMax="284" yMax="1515">
      <component glyphName="dotaccent" x="209" y="-394" flags="0x4"/>
      <component glyphName="I" x="0" y="0" flags="0x4"/>
    </TTGlyph>
    <TTGlyph name="Ie" xMin="135" yMin="0" xMax="994" yMax="1515">
      <component glyphName="E" x="0" y="0" flags="0x204"/>
    </TTGlyph>
    <TTGlyph name="Iebreve" xMin="135" yMin="0" xMax="994" yMax="1829">
      <component glyphName="breve" x="280" y="539" flags="0x4"/>
      <component glyphName="E" x="0" y="0" flags="0x4"/>
    </TTGlyph>
    <TTGlyph name="Iegrave" xMin="135" yMin="0" xMax="994" yMax="2014">
      <component glyphName="grave" x="50" y="559" flags="0x4"/>
      <component glyphName="E" x="0" y="0" flags="0x4"/>
    </TTGlyph>
    <TTGlyph name="Igrave" xMin="-159" yMin="0" xMax="283" yMax="1967">
      <component glyphName="grave" x="-338" y="512" flags="0x4"/>
      <component glyphName="I" x="0" y="0" flags="0x4"/>
    </TTGlyph>
    <TTGlyph name="Ii" xMin="128" yMin="0" xMax="1123" yMax="1515">
      <contour>
        <pt x="128" y="0" on="1"/>
        <pt x="128" y="1515" on="1"/>
        <pt x="276" y="1515" on="1"/>
        <pt x="276" y="361" on="1"/>
        <pt x="887" y="1515" on="1"/>
        <pt x="1123" y="1515" on="1"/>
        <pt x="1123" y="0" on="1"/>
        <pt x="975" y="0" on="1"/>
        <pt x="975" y="1368" on="1"/>
        <pt x="255" y="0" on="1"/>
      </contour>
    </TTGlyph>
    <TTGlyph name="Iibreve" xMin="128" yMin="0" xMax="1123" yMax="1829">
      <component glyphName="breve" x="360" y="539" flags="0x4"/>
      <component glyphName="Ii" x="0" y="0" flags="0x4"/>
    </TTGlyph>
    <TTGlyph name="Iidieresis" xMin="128" yMin="0" xMax="1123" yMax="1804">
      <component glyphName="dieresis" x="299" y="451" flags="0x4"/>
      <component glyphName="Ii" x="0" y="0" flags="0x4"/>
    </TTGlyph>
    <TTGlyph name="Iigrave" xMin="128" yMin="0" xMax="1123" yMax="2014">
      <component glyphName="grave" x="130" y="559" flags="0x4"/>
      <component glyphName="Ii" x="0" y="0" flags="0x4"/>
    </TTGlyph>
    <TTGlyph name="Iimacron" xMin="128" yMin="0" xMax="1123" yMax="1746">
      <component glyphName="macron" x="272" y="423" flags="0x4"/>
      <component glyphName="Ii" x="0" y="0" flags="0x4"/>
    </TTGlyph>
    <TTGlyph name="Iinvertedbreve" xMin="3" yMin="0" xMax="415" yMax="1829">
      <component glyphName="breveinvertedcomb" x="-56" y="539" flags="0x4"/>
      <component glyphName="I" x="0" y="0" flags="0x4"/>
    </TTGlyph>
    <TTGlyph name="Iitail" xMin="128" yMin="-250" xMax="1273" yMax="1829">
      <contour>
        <pt x="1101" y="-250" on="1"/>
        <pt x="1188" y="0" on="1"/>
        <pt x="975" y="0" on="1"/>
        <pt x="975" y="1368" on="1"/>
        <pt x="255" y="0" on="1"/>
        <pt x="128" y="0" on="1"/>
        <pt x="128" y="1515" on="1"/>
        <pt x="276" y="1515" on="1"/>
        <pt x="276" y="361" on="1"/>
        <pt x="887" y="1515" on="1"/>
        <pt x="1123" y="1515" on="1"/>
        <pt x="1123" y="150" on="1"/>
        <pt x="1273" y="150" on="1"/>
        <pt x="1273" y="0" on="1"/>
        <pt x="1246" y="-57" on="0"/>
        <pt x="1148" y="-247" on="0"/>
        <pt x="1145" y="-250" on="1"/>
      </contour>
      <contour>
        <pt x="832" y="1789" on="1"/>
        <pt x="767" y="1654" on="0"/>
        <pt x="626" y="1654" on="1"/>
        <pt x="483" y="1654" on="0"/>
        <pt x="420" y="1789" on="1"/>
        <pt x="488" y="1829" on="1"/>
        <pt x="506" y="1787" on="0"/>
        <pt x="584" y="1733" on="0"/>
        <pt x="667" y="1733" on="0"/>
        <pt x="744" y="1787" on="0"/>
        <pt x="762" y="1829" on="1"/>
      </contour>
    </TTGlyph>
    <TTGlyph name="Imacron" xMin="-54" yMin="0" xMax="473" yMax="1746">
      <component glyphName="macron" x="-144" y="423" flags="0x4"/>
      <component glyphName="I" x="0" y="0" flags="0x4"/>
    </TTGlyph>
    <TTGlyph name="Io" xMin="135" yMin="0" xMax="994" yMax="1804">
      <component glyphName="dieresis" x="219" y="451" flags="0x4"/>
      <component glyphName="E" x="0" y="0" flags="0x4"/>
    </TTGlyph>
    <TTGlyph name="Iogonek" xMin="87" yMin="-303" xMax="328" yMax="1515">
      <component glyphName="ogonek" x="74" y="10" flags="0x4"/>
      <component glyphName="I" x="0" y="0" flags="0x4"/>
    </TTGlyph>
    <TTGlyph name="Iota" xMin="135" yMin="0" xMax="283" yMax="1515">
      <component glyphName="I" x="0" y="0" flags="0x204"/>
    </TTGlyph>
    <TTGlyph name="Iotaacute" xMin="-258" yMin="0" xMax="283" yMax="1531">
      <component glyphName="oxia" x="-439" y="53" flags="0x4"/>
      <component glyphName="I" x="0" y="0" flags="0x4"/>
    </TTGlyph>
    <TTGlyph name="Iotaasper" xMin="-159" yMin="0" xMax="283" yMax="1532">
      <component glyphName="commareversedabovecomb" x="-229" y="26" flags="0x4"/>
      <component glyphName="I" x="0" y="0" flags="0x4"/>
    </TTGlyph>
    <TTGlyph name="Iotaasperacute" xMin="-533" yMin="0" xMax="283" yMax="1532">
      <component glyphName="oxia" x="-451" y="53" flags="0x4"/>
      <component glyphName="commareversedabovecomb" x="-603" y="26" flags="0x4"/>
      <component glyphName="I" x="0" y="0" flags="0x4"/>
    </TTGlyph>
    <TTGlyph name="Iotaaspergrave" xMin="-482" yMin="0" xMax="283" yMax="1532">
      <component glyphName="varia" x="-482" y="51" flags="0x4"/>
      <component glyphName="commareversedabovecomb" x="-552" y="26" flags="0x4"/>
      <component glyphName="I" x="0" y="0" flags="0x4"/>
    </TTGlyph>
    <TTGlyph name="Iotaaspertilde" xMin="-379" yMin="0" xMax="283" yMax="1859">
      <component glyphName="asciitilde" x="-469" y="544" flags="0x4"/>
      <component glyphName="commareversedabovecomb" x="-220" y="28" flags="0x4"/>
      <component glyphName="I" x="0" y="0" flags="0x4"/>
    </TTGlyph>
    <TTGlyph name="Iotabreve" xMin="3" yMin="0" xMax="415" yMax="1829">
      <component glyphName="breve" x="-56" y="539" flags="0x4"/>
      <component glyphName="I" x="0" y="0" flags="0x4"/>
    </TTGlyph>
    <TTGlyph name="Iotadieresis" xMin="-26" yMin="0" xMax="443" yMax="1804">
      <component glyphName="dieresis" x="-118" y="451" flags="0x4"/>
      <component glyphName="I" x="0" y="0" flags="0x4"/>
    </TTGlyph>
    <TTGlyph name="Iotagrave" xMin="-259" yMin="0" xMax="283" yMax="1532">
      <component glyphName="varia" x="-488" y="51" flags="0x4"/>
      <component glyphName="I" x="0" y="0" flags="0x4"/>
    </TTGlyph>
    <TTGlyph name="Iotalatin" xMin="135" yMin="0" xMax="283" yMax="1515">
      <component glyphName="I" x="0" y="0" flags="0x204"/>
    </TTGlyph>
    <TTGlyph name="Iotalenis" xMin="-159" yMin="0" xMax="283" yMax="1532">
      <component glyphName="comma" x="-229" y="1382" flags="0x4"/>
      <component glyphName="I" x="0" y="0" flags="0x4"/>
    </TTGlyph>
    <TTGlyph name="Iotalenisacute" xMin="-532" yMin="0" xMax="283" yMax="1555">
      <component glyphName="psili_oxia" x="-599" y="-136" flags="0x4"/>
      <component glyphName="I" x="0" y="0" flags="0x4"/>
    </TTGlyph>
    <TTGlyph name="Iotalenisgrave" xMin="-502" yMin="0" xMax="283" yMax="1556">
      <component glyphName="psili_varia" x="-569" y="-136" flags="0x4"/>
      <component glyphName="I" x="0" y="0" flags="0x4"/>
    </TTGlyph>
    <TTGlyph name="Iotalenistilde" xMin="-379" yMin="0" xMax="283" yMax="1858">
      <component glyphName="asciitilde" x="-469" y="543" flags="0x4"/>
      <component glyphName="comma" x="-242" y="1386" flags="0x4"/>
      <component glyphName="I" x="0" y="0" flags="0x4"/>
    </TTGlyph>
    <TTGlyph name="Iotamacron" xMin="-54" yMin="0" xMax="473" yMax="1746">
      <component glyphName="macron" x="-144" y="423" flags="0x4"/>
      <component glyphName="I" x="0" y="0" flags="0x4"/>
    </TTGlyph>
    <TTGlyph name="Iotatonos" xMin="-210" yMin="0" xMax="283" yMax="1522">
      <component glyphName="tonos" x="-390" y="42" flags="0x4"/>
      <component glyphName="I" x="0" y="0" flags="0x4"/>
    </TTGlyph>
    <TTGlyph name="Itilde" xMin="-96" yMin="0" xMax="513" yMax="1854">
      <component glyphName="asciitilde" x="-186" y="539" flags="0x4"/>
      <component glyphName="I" x="0" y="0" flags="0x4"/>
    </TTGlyph>
    <TTGlyph name="Itildebelow" xMin="-95" yMin="-322" xMax="514" yMax="1515">
      <component glyphName="asciitilde" x="-185" y="-1434" flags="0x4"/>
      <component glyphName="I" x="0" y="0" flags="0x4"/>
    </TTGlyph>
    <TTGlyph name="Iu" xMin="135" yMin="-24" xMax="1591" yMax="1524">
      <contour>
        <pt x="1393" y="392" on="1"/>
        <pt x="1443" y="546" on="0"/>
        <pt x="1443" y="744" on="1"/>
        <pt x="1443" y="1073" on="0"/>
        <pt x="1322" y="1254" on="1"/>
        <pt x="1279" y="1319" on="0"/>
        <pt x="1139" y="1400" on="0"/>
        <pt x="959" y="1400" on="0"/>
        <pt x="816" y="1328" on="0"/>
        <pt x="723" y="1207" on="0"/>
        <pt x="662" y="1037" on="0"/>
        <pt x="636" y="850" on="0"/>
        <pt x="636" y="612" on="0"/>
        <pt x="683" y="387" on="0"/>
        <pt x="778" y="205" on="0"/>
        <pt x="941" y="100" on="0"/>
        <pt x="1138" y="100" on="0"/>
        <pt x="1279" y="179" on="0"/>
        <pt x="1365" y="305" on="0"/>
      </contour>
      <contour>
        <pt x="135" y="0" on="1"/>
        <pt x="135" y="1515" on="1"/>
        <pt x="283" y="1515" on="1"/>
        <pt x="283" y="858" on="1"/>
        <pt x="492" y="858" on="1"/>
        <pt x="492" y="991" on="0"/>
        <pt x="549" y="1144" on="1"/>
        <pt x="605" y="1296" on="0"/>
        <pt x="730" y="1408" on="1"/>
        <pt x="859" y="1524" on="0"/>
        <pt x="1049" y="1524" on="1"/>
        <pt x="1162" y="1524" on="0"/>
        <pt x="1347" y="1431" on="0"/>
        <pt x="1470" y="1278" on="0"/>
        <pt x="1512" y="1176" on="1"/>
        <pt x="1591" y="984" on="0"/>
        <pt x="1591" y="744" on="1"/>
        <pt x="1591" y="305" on="0"/>
        <pt x="1364" y="92" on="1"/>
        <pt x="1241" y="-24" on="0"/>
        <pt x="1049" y="-24" on="1"/>
        <pt x="740" y="-24" on="0"/>
        <pt x="581" y="302" on="1"/>
        <pt x="489" y="490" on="0"/>
        <pt x="489" y="734" on="1"/>
        <pt x="283" y="734" on="1"/>
        <pt x="283" y="0" on="1"/>
      </contour>
    </TTGlyph>
    <TTGlyph name="Izhitsa" xMin="25" yMin="0" xMax="1227" yMax="1527">
      <contour>
        <pt x="25" y="1515" on="1"/>
        <pt x="179" y="1515" on="1"/>
        <pt x="552" y="259" on="1"/>
        <pt x="552" y="259" on="0"/>
        <pt x="646" y="577" on="1"/>
        <pt x="777" y="1025" on="0"/>
        <pt x="832" y="1169" on="1"/>
        <pt x="914" y="1381" on="0"/>
        <pt x="1090" y="1527" on="0"/>
        <pt x="1227" y="1524" on="1"/>
        <pt x="1227" y="1392" on="1"/>
        <pt x="1105" y="1398" on="0"/>
        <pt x="1025" y="1264" on="1"/>
        <pt x="950" y="1138" on="0"/>
        <pt x="876" y="879" on="1"/>
        <pt x="679" y="165" on="0"/>
        <pt x="629" y="0" on="1"/>
        <pt x="475" y="0" on="1"/>
      </contour>
    </TTGlyph>
    <TTGlyph name="Izhitsagravedbl" xMin="25" yMin="0" xMax="1227" yMax="2008">
      <component glyphName="grave" x="375" y="553" flags="0x4"/>
      <component glyphName="grave" x="22" y="553" flags="0x4"/>
      <component glyphName="Izhitsa" x="0" y="0" flags="0x4"/>
    </TTGlyph>
    <TTGlyph name="J" xMin="25" yMin="-16" xMax="761" yMax="1515">
      <contour>
        <pt x="25" y="244" on="1"/>
        <pt x="128" y="297" on="1"/>
        <pt x="152" y="233" on="0"/>
        <pt x="216" y="174" on="1"/>
        <pt x="243" y="149" on="0"/>
        <pt x="335" y="108" on="0"/>
        <pt x="386" y="108" on="1"/>
        <pt x="508" y="108" on="0"/>
        <pt x="613" y="275" on="0"/>
        <pt x="613" y="429" on="1"/>
        <pt x="613" y="1515" on="1"/>
        <pt x="761" y="1515" on="1"/>
        <pt x="761" y="429" on="1"/>
        <pt x="761" y="103" on="0"/>
        <pt x="544" y="12" on="1"/>
        <pt x="475" y="-16" on="0"/>
        <pt x="307" y="-16" on="0"/>
        <pt x="175" y="37" on="0"/>
        <pt x="101" y="104" on="0"/>
        <pt x="73" y="147" on="1"/>
        <pt x="33" y="208" on="0"/>
      </contour>
    </TTGlyph>
    <TTGlyph name="Jbar" xMin="25" yMin="-16" xMax="886" yMax="1515">
      <contour>
        <pt x="362" y="677" on="1"/>
        <pt x="362" y="801" on="1"/>
        <pt x="613" y="801" on="1"/>
        <pt x="613" y="1515" on="1"/>
        <pt x="761" y="1515" on="1"/>
        <pt x="761" y="801" on="1"/>
        <pt x="886" y="801" on="1"/>
        <pt x="886" y="677" on="1"/>
        <pt x="761" y="677" on="1"/>
        <pt x="761" y="429" on="1"/>
        <pt x="761" y="103" on="0"/>
        <pt x="544" y="12" on="1"/>
        <pt x="475" y="-16" on="0"/>
        <pt x="307" y="-16" on="0"/>
        <pt x="175" y="37" on="0"/>
        <pt x="101" y="104" on="0"/>
        <pt x="73" y="147" on="1"/>
        <pt x="33" y="208" on="0"/>
        <pt x="25" y="244" on="1"/>
        <pt x="128" y="297" on="1"/>
        <pt x="152" y="233" on="0"/>
        <pt x="216" y="174" on="1"/>
        <pt x="243" y="149" on="0"/>
        <pt x="335" y="108" on="0"/>
        <pt x="386" y="108" on="1"/>
        <pt x="508" y="108" on="0"/>
        <pt x="613" y="275" on="0"/>
        <pt x="613" y="429" on="1"/>
        <pt x="613" y="677" on="1"/>
      </contour>
    </TTGlyph>
    <TTGlyph name="Jcircumflex" xMin="25" yMin="-16" xMax="909" yMax="1941">
      <component glyphName="asciicircum" x="375" y="522" flags="0x4"/>
      <component glyphName="J" x="0" y="0" flags="0x4"/>
    </TTGlyph>
    <TTGlyph name="Jecyrillic" xMin="25" yMin="-16" xMax="761" yMax="1515">
      <component glyphName="J" x="0" y="0" flags="0x204"/>
    </TTGlyph>
    <TTGlyph name="K" xMin="135" yMin="0" xMax="1115" yMax="1515">
      <contour>
        <pt x="135" y="0" on="1"/>
        <pt x="135" y="1515" on="1"/>
        <pt x="284" y="1515" on="1"/>
        <pt x="284" y="691" on="1"/>
        <pt x="901" y="1515" on="1"/>
        <pt x="1060" y="1515" on="1"/>
        <pt x="626" y="946" on="1"/>
        <pt x="1115" y="0" on="1"/>
        <pt x="949" y="0" on="1"/>
        <pt x="532" y="822" on="1"/>
        <pt x="284" y="495" on="1"/>
        <pt x="284" y="0" on="1"/>
      </contour>
    </TTGlyph>
    <TTGlyph name="Ka" xMin="135" yMin="0" xMax="1115" yMax="1515">
      <component glyphName="K" x="0" y="0" flags="0x204"/>
    </TTGlyph>
    <TTGlyph name="Kabar" xMin="-43" yMin="0" xMax="1115" yMax="1515">
      <contour>
        <pt x="-43" y="1224" on="1"/>
        <pt x="-43" y="1348" on="1"/>
        <pt x="135" y="1348" on="1"/>
        <pt x="135" y="1515" on="1"/>
        <pt x="284" y="1515" on="1"/>
        <pt x="284" y="1348" on="1"/>
        <pt x="481" y="1348" on="1"/>
        <pt x="481" y="1224" on="1"/>
        <pt x="284" y="1224" on="1"/>
        <pt x="284" y="691" on="1"/>
        <pt x="901" y="1515" on="1"/>
        <pt x="1060" y="1515" on="1"/>
        <pt x="626" y="946" on="1"/>
        <pt x="1115" y="0" on="1"/>
        <pt x="949" y="0" on="1"/>
        <pt x="532" y="822" on="1"/>
        <pt x="284" y="495" on="1"/>
        <pt x="284" y="0" on="1"/>
        <pt x="135" y="0" on="1"/>
        <pt x="135" y="1224" on="1"/>
      </contour>
    </TTGlyph>
    <TTGlyph name="Kabashkir" xMin="-114" yMin="0" xMax="1115" yMax="1515">
      <contour>
        <pt x="284" y="1515" on="1"/>
        <pt x="284" y="691" on="1"/>
        <pt x="901" y="1515" on="1"/>
        <pt x="1060" y="1515" on="1"/>
        <pt x="626" y="946" on="1"/>
        <pt x="1115" y="0" on="1"/>
        <pt x="949" y="0" on="1"/>
        <pt x="532" y="822" on="1"/>
        <pt x="284" y="495" on="1"/>
        <pt x="284" y="0" on="1"/>
        <pt x="135" y="0" on="1"/>
        <pt x="135" y="1391" on="1"/>
        <pt x="-114" y="1391" on="1"/>
        <pt x="-114" y="1515" on="1"/>
      </contour>
    </TTGlyph>
    <TTGlyph name="Kacute" xMin="135" yMin="0" xMax="1115" yMax="2014">
      <component glyphName="acute" x="410" y="559" flags="0x4"/>
      <component glyphName="K" x="0" y="0" flags="0x4"/>
    </TTGlyph>
    <TTGlyph name="Kadescender" xMin="135" yMin="-258" xMax="1189" yMax="1515">
      <contour>
        <pt x="1046" y="133" on="1"/>
        <pt x="1189" y="133" on="1"/>
        <pt x="1189" y="0" on="1"/>
        <pt x="1162" y="-96" on="0"/>
        <pt x="1162" y="-258" on="1"/>
        <pt x="1041" y="-258" on="1"/>
        <pt x="1021" y="-36" on="0"/>
        <pt x="1037" y="0" on="1"/>
        <pt x="949" y="0" on="1"/>
        <pt x="532" y="822" on="1"/>
        <pt x="284" y="495" on="1"/>
        <pt x="284" y="0" on="1"/>
        <pt x="135" y="0" on="1"/>
        <pt x="135" y="1515" on="1"/>
        <pt x="284" y="1515" on="1"/>
        <pt x="284" y="691" on="1"/>
        <pt x="901" y="1515" on="1"/>
        <pt x="1060" y="1515" on="1"/>
        <pt x="626" y="946" on="1"/>
      </contour>
    </TTGlyph>
    <TTGlyph name="Kahook" xMin="135" yMin="-339" xMax="1060" yMax="1515">
      <contour>
        <pt x="755" y="-339" on="1"/>
        <pt x="747" y="-215" on="1"/>
        <pt x="866" y="-215" on="0"/>
        <pt x="894" y="-106" on="1"/>
        <pt x="908" y="-50" on="0"/>
        <pt x="908" y="51" on="1"/>
        <pt x="908" y="275" on="0"/>
        <pt x="736" y="641" on="0"/>
        <pt x="532" y="822" on="1"/>
        <pt x="284" y="495" on="1"/>
        <pt x="284" y="0" on="1"/>
        <pt x="135" y="0" on="1"/>
        <pt x="135" y="1515" on="1"/>
        <pt x="284" y="1515" on="1"/>
        <pt x="284" y="691" on="1"/>
        <pt x="901" y="1515" on="1"/>
        <pt x="1060" y="1515" on="1"/>
        <pt x="626" y="946" on="1"/>
        <pt x="860" y="719" on="0"/>
        <pt x="1056" y="339" on="0"/>
        <pt x="1056" y="108" on="1"/>
        <pt x="1056" y="-274" on="0"/>
        <pt x="848" y="-328" on="1"/>
        <pt x="806" y="-339" on="0"/>
      </contour>
    </TTGlyph>
    <TTGlyph name="Kai" xMin="135" yMin="-410" xMax="1115" yMax="1515">
      <contour>
        <pt x="1115" y="0" on="1"/>
        <pt x="998" y="-120" on="0"/>
        <pt x="947" y="-178" on="1"/>
        <pt x="755" y="-410" on="1"/>
        <pt x="657" y="-335" on="1"/>
        <pt x="804" y="-109" on="0"/>
        <pt x="872" y="-40" on="1"/>
        <pt x="936" y="23" on="1"/>
        <pt x="532" y="822" on="1"/>
        <pt x="284" y="495" on="1"/>
        <pt x="284" y="0" on="1"/>
        <pt x="135" y="0" on="1"/>
        <pt x="135" y="1515" on="1"/>
        <pt x="284" y="1515" on="1"/>
        <pt x="284" y="691" on="1"/>
        <pt x="901" y="1515" on="1"/>
        <pt x="1060" y="1515" on="1"/>
        <pt x="626" y="946" on="1"/>
      </contour>
    </TTGlyph>
    <TTGlyph name="Kappa" xMin="135" yMin="0" xMax="1115" yMax="1515">
      <component glyphName="K" x="0" y="0" flags="0x204"/>
    </TTGlyph>
    <TTGlyph name="Kavertbar" xMin="135" yMin="0" xMax="1114" yMax="1515">
      <contour>
        <pt x="491" y="338" on="1"/>
        <pt x="367" y="338" on="1"/>
        <pt x="367" y="604" on="1"/>
        <pt x="283" y="495" on="1"/>
        <pt x="283" y="0" on="1"/>
        <pt x="135" y="0" on="1"/>
        <pt x="135" y="1515" on="1"/>
        <pt x="283" y="1515" on="1"/>
        <pt x="283" y="691" on="1"/>
        <pt x="367" y="801" on="1"/>
        <pt x="367" y="1266" on="1"/>
        <pt x="491" y="1266" on="1"/>
        <pt x="491" y="967" on="1"/>
        <pt x="900" y="1515" on="1"/>
        <pt x="1059" y="1515" on="1"/>
        <pt x="625" y="946" on="1"/>
        <pt x="1114" y="0" on="1"/>
        <pt x="948" y="0" on="1"/>
        <pt x="531" y="822" on="1"/>
        <pt x="491" y="769" on="1"/>
      </contour>
    </TTGlyph>
    <TTGlyph name="Kcaron" xMin="135" yMin="0" xMax="1115" yMax="1941">
      <component glyphName="caron" x="286" y="522" flags="0x4"/>
      <component glyphName="K" x="0" y="0" flags="0x4"/>
    </TTGlyph>
    <TTGlyph name="Kcommaaccent" xMin="135" yMin="-522" xMax="1115" yMax="1515">
      <component glyphName="comma" x="469" y="-272" flags="0x4"/>
      <component glyphName="K" x="0" y="0" flags="0x4"/>
    </TTGlyph>
    <TTGlyph name="Kdotbelow" xMin="135" yMin="-272" xMax="1115" yMax="1515">
      <component glyphName="dotaccent" x="625" y="-394" flags="0x4"/>
      <component glyphName="K" x="0" y="0" flags="0x4"/>
    </TTGlyph>
    <TTGlyph name="Kha" xMin="25" yMin="0" xMax="1058" yMax="1515">
      <component glyphName="X" x="0" y="0" flags="0x204"/>
    </TTGlyph>
    <TTGlyph name="Khei" xMin="135" yMin="-410" xMax="1107" yMax="1515">
      <contour>
        <pt x="283" y="770" on="1"/>
        <pt x="283" y="0" on="1"/>
        <pt x="135" y="0" on="1"/>
        <pt x="135" y="1515" on="1"/>
        <pt x="283" y="1515" on="1"/>
        <pt x="283" y="914" on="1"/>
        <pt x="390" y="1071" on="0"/>
        <pt x="637" y="1071" on="1"/>
        <pt x="737" y="1071" on="0"/>
        <pt x="915" y="977" on="0"/>
        <pt x="976" y="900" on="1"/>
        <pt x="1107" y="734" on="0"/>
        <pt x="1107" y="528" on="1"/>
        <pt x="1107" y="243" on="0"/>
        <pt x="966" y="-7" on="1"/>
        <pt x="903" y="-120" on="0"/>
        <pt x="792" y="-234" on="1"/>
        <pt x="691" y="-339" on="0"/>
        <pt x="584" y="-400" on="1"/>
        <pt x="566" y="-410" on="1"/>
        <pt x="475" y="-346" on="1"/>
        <pt x="475" y="-346" on="0"/>
        <pt x="479" y="-344" on="1"/>
        <pt x="638" y="-247" on="0"/>
        <pt x="759" y="-85" on="1"/>
        <pt x="959" y="183" on="0"/>
        <pt x="959" y="528" on="1"/>
        <pt x="959" y="637" on="0"/>
        <pt x="873" y="825" on="0"/>
        <pt x="698" y="947" on="0"/>
        <pt x="583" y="947" on="1"/>
        <pt x="448" y="947" on="0"/>
        <pt x="326" y="820" on="1"/>
        <pt x="301" y="794" on="0"/>
      </contour>
    </TTGlyph>
    <TTGlyph name="Khook" xMin="135" yMin="0" xMax="1223" yMax="1539">
      <contour>
        <pt x="1138" y="1325" on="1"/>
        <pt x="1073" y="1415" on="0"/>
        <pt x="1012" y="1415" on="1"/>
        <pt x="990" y="1415" on="0"/>
        <pt x="941" y="1360" on="0"/>
        <pt x="827" y="1210" on="1"/>
        <pt x="626" y="946" on="1"/>
        <pt x="1115" y="0" on="1"/>
        <pt x="949" y="0" on="1"/>
        <pt x="532" y="822" on="1"/>
        <pt x="284" y="495" on="1"/>
        <pt x="284" y="0" on="1"/>
        <pt x="135" y="0" on="1"/>
        <pt x="135" y="1515" on="1"/>
        <pt x="284" y="1515" on="1"/>
        <pt x="284" y="691" on="1"/>
        <pt x="511" y="995" on="1"/>
        <pt x="800" y="1381" on="0"/>
        <pt x="942" y="1539" on="0"/>
        <pt x="1011" y="1539" on="1"/>
        <pt x="1139" y="1539" on="0"/>
        <pt x="1223" y="1394" on="1"/>
      </contour>
    </TTGlyph>
    <TTGlyph name="Kje" xMin="135" yMin="0" xMax="1115" yMax="2014">
      <component glyphName="acute" x="410" y="559" flags="0x4"/>
      <component glyphName="K" x="0" y="0" flags="0x4"/>
    </TTGlyph>
    <TTGlyph name="Klinebelow" xMin="135" yMin="-214" xMax="1115" yMax="1515">
      <component glyphName="macron" x="272" y="-1445" flags="0x4"/>
      <component glyphName="K" x="0" y="0" flags="0x4"/>
    </TTGlyph>
    <TTGlyph name="Koppa" xMin="68" yMin="0" xMax="940" yMax="1524">
      <contour>
        <pt x="940" y="0" on="1"/>
        <pt x="770" y="0" on="0"/>
        <pt x="710" y="91" on="1"/>
        <pt x="626" y="221" on="0"/>
        <pt x="712" y="552" on="1"/>
        <pt x="739" y="654" on="0"/>
        <pt x="783" y="788" on="1"/>
        <pt x="121" y="535" on="1"/>
        <pt x="74" y="649" on="1"/>
        <pt x="187" y="991" on="0"/>
        <pt x="212" y="1117" on="1"/>
        <pt x="250" y="1312" on="0"/>
        <pt x="177" y="1369" on="1"/>
        <pt x="139" y="1400" on="0"/>
        <pt x="68" y="1400" on="1"/>
        <pt x="68" y="1524" on="1"/>
        <pt x="238" y="1524" on="0"/>
        <pt x="298" y="1433" on="1"/>
        <pt x="382" y="1303" on="0"/>
        <pt x="296" y="972" on="1"/>
        <pt x="269" y="870" on="0"/>
        <pt x="225" y="736" on="1"/>
        <pt x="887" y="989" on="1"/>
        <pt x="934" y="875" on="1"/>
        <pt x="821" y="534" on="0"/>
        <pt x="796" y="409" on="1"/>
        <pt x="758" y="215" on="0"/>
        <pt x="828" y="156" on="1"/>
        <pt x="866" y="124" on="0"/>
        <pt x="940" y="124" on="1"/>
      </contour>
    </TTGlyph>
    <TTGlyph name="Koppacyrillic" xMin="80" yMin="-258" xMax="1084" yMax="1532">
      <contour>
        <pt x="618" y="108" on="1"/>
        <pt x="844" y="110" on="1"/>
        <pt x="844" y="-258" on="1"/>
        <pt x="698" y="-258" on="1"/>
        <pt x="698" y="-16" on="1"/>
        <pt x="618" y="-16" on="1"/>
        <pt x="377" y="-16" on="0"/>
        <pt x="236" y="174" on="1"/>
        <pt x="80" y="384" on="0"/>
        <pt x="80" y="759" on="1"/>
        <pt x="80" y="1147" on="0"/>
        <pt x="258" y="1366" on="1"/>
        <pt x="319" y="1441" on="0"/>
        <pt x="504" y="1532" on="0"/>
        <pt x="696" y="1532" on="0"/>
        <pt x="831" y="1483" on="0"/>
        <pt x="923" y="1405" on="0"/>
        <pt x="999" y="1310" on="0"/>
        <pt x="1021" y="1262" on="1"/>
        <pt x="1067" y="1163" on="0"/>
        <pt x="1078" y="1112" on="1"/>
        <pt x="1084" y="1088" on="1"/>
        <pt x="1084" y="1087" on="1"/>
        <pt x="932" y="1046" on="1"/>
        <pt x="916" y="1160" on="0"/>
        <pt x="867" y="1265" on="0"/>
        <pt x="818" y="1332" on="0"/>
        <pt x="788" y="1355" on="1"/>
        <pt x="717" y="1408" on="0"/>
        <pt x="618" y="1408" on="1"/>
        <pt x="228" y="1408" on="0"/>
        <pt x="228" y="759" on="1"/>
        <pt x="228" y="481" on="0"/>
        <pt x="310" y="305" on="1"/>
        <pt x="403" y="108" on="0"/>
      </contour>
    </TTGlyph>
    <TTGlyph name="Ksicyrillic" xMin="40" yMin="-333" xMax="955" yMax="1922">
      <contour>
        <pt x="826" y="-278" on="1"/>
        <pt x="598" y="-333" on="0"/>
        <pt x="310" y="-333" on="0"/>
        <pt x="158" y="-293" on="0"/>
        <pt x="62" y="-191" on="0"/>
        <pt x="62" y="-53" on="0"/>
        <pt x="98" y="31" on="0"/>
        <pt x="160" y="82" on="0"/>
        <pt x="212" y="97" on="1"/>
        <pt x="302" y="123" on="0"/>
        <pt x="607" y="123" on="0"/>
        <pt x="807" y="273" on="0"/>
        <pt x="807" y="552" on="0"/>
        <pt x="630" y="730" on="0"/>
        <pt x="487" y="730" on="1"/>
        <pt x="320" y="730" on="1"/>
        <pt x="320" y="854" on="1"/>
        <pt x="491" y="854" on="1"/>
        <pt x="623" y="854" on="0"/>
        <pt x="759" y="1018" on="0"/>
        <pt x="759" y="1257" on="0"/>
        <pt x="581" y="1393" on="0"/>
        <pt x="463" y="1393" on="1"/>
        <pt x="267" y="1393" on="0"/>
        <pt x="106" y="1278" on="1"/>
        <pt x="40" y="1389" on="1"/>
        <pt x="117" y="1451" on="0"/>
        <pt x="322" y="1519" on="0"/>
        <pt x="589" y="1519" on="0"/>
        <pt x="786" y="1421" on="0"/>
        <pt x="907" y="1249" on="0"/>
        <pt x="907" y="1076" on="0"/>
        <pt x="865" y="948" on="0"/>
        <pt x="831" y="904" on="1"/>
        <pt x="771" y="828" on="0"/>
        <pt x="716" y="792" on="1"/>
        <pt x="842" y="714" on="0"/>
        <pt x="898" y="626" on="1"/>
        <pt x="955" y="534" on="0"/>
        <pt x="955" y="417" on="1"/>
        <pt x="955" y="210" on="0"/>
        <pt x="687" y="-3" on="0"/>
        <pt x="463" y="-3" on="1"/>
        <pt x="429" y="-3" on="0"/>
        <pt x="376" y="-3" on="0"/>
        <pt x="316" y="-6" on="0"/>
        <pt x="289" y="-11" on="0"/>
        <pt x="250" y="-22" on="0"/>
        <pt x="234" y="-37" on="0"/>
        <pt x="225" y="-48" on="1"/>
        <pt x="210" y="-68" on="0"/>
        <pt x="210" y="-161" on="0"/>
        <pt x="325" y="-209" on="0"/>
        <pt x="484" y="-208" on="0"/>
        <pt x="572" y="-198" on="1"/>
        <pt x="731" y="-179" on="0"/>
        <pt x="796" y="-157" on="1"/>
      </contour>
      <contour>
        <pt x="251" y="1857" on="1"/>
        <pt x="316" y="1922" on="1"/>
        <pt x="473" y="1765" on="1"/>
        <pt x="629" y="1921" on="1"/>
        <pt x="695" y="1857" on="1"/>
        <pt x="473" y="1635" on="1"/>
      </contour>
    </TTGlyph>
    <TTGlyph name="L" xMin="135" yMin="0" xMax="955" yMax="1515">
      <contour>
        <pt x="135" y="0" on="1"/>
        <pt x="135" y="1515" on="1"/>
        <pt x="283" y="1515" on="1"/>
        <pt x="283" y="142" on="1"/>
        <pt x="955" y="142" on="1"/>
        <pt x="955" y="0" on="1"/>
      </contour>
    </TTGlyph>
    <TTGlyph name="LJ" xMin="135" yMin="-16" xMax="1692" yMax="1515">
      <component glyphName="J" x="931" y="0" flags="0x4"/>
      <component glyphName="L" x="0" y="0" flags="0x4"/>
    </TTGlyph>
    <TTGlyph name="Lacute" xMin="135" yMin="0" xMax="955" yMax="1967">
      <component glyphName="acute" x="73" y="512" flags="0x4"/>
      <component glyphName="L" x="0" y="0" flags="0x4"/>
    </TTGlyph>
    <TTGlyph name="Lambda" xMin="25" yMin="0" xMax="1079" yMax="1515">
      <contour>
        <pt x="1079" y="0" on="1"/>
        <pt x="925" y="0" on="1"/>
        <pt x="552" y="1256" on="1"/>
        <pt x="179" y="0" on="1"/>
        <pt x="25" y="0" on="1"/>
        <pt x="475" y="1515" on="1"/>
        <pt x="629" y="1515" on="1"/>
      </contour>
    </TTGlyph>
    <TTGlyph name="Lbar" xMin="25" yMin="0" xMax="987" yMax="1515">
      <contour>
        <pt x="25" y="677" on="1"/>
        <pt x="25" y="801" on="1"/>
        <pt x="167" y="801" on="1"/>
        <pt x="167" y="1515" on="1"/>
        <pt x="315" y="1515" on="1"/>
        <pt x="315" y="801" on="1"/>
        <pt x="583" y="801" on="1"/>
        <pt x="583" y="677" on="1"/>
        <pt x="315" y="677" on="1"/>
        <pt x="315" y="142" on="1"/>
        <pt x="987" y="142" on="1"/>
        <pt x="987" y="0" on="1"/>
        <pt x="167" y="0" on="1"/>
        <pt x="167" y="677" on="1"/>
      </contour>
    </TTGlyph>
    <TTGlyph name="Lcaron" xMin="135" yMin="0" xMax="955" yMax="1515">
      <component glyphName="comma" x="345" y="1343" flags="0x4"/>
      <component glyphName="L" x="0" y="0" flags="0x4"/>
    </TTGlyph>
    <TTGlyph name="Lcircumflexbelow" xMin="135" yMin="-409" xMax="955" yMax="1515">
      <component glyphName="asciicircum" x="233" y="-1541" flags="0x4"/>
      <component glyphName="L" x="0" y="0" flags="0x4"/>
    </TTGlyph>
    <TTGlyph name="Lcommaaccent" xMin="135" yMin="-522" xMax="955" yMax="1515">
      <component glyphName="comma" x="389" y="-272" flags="0x4"/>
      <component glyphName="L" x="0" y="0" flags="0x4"/>
    </TTGlyph>
    <TTGlyph name="Ldot" xMin="135" yMin="0" xMax="955" yMax="1515">
      <component glyphName="periodcentered" x="378" y="-95" flags="0x4"/>
      <component glyphName="L" x="0" y="0" flags="0x4"/>
    </TTGlyph>
    <TTGlyph name="Ldotbelow" xMin="135" yMin="-272" xMax="955" yMax="1515">
      <component glyphName="dotaccent" x="545" y="-394" flags="0x4"/>
      <component glyphName="L" x="0" y="0" flags="0x4"/>
    </TTGlyph>
    <TTGlyph name="Ldotbelowmacron" xMin="-54" yMin="-272" xMax="955" yMax="1746">
      <component glyphName="macron" x="-144" y="423" flags="0x4"/>
      <component glyphName="dotaccent" x="545" y="-394" flags="0x4"/>
      <component glyphName="L" x="0" y="0" flags="0x4"/>
    </TTGlyph>
    <TTGlyph name="Lj" xMin="135" yMin="-337" xMax="1241" yMax="1515">
      <component glyphName="j" x="980" y="0" flags="0x4"/>
      <component glyphName="L" x="0" y="0" flags="0x4"/>
    </TTGlyph>
    <TTGlyph name="Lje" xMin="40" yMin="-16" xMax="1866" yMax="1515">
      <contour>
        <pt x="40" y="108" on="1"/>
        <pt x="167" y="108" on="0"/>
        <pt x="216" y="216" on="1"/>
        <pt x="256" y="305" on="0"/>
        <pt x="256" y="455" on="1"/>
        <pt x="256" y="1515" on="1"/>
        <pt x="1086" y="1515" on="1"/>
        <pt x="1086" y="853" on="1"/>
        <pt x="1410" y="853" on="1"/>
        <pt x="1696" y="853" on="0"/>
        <pt x="1806" y="664" on="1"/>
        <pt x="1866" y="559" on="0"/>
        <pt x="1866" y="410" on="1"/>
        <pt x="1866" y="223" on="0"/>
        <pt x="1632" y="0" on="0"/>
        <pt x="1410" y="0" on="1"/>
        <pt x="937" y="0" on="1"/>
        <pt x="937" y="1391" on="1"/>
        <pt x="410" y="1391" on="1"/>
        <pt x="410" y="455" on="1"/>
        <pt x="410" y="226" on="0"/>
        <pt x="301" y="94" on="1"/>
        <pt x="210" y="-16" on="0"/>
        <pt x="40" y="-16" on="1"/>
      </contour>
      <contour>
        <pt x="1086" y="726" on="1"/>
        <pt x="1086" y="124" on="1"/>
        <pt x="1410" y="124" on="1"/>
        <pt x="1573" y="124" on="0"/>
        <pt x="1648" y="192" on="1"/>
        <pt x="1680" y="221" on="0"/>
        <pt x="1726" y="333" on="0"/>
        <pt x="1726" y="410" on="1"/>
        <pt x="1726" y="552" on="0"/>
        <pt x="1552" y="726" on="0"/>
        <pt x="1410" y="726" on="1"/>
      </contour>
    </TTGlyph>
    <TTGlyph name="Llinebelow" xMin="135" yMin="-214" xMax="955" yMax="1515">
      <component glyphName="macron" x="192" y="-1445" flags="0x4"/>
      <component glyphName="L" x="0" y="0" flags="0x4"/>
    </TTGlyph>
    <TTGlyph name="Lslash" xMin="-156" yMin="0" xMax="955" yMax="1515">
      <contour>
        <pt x="-156" y="324" on="1"/>
        <pt x="-156" y="479" on="1"/>
        <pt x="135" y="770" on="1"/>
        <pt x="135" y="1515" on="1"/>
        <pt x="283" y="1515" on="1"/>
        <pt x="283" y="918" on="1"/>
        <pt x="588" y="1223" on="1"/>
        <pt x="588" y="1067" on="1"/>
        <pt x="283" y="762" on="1"/>
        <pt x="283" y="142" on="1"/>
        <pt x="955" y="142" on="1"/>
        <pt x="955" y="0" on="1"/>
        <pt x="135" y="0" on="1"/>
        <pt x="135" y="615" on="1"/>
      </contour>
    </TTGlyph>
    <TTGlyph name="M" xMin="128" yMin="0" xMax="1322" yMax="1515">
      <contour>
        <pt x="128" y="0" on="1"/>
        <pt x="128" y="1515" on="1"/>
        <pt x="396" y="1515" on="1"/>
        <pt x="720" y="352" on="1"/>
        <pt x="730" y="352" on="1"/>
        <pt x="1054" y="1515" on="1"/>
        <pt x="1322" y="1515" on="1"/>
        <pt x="1322" y="0" on="1"/>
        <pt x="1174" y="0" on="1"/>
        <pt x="1174" y="1374" on="1"/>
        <pt x="1164" y="1374" on="1"/>
        <pt x="782" y="0" on="1"/>
        <pt x="668" y="0" on="1"/>
        <pt x="286" y="1374" on="1"/>
        <pt x="276" y="1374" on="1"/>
        <pt x="276" y="0" on="1"/>
      </contour>
    </TTGlyph>
    <TTGlyph name="Macute" xMin="128" yMin="0" xMax="1322" yMax="2014">
      <component glyphName="acute" x="537" y="559" flags="0x4"/>
      <component glyphName="M" x="0" y="0" flags="0x4"/>
    </TTGlyph>
    <TTGlyph name="Mdotaccent" xMin="128" yMin="0" xMax="1322" yMax="1804">
      <component glyphName="dotaccent" x="725" y="1532" flags="0x4"/>
      <component glyphName="M" x="0" y="0" flags="0x4"/>
    </TTGlyph>
    <TTGlyph name="Mdotbelow" xMin="128" yMin="-272" xMax="1322" yMax="1515">
      <component glyphName="dotaccent" x="725" y="-394" flags="0x4"/>
      <component glyphName="M" x="0" y="0" flags="0x4"/>
    </TTGlyph>
    <TTGlyph name="Mu" xMin="128" yMin="0" xMax="1322" yMax="1515">
      <component glyphName="M" x="0" y="0" flags="0x204"/>
    </TTGlyph>
    <TTGlyph name="N" xMin="128" yMin="0" xMax="1123" yMax="1515">
      <contour>
        <pt x="128" y="0" on="1"/>
        <pt x="128" y="1515" on="1"/>
        <pt x="364" y="1515" on="1"/>
        <pt x="975" y="361" on="1"/>
        <pt x="975" y="1515" on="1"/>
        <pt x="1123" y="1515" on="1"/>
        <pt x="1123" y="0" on="1"/>
        <pt x="996" y="0" on="1"/>
        <pt x="276" y="1368" on="1"/>
        <pt x="276" y="0" on="1"/>
      </contour>
    </TTGlyph>
    <TTGlyph name="NJ" xMin="128" yMin="-16" xMax="2012" yMax="1515">
      <component glyphName="J" x="1251" y="0" flags="0x4"/>
      <component glyphName="N" x="0" y="0" flags="0x4"/>
    </TTGlyph>
    <TTGlyph name="Nacute" xMin="128" yMin="0" xMax="1123" yMax="1967">
      <component glyphName="acute" x="490" y="512" flags="0x4"/>
      <component glyphName="N" x="0" y="0" flags="0x4"/>
    </TTGlyph>
    <TTGlyph name="Ncaron" xMin="128" yMin="0" xMax="1123" yMax="1941">
      <component glyphName="caron" x="314" y="522" flags="0x4"/>
      <component glyphName="N" x="0" y="0" flags="0x4"/>
    </TTGlyph>
    <TTGlyph name="Ncircumflexbelow" xMin="128" yMin="-409" xMax="1123" yMax="1515">
      <component glyphName="asciicircum" x="314" y="-1541" flags="0x4"/>
      <component glyphName="N" x="0" y="0" flags="0x4"/>
    </TTGlyph>
    <TTGlyph name="Ncommaaccent" xMin="128" yMin="-522" xMax="1123" yMax="1515">
      <component glyphName="comma" x="470" y="-272" flags="0x4"/>
      <component glyphName="N" x="0" y="0" flags="0x4"/>
    </TTGlyph>
    <TTGlyph name="Ndotaccent" xMin="128" yMin="0" xMax="1123" yMax="1804">
      <component glyphName="dotaccent" x="626" y="1532" flags="0x4"/>
      <component glyphName="N" x="0" y="0" flags="0x4"/>
    </TTGlyph>
    <TTGlyph name="Ndotbelow" xMin="128" yMin="-272" xMax="1123" yMax="1515">
      <component glyphName="dotaccent" x="626" y="-394" flags="0x4"/>
      <component glyphName="N" x="0" y="0" flags="0x4"/>
    </TTGlyph>
    <TTGlyph name="Ngrave" xMin="128" yMin="0" xMax="1123" yMax="2014">
      <component glyphName="grave" x="130" y="559" flags="0x4"/>
      <component glyphName="N" x="0" y="0" flags="0x4"/>
    </TTGlyph>
    <TTGlyph name="Nhook" xMin="-39" yMin="-338" xMax="1123" yMax="1515">
      <contour>
        <pt x="128" y="1515" on="1"/>
        <pt x="364" y="1515" on="1"/>
        <pt x="975" y="361" on="1"/>
        <pt x="975" y="1515" on="1"/>
        <pt x="1123" y="1515" on="1"/>
        <pt x="1123" y="0" on="1"/>
        <pt x="996" y="0" on="1"/>
        <pt x="276" y="1368" on="1"/>
        <pt x="276" y="0" on="1"/>
        <pt x="276" y="-212" on="0"/>
        <pt x="208" y="-275" on="1"/>
        <pt x="182" y="-299" on="0"/>
        <pt x="144" y="-324" on="0"/>
        <pt x="106" y="-330" on="1"/>
        <pt x="54" y="-338" on="0"/>
        <pt x="13" y="-338" on="1"/>
        <pt x="-31" y="-338" on="1"/>
        <pt x="-39" y="-226" on="1"/>
        <pt x="42" y="-226" on="0"/>
        <pt x="128" y="-156" on="0"/>
        <pt x="128" y="-10" on="1"/>
      </contour>
    </TTGlyph>
    <TTGlyph name="Nj" xMin="128" yMin="-337" xMax="1512" yMax="1515">
      <component glyphName="j" x="1251" y="0" flags="0x4"/>
      <component glyphName="N" x="0" y="0" flags="0x4"/>
    </TTGlyph>
    <TTGlyph name="Nje" xMin="135" yMin="0" xMax="1899" yMax="1515">
      <contour>
        <pt x="135" y="0" on="1"/>
        <pt x="135" y="1515" on="1"/>
        <pt x="283" y="1515" on="1"/>
        <pt x="283" y="854" on="1"/>
        <pt x="970" y="854" on="1"/>
        <pt x="970" y="1515" on="1"/>
        <pt x="1118" y="1515" on="1"/>
        <pt x="1118" y="854" on="1"/>
        <pt x="1443" y="854" on="1"/>
        <pt x="1729" y="854" on="0"/>
        <pt x="1838" y="664" on="1"/>
        <pt x="1899" y="559" on="0"/>
        <pt x="1899" y="410" on="1"/>
        <pt x="1899" y="223" on="0"/>
        <pt x="1665" y="0" on="0"/>
        <pt x="1443" y="0" on="1"/>
        <pt x="970" y="0" on="1"/>
        <pt x="970" y="730" on="1"/>
        <pt x="283" y="730" on="1"/>
        <pt x="283" y="0" on="1"/>
      </contour>
      <contour>
        <pt x="1118" y="730" on="1"/>
        <pt x="1118" y="124" on="1"/>
        <pt x="1443" y="124" on="1"/>
        <pt x="1606" y="124" on="0"/>
        <pt x="1682" y="192" on="1"/>
        <pt x="1713" y="221" on="0"/>
        <pt x="1759" y="333" on="0"/>
        <pt x="1759" y="410" on="1"/>
        <pt x="1759" y="553" on="0"/>
        <pt x="1585" y="730" on="0"/>
        <pt x="1443" y="730" on="1"/>
      </contour>
    </TTGlyph>
    <TTGlyph name="Nleg" xMin="128" yMin="-411" xMax="1021" yMax="1504">
      <contour>
        <pt x="128" y="0" on="1"/>
        <pt x="128" y="1491" on="1"/>
        <pt x="275" y="1491" on="1"/>
        <pt x="275" y="1271" on="1"/>
        <pt x="368" y="1363" on="0"/>
        <pt x="614" y="1504" on="0"/>
        <pt x="727" y="1504" on="1"/>
        <pt x="850" y="1504" on="0"/>
        <pt x="933" y="1430" on="1"/>
        <pt x="1021" y="1352" on="0"/>
        <pt x="1021" y="1190" on="1"/>
        <pt x="1021" y="-411" on="1"/>
        <pt x="874" y="-411" on="1"/>
        <pt x="874" y="1190" on="1"/>
        <pt x="874" y="1275" on="0"/>
        <pt x="753" y="1378" on="0"/>
        <pt x="591" y="1378" on="0"/>
        <pt x="348" y="1238" on="0"/>
        <pt x="275" y="1158" on="1"/>
        <pt x="275" y="0" on="1"/>
      </contour>
    </TTGlyph>
    <TTGlyph name="Nlinebelow" xMin="128" yMin="-214" xMax="1123" yMax="1515">
      <component glyphName="macron" x="272" y="-1445" flags="0x4"/>
      <component glyphName="N" x="0" y="0" flags="0x4"/>
    </TTGlyph>
    <TTGlyph name="Ntilde" xMin="128" yMin="0" xMax="1123" yMax="1854">
      <component glyphName="asciitilde" x="231" y="539" flags="0x4"/>
      <component glyphName="N" x="0" y="0" flags="0x4"/>
    </TTGlyph>
    <TTGlyph name="Nu" xMin="128" yMin="0" xMax="1123" yMax="1515">
      <component glyphName="N" x="0" y="0" flags="0x204"/>
    </TTGlyph>
    <TTGlyph name="O" xMin="80" yMin="-16" xMax="1183" yMax="1532">
      <contour>
        <pt x="1104" y="1184" on="1"/>
        <pt x="1183" y="992" on="0"/>
        <pt x="1183" y="752" on="1"/>
        <pt x="1183" y="313" on="0"/>
        <pt x="956" y="100" on="1"/>
        <pt x="833" y="-16" on="0"/>
        <pt x="641" y="-16" on="1"/>
        <pt x="530" y="-16" on="0"/>
        <pt x="342" y="73" on="0"/>
        <pt x="213" y="222" on="0"/>
        <pt x="122" y="421" on="0"/>
        <pt x="80" y="638" on="0"/>
        <pt x="80" y="868" on="0"/>
        <pt x="118" y="1086" on="0"/>
        <pt x="204" y="1290" on="0"/>
        <pt x="331" y="1441" on="0"/>
        <pt x="523" y="1532" on="0"/>
        <pt x="754" y="1532" on="0"/>
        <pt x="939" y="1439" on="0"/>
        <pt x="1062" y="1286" on="0"/>
      </contour>
      <contour>
        <pt x="985" y="400" on="1"/>
        <pt x="1035" y="554" on="0"/>
        <pt x="1035" y="752" on="1"/>
        <pt x="1035" y="1081" on="0"/>
        <pt x="914" y="1262" on="1"/>
        <pt x="871" y="1327" on="0"/>
        <pt x="731" y="1408" on="0"/>
        <pt x="551" y="1408" on="0"/>
        <pt x="408" y="1336" on="0"/>
        <pt x="315" y="1215" on="0"/>
        <pt x="254" y="1045" on="0"/>
        <pt x="228" y="858" on="0"/>
        <pt x="228" y="620" on="0"/>
        <pt x="275" y="395" on="0"/>
        <pt x="370" y="213" on="0"/>
        <pt x="533" y="108" on="0"/>
        <pt x="730" y="108" on="0"/>
        <pt x="871" y="187" on="0"/>
        <pt x="957" y="313" on="0"/>
      </contour>
    </TTGlyph>
    <TTGlyph name="OE" xMin="80" yMin="0" xMax="1650" yMax="1515">
      <contour>
        <pt x="641" y="1515" on="1"/>
        <pt x="1612" y="1515" on="1"/>
        <pt x="1612" y="1391" on="1"/>
        <pt x="939" y="1391" on="1"/>
        <pt x="939" y="858" on="1"/>
        <pt x="1422" y="858" on="1"/>
        <pt x="1422" y="734" on="1"/>
        <pt x="939" y="734" on="1"/>
        <pt x="939" y="133" on="1"/>
        <pt x="1650" y="133" on="1"/>
        <pt x="1650" y="0" on="1"/>
        <pt x="641" y="0" on="1"/>
        <pt x="530" y="0" on="0"/>
        <pt x="342" y="86" on="0"/>
        <pt x="213" y="232" on="0"/>
        <pt x="122" y="426" on="0"/>
        <pt x="80" y="640" on="0"/>
        <pt x="80" y="867" on="0"/>
        <pt x="118" y="1080" on="0"/>
        <pt x="204" y="1279" on="0"/>
        <pt x="331" y="1427" on="0"/>
        <pt x="523" y="1515" on="0"/>
      </contour>
      <contour>
        <pt x="318" y="313" on="1"/>
        <pt x="361" y="237" on="0"/>
        <pt x="448" y="184" on="1"/>
        <pt x="494" y="157" on="0"/>
        <pt x="644" y="131" on="0"/>
        <pt x="720" y="135" on="0"/>
        <pt x="780" y="133" on="0"/>
        <pt x="791" y="133" on="1"/>
        <pt x="791" y="1391" on="1"/>
        <pt x="636" y="1391" on="0"/>
        <pt x="575" y="1381" on="1"/>
        <pt x="397" y="1351" on="0"/>
        <pt x="228" y="1052" on="0"/>
        <pt x="228" y="469" on="0"/>
      </contour>
    </TTGlyph>
    <TTGlyph name="OI" xMin="80" yMin="-16" xMax="1502" yMax="1533">
      <contour>
        <pt x="985" y="400" on="1"/>
        <pt x="1035" y="554" on="0"/>
        <pt x="1035" y="752" on="1"/>
        <pt x="1035" y="1081" on="0"/>
        <pt x="914" y="1262" on="1"/>
        <pt x="871" y="1327" on="0"/>
        <pt x="731" y="1408" on="0"/>
        <pt x="551" y="1408" on="0"/>
        <pt x="408" y="1336" on="0"/>
        <pt x="315" y="1215" on="0"/>
        <pt x="254" y="1045" on="0"/>
        <pt x="228" y="858" on="0"/>
        <pt x="228" y="620" on="0"/>
        <pt x="275" y="395" on="0"/>
        <pt x="370" y="213" on="0"/>
        <pt x="533" y="108" on="0"/>
        <pt x="730" y="108" on="0"/>
        <pt x="871" y="187" on="0"/>
        <pt x="957" y="313" on="0"/>
      </contour>
      <contour>
        <pt x="641" y="1532" on="1"/>
        <pt x="813" y="1532" on="0"/>
        <pt x="938" y="1426" on="1"/>
        <pt x="1024" y="1533" on="0"/>
        <pt x="1329" y="1533" on="0"/>
        <pt x="1502" y="1349" on="0"/>
        <pt x="1502" y="1212" on="1"/>
        <pt x="1502" y="3" on="1"/>
        <pt x="1354" y="3" on="1"/>
        <pt x="1354" y="1212" on="1"/>
        <pt x="1354" y="1289" on="0"/>
        <pt x="1250" y="1413" on="0"/>
        <pt x="1099" y="1413" on="0"/>
        <pt x="1022" y="1334" on="1"/>
        <pt x="1103" y="1224" on="0"/>
        <pt x="1183" y="916" on="0"/>
        <pt x="1183" y="656" on="0"/>
        <pt x="1157" y="474" on="0"/>
        <pt x="1103" y="300" on="0"/>
        <pt x="1015" y="155" on="0"/>
        <pt x="956" y="100" on="1"/>
        <pt x="833" y="-16" on="0"/>
        <pt x="641" y="-16" on="1"/>
        <pt x="530" y="-16" on="0"/>
        <pt x="342" y="73" on="0"/>
        <pt x="213" y="222" on="0"/>
        <pt x="122" y="421" on="0"/>
        <pt x="80" y="638" on="0"/>
        <pt x="80" y="868" on="0"/>
        <pt x="118" y="1086" on="0"/>
        <pt x="204" y="1290" on="0"/>
        <pt x="331" y="1441" on="0"/>
        <pt x="523" y="1532" on="0"/>
      </contour>
    </TTGlyph>
    <TTGlyph name="OT" xMin="80" yMin="-12" xMax="1398" yMax="1780">
      <contour>
        <pt x="739" y="225" on="1"/>
        <pt x="688" y="98" on="0"/>
        <pt x="612" y="42" on="1"/>
        <pt x="539" y="-12" on="0"/>
        <pt x="338" y="-12" on="0"/>
        <pt x="195" y="101" on="0"/>
        <pt x="156" y="196" on="1"/>
        <pt x="80" y="380" on="0"/>
        <pt x="80" y="615" on="1"/>
        <pt x="80" y="1060" on="0"/>
        <pt x="333" y="1515" on="1"/>
        <pt x="447" y="1461" on="1"/>
        <pt x="228" y="1054" on="0"/>
        <pt x="228" y="615" on="1"/>
        <pt x="228" y="438" on="0"/>
        <pt x="292" y="208" on="0"/>
        <pt x="377" y="112" on="0"/>
        <pt x="489" y="112" on="0"/>
        <pt x="577" y="169" on="0"/>
        <pt x="626" y="251" on="0"/>
        <pt x="642" y="300" on="1"/>
        <pt x="669" y="384" on="0"/>
        <pt x="669" y="450" on="1"/>
        <pt x="669" y="744" on="1"/>
        <pt x="809" y="744" on="1"/>
        <pt x="809" y="450" on="1"/>
        <pt x="809" y="384" on="0"/>
        <pt x="852" y="251" on="0"/>
        <pt x="901" y="169" on="0"/>
        <pt x="989" y="112" on="0"/>
        <pt x="1101" y="112" on="0"/>
        <pt x="1186" y="208" on="0"/>
        <pt x="1208" y="287" on="1"/>
        <pt x="1250" y="438" on="0"/>
        <pt x="1250" y="615" on="1"/>
        <pt x="1250" y="1054" on="0"/>
        <pt x="1031" y="1461" on="1"/>
        <pt x="1145" y="1515" on="1"/>
        <pt x="1398" y="1060" on="0"/>
        <pt x="1398" y="615" on="1"/>
        <pt x="1398" y="380" on="0"/>
        <pt x="1322" y="196" on="1"/>
        <pt x="1283" y="101" on="0"/>
        <pt x="1140" y="-12" on="0"/>
        <pt x="1044" y="-12" on="1"/>
        <pt x="858" y="-12" on="0"/>
        <pt x="768" y="162" on="1"/>
        <pt x="753" y="190" on="0"/>
      </contour>
      <contour>
        <pt x="381" y="1656" on="1"/>
        <pt x="381" y="1780" on="1"/>
        <pt x="1097" y="1780" on="1"/>
        <pt x="1097" y="1656" on="1"/>
        <pt x="813" y="1656" on="1"/>
        <pt x="813" y="1541" on="1"/>
        <pt x="665" y="1541" on="1"/>
        <pt x="665" y="1656" on="1"/>
      </contour>
    </TTGlyph>
    <TTGlyph name="Oacute" xMin="80" yMin="-16" xMax="1183" yMax="1967">
      <component glyphName="acute" x="505" y="512" flags="0x4"/>
      <component glyphName="O" x="0" y="0" flags="0x4"/>
    </TTGlyph>
</ttFont>
